<?xml version="1.0" encoding="utf-8"?>
<!-- Generator: Adobe Illustrator 16.0.4, SVG Export Plug-In . SVG Version: 6.00 Build 0)  -->
<!DOCTYPE svg PUBLIC "-//W3C//DTD SVG 1.1//EN" "http://www.w3.org/Graphics/SVG/1.1/DTD/svg11.dtd">
<svg version="1.1" id="Layer_1" xmlns="http://www.w3.org/2000/svg" xmlns:xlink="http://www.w3.org/1999/xlink" x="0px" y="0px"
	 width="144.265px" height="46.498px" viewBox="70.349 24.272 144.265 46.498"
	 enable-background="new 70.349 24.272 144.265 46.498" xml:space="preserve">
<title>EF_all_colours_ai</title>
<g id="Layer_1_1_">
	<path fill="#F79322" d="M206.613,67.334l-4.447-5.642h-1.389v9.077h1.713v-6.154l4.773,6.154h1.062v-9.072h-1.713V67.334z
		 M189.992,63.077c2.139,0,2.995,1.712,2.969,3.246c-0.025,1.533-0.83,3.077-2.969,3.077s-2.943-1.596-2.979-3.077
		C186.977,64.841,187.864,63.077,189.992,63.077z M189.992,61.539c-3.139,0-4.666,2.399-4.666,4.784
		c0,2.384,1.477,4.682,4.666,4.682s4.615-2.349,4.656-4.697S193.121,61.539,189.992,61.539z M179.105,70.77v-9.072h-1.703v9.072
		H179.105z M167.023,70.77h1.713v-7.518h2.877v-1.539h-7.473v1.539h2.883V70.77z M157.326,67.467h-3.375l1.688-3.877L157.326,67.467
		z M158.777,70.77h1.866l-4.062-9.072h-1.867l-4.082,9.072h1.847l0.774-1.708h4.748L158.777,70.77z M139.29,63.303h1.867
		c1.975,0,2.801,1.415,2.842,2.83c0.041,1.416-0.78,2.99-2.842,2.99h-1.867V63.303z M141.156,61.682h-3.548v9.088h3.564
		c3.18,0,4.58-2.318,4.539-4.615c-0.041-2.298-1.437-4.457-4.555-4.457V61.682z M129.685,67.323l-4.446-5.642h-1.39v9.088h1.713
		v-6.154l4.769,6.154h1.067v-9.072h-1.713V67.323z M115.603,61.713v5.21c0,1.538-0.8,2.503-2.215,2.503s-2.349-0.867-2.349-2.503
		v-5.2h-1.698v5.2c0,2.733,1.856,4.057,4.031,4.057c2.282,0,3.934-1.374,3.934-4.057v-5.2L115.603,61.713z M98.68,63.072
		c2.138,0,2.995,1.713,2.969,3.246c-0.026,1.533-0.831,3.076-2.969,3.076c-2.139,0-2.944-1.595-2.985-3.076
		c-0.041-1.482,0.851-3.241,2.99-3.241L98.68,63.072z M98.68,61.533c-3.139,0-4.667,2.4-4.667,4.785S95.49,71,98.68,71
		c3.189,0,4.615-2.349,4.656-4.697s-1.528-4.764-4.651-4.764L98.68,61.533z M83.413,70.77v-3.354h4.549v-1.57h-4.549v-2.477h4.811
		v-1.646H81.71v9.047H83.413z"/>
	<path fill="#3E3C3B" d="M208.495,52.18h-11.37V47.61h10.965v-3.559h-10.965v-4.687h11.37v-3.703h-15.159v20.277h15.159V52.18z
		 M187.982,39.021c-1.539-3.128-4.801-4.021-7.954-4.021c-3.733,0-7.841,1.733-7.841,5.897c0,4.543,3.82,5.641,7.953,6.154
		c2.693,0.287,4.688,1.072,4.688,2.979c0,2.2-2.256,3.036-4.656,3.036s-4.801-0.984-5.697-3.21l-3.186,1.651
		c1.508,3.703,4.688,4.975,8.826,4.975c4.514,0,8.503-1.939,8.503-6.452c0-4.831-3.934-5.928-8.159-6.451
		c-2.426-0.287-4.508-0.78-4.508-2.564c0-1.503,1.359-2.692,4.189-2.692c2.2,0,4.104,1.103,4.806,2.256L187.982,39.021z
		 M160.629,35.662c-3.186-0.026-6.365,0-9.549,0v20.277h3.82v-5.959h5.729c9.928,0,9.902-14.318,0.01-14.318H160.629z M154.9,39.308
		h5.729c4.855,0,4.887,7.18,0,7.18h-5.719L154.9,39.308z M145.67,55.938V35.662h-3.791v20.277H145.67z M123.105,35.662v20.277
		h14.231V52.41h-10.385V35.662H123.105z M116.864,50.77c-1.374,1.306-3.192,2.039-5.087,2.051c-5.005,0-6.943-3.497-6.974-6.856
		c-0.031-3.359,2.082-7.025,6.974-7.025c1.816-0.026,3.57,0.658,4.887,1.908l2.564-2.457c-1.966-1.977-4.642-3.085-7.431-3.077
		c-7.318,0-10.769,5.379-10.733,10.671c0.036,5.293,3.21,10.426,10.713,10.426c2.864,0.068,5.636-1.016,7.692-3.01L116.864,50.77z
		 M96.864,52.185H85.49V47.61h10.964v-3.559H85.49v-4.687h11.369v-3.703H81.71v20.277h15.159L96.864,52.185z"/>
	<path fill="#F79322" d="M75.382,33.6c4.616-7.231,13.923-9.744,21.667-6.282l-0.513-0.354c-7.906-5.069-18.425-2.77-23.495,5.136
		s-2.771,18.425,5.136,23.495l0.539,0.323C72.32,50.328,70.741,40.836,75.382,33.6z"/>
	<path fill="#3E3C3B" d="M209.916,37.646L209.916,37.646c0-1.297,1.051-2.349,2.348-2.349s2.35,1.052,2.35,2.349l0,0
		c0,1.297-1.053,2.349-2.35,2.349S209.916,38.943,209.916,37.646z M214.341,37.646L214.341,37.646c0-1.147-0.93-2.077-2.077-2.077
		c-1.146,0-2.076,0.93-2.076,2.077l0,0l0,0c-0.023,1.133,0.877,2.069,2.01,2.092c0.021,0,0.045,0,0.066,0
		c1.153,0.006,2.092-0.924,2.098-2.077c0-0.01,0-0.021,0-0.031L214.341,37.646z M211.295,36.379h1.185
		c0.569,0,0.984,0.256,0.984,0.811c0.017,0.353-0.217,0.669-0.559,0.759l0.6,0.856h-0.712l-0.514-0.769H211.9v0.769h-0.59
		L211.295,36.379z M212.397,37.564c0.272,0,0.421-0.133,0.421-0.333c0-0.2-0.164-0.339-0.421-0.339h-0.513v0.672H212.397z"/>
</g>
</svg>
