<?xml version="1.0" encoding="UTF-8"?>
<svg width="719px" height="219px" viewBox="0 0 719 219" version="1.1" xmlns="http://www.w3.org/2000/svg" xmlns:xlink="http://www.w3.org/1999/xlink" xmlns:sketch="http://www.bohemiancoding.com/sketch/ns">
    <!-- Generator: Sketch 3.3.3 (12072) - http://www.bohemiancoding.com/sketch -->
    <title>Greenwaves_logo_V2</title>
    <desc>Created with Sketch.</desc>
    <defs>
        <path id="path-1" d="M0,219 L718.667,219 L718.667,0.017 L0,0.017"></path>
        <path id="path-3" d="M0,219 L718.667,219 L718.667,0.017 L0,0.017"></path>
    </defs>
    <g id="Page-1" stroke="none" stroke-width="1" fill="none" fill-rule="evenodd" sketch:type="MSPage">
        <g id="Greenwaves_logo_V2" sketch:type="MSLayerGroup">
            <path d="M598.735,72.713 C598.735,72.713 562.497,100.427 578.868,137.32 C594.466,172.478 564.762,191.952 564.762,191.952 C564.762,191.952 614.544,167.251 595.372,123.02 C580.836,89.486 598.735,72.713 598.735,72.713" id="Fill-1" fill="#2AA347" sketch:type="MSShapeGroup"></path>
            <g id="Group-5">
                <mask id="mask-2" sketch:name="Clip 3" fill="white">
                    <use xlink:href="#path-1"></use>
                </mask>
                <g id="Clip-3"></g>
                <path d="M646.437,32.57 C646.437,32.57 597.337,73.065 622.051,123.66 C645.604,171.877 605.187,200.549 605.187,200.549 C605.187,200.549 673.332,163.565 644.329,102.879 C622.347,56.874 646.437,32.57 646.437,32.57" id="Fill-2" fill="#2AA347" sketch:type="MSShapeGroup" mask="url(#mask-2)"></path>
                <path d="M705.334,0.017 C705.334,0.017 639.595,50.503 674.906,118.793 C708.615,183.985 654.061,219.001 654.061,219.001 C654.061,219.001 747.3,189.339 709.755,97.1 C684.763,35.698 705.334,0.017 705.334,0.017" id="Fill-4" fill="#2AA347" sketch:type="MSShapeGroup" mask="url(#mask-2)"></path>
            </g>
            <path d="M677.614,124.389 C676.781,122.548 675.883,120.685 674.906,118.793 C675.877,120.671 676.773,122.521 677.601,124.348 C677.605,124.363 677.609,124.375 677.614,124.389 M705.327,0.023 L705.328,0.022 C705.328,0.022 705.328,0.022 705.327,0.023 M705.33,0.021 C705.33,0.021 705.33,0.021 705.33,0.02 L705.33,0.021 M705.331,0.02 C705.331,0.02 705.331,0.02 705.331,0.019 L705.331,0.02 M705.332,0.019 C705.333,0.019 705.333,0.019 705.333,0.018 C705.333,0.018 705.333,0.019 705.332,0.019 M705.333,0.018 L705.334,0.018 L705.333,0.018" id="Fill-6" fill="#FFFFFF" sketch:type="MSShapeGroup"></path>
            <g id="Group-10">
                <mask id="mask-4" sketch:name="Clip 8" fill="white">
                    <use xlink:href="#path-3"></use>
                </mask>
                <g id="Clip-8"></g>
                <path d="M696.365,15.383 C698.473,10.088 700.498,5.817 702.041,2.794 C703.974,1.076 705.189,0.13 705.322,0.027 L705.322,0.026 C705.324,0.025 705.326,0.024 705.327,0.023 L705.328,0.022 C705.329,0.022 705.329,0.021 705.33,0.021 C705.33,0.021 705.33,0.021 705.33,0.02 L705.331,0.02 L705.331,0.019 L705.332,0.019 C705.333,0.019 705.333,0.018 705.333,0.018 L705.334,0.018 C705.334,0.018 705.334,0.018 705.334,0.017 C705.334,0.017 701.432,5.782 696.365,15.383" id="Fill-7" fill="#3EAC47" sketch:type="MSShapeGroup" mask="url(#mask-4)"></path>
                <path d="M654.061,219.001 C654.061,219.001 685.917,198.553 685.901,159.819 C685.897,149.324 683.552,137.484 677.601,124.348 C665.289,83.672 684.19,38.451 696.365,15.383 C687.397,37.904 676.902,78.971 695.359,121.539 C716.254,169.731 679.146,202.985 654.072,218.997 L654.061,219.001" id="Fill-9" fill="#3EAC47" sketch:type="MSShapeGroup" mask="url(#mask-4)"></path>
            </g>
            <path d="M674.906,118.793 L674.906,118.793 C674.889,118.76 674.874,118.731 674.857,118.699 C674.874,118.732 674.888,118.759 674.906,118.793 M674.842,118.67 C674.831,118.648 674.819,118.625 674.808,118.604 C674.819,118.625 674.831,118.649 674.842,118.67 M674.791,118.571 C674.782,118.553 674.769,118.528 674.76,118.51 C674.771,118.531 674.781,118.55 674.791,118.571 M674.741,118.474 C674.732,118.456 674.72,118.432 674.711,118.414 C674.719,118.431 674.733,118.457 674.741,118.474 M674.693,118.379 C674.682,118.358 674.672,118.338 674.661,118.317 C674.672,118.338 674.682,118.358 674.693,118.379 M674.645,118.285 C674.632,118.26 674.618,118.233 674.606,118.208 C674.618,118.233 674.632,118.26 674.645,118.285 M674.597,118.191 C674.58,118.159 674.566,118.13 674.549,118.097 C674.566,118.131 674.58,118.158 674.597,118.191 M674.537,118.072 C674.526,118.051 674.512,118.024 674.501,118.002 C674.512,118.023 674.526,118.052 674.537,118.072 M674.486,117.972 C674.475,117.95 674.464,117.93 674.453,117.908 C674.464,117.929 674.475,117.951 674.486,117.972 M674.436,117.874 C674.425,117.853 674.416,117.835 674.405,117.813 C674.414,117.83 674.428,117.858 674.436,117.874 M674.388,117.779 C674.378,117.758 674.366,117.735 674.355,117.714 C674.366,117.734 674.378,117.759 674.388,117.779 M674.342,117.686 C674.329,117.661 674.313,117.629 674.3,117.604 C674.313,117.629 674.329,117.661 674.342,117.686 M674.294,117.592 C674.278,117.56 674.262,117.527 674.246,117.495 C674.262,117.528 674.278,117.559 674.294,117.592 M674.243,117.489 C674.229,117.461 674.213,117.43 674.199,117.401 C674.213,117.43 674.228,117.46 674.243,117.489 M674.186,117.376 C674.176,117.355 674.162,117.328 674.152,117.306 C674.164,117.331 674.174,117.351 674.186,117.376 M674.138,117.278 C674.127,117.257 674.114,117.231 674.103,117.209 C674.116,117.234 674.125,117.254 674.138,117.278 M674.091,117.184 C674.078,117.159 674.067,117.137 674.055,117.112 C674.067,117.137 674.078,117.159 674.091,117.184 M674.043,117.088 C674.029,117.059 674.017,117.035 674.003,117.007 C674.015,117.031 674.031,117.063 674.043,117.088 M673.997,116.994 C673.965,116.929 673.933,116.865 673.901,116.8 C673.934,116.866 673.964,116.927 673.997,116.994 M673.895,116.786 C673.881,116.758 673.869,116.735 673.855,116.706 C673.867,116.731 673.882,116.761 673.895,116.786 M673.844,116.683 C673.832,116.658 673.82,116.634 673.808,116.609 C673.82,116.634 673.832,116.658 673.844,116.683 M673.797,116.587 C673.785,116.562 673.771,116.535 673.759,116.51 C673.771,116.535 673.785,116.562 673.797,116.587 M673.751,116.493 C673.737,116.464 673.721,116.431 673.707,116.403 C673.723,116.436 673.735,116.459 673.751,116.493 M673.705,116.398 C673.658,116.302 673.609,116.2 673.563,116.104 C673.611,116.203 673.657,116.299 673.705,116.398 M673.558,116.095 C673.545,116.066 673.53,116.037 673.517,116.008 C673.531,116.037 673.544,116.066 673.558,116.095 M673.51,115.994 C673.496,115.966 673.483,115.937 673.469,115.909 C673.481,115.934 673.498,115.97 673.51,115.994 M673.464,115.898 C673.385,115.734 673.308,115.572 673.23,115.408 C673.309,115.573 673.385,115.733 673.464,115.898 M673.229,115.404 C673.214,115.372 673.199,115.34 673.183,115.308 C673.199,115.341 673.213,115.371 673.229,115.404 M673.182,115.306 C647.014,59.796 686.915,16.643 700.832,3.885 C686.907,16.651 647.014,59.803 673.182,115.306" id="Fill-11" fill="#FFFFFF" sketch:type="MSShapeGroup"></path>
            <path d="M674.906,118.793 C674.888,118.759 674.874,118.732 674.857,118.699 C674.853,118.691 674.846,118.677 674.842,118.67 C674.831,118.649 674.819,118.625 674.808,118.604 C674.801,118.59 674.799,118.585 674.791,118.571 C674.781,118.55 674.771,118.531 674.76,118.51 C674.752,118.495 674.749,118.488 674.741,118.474 C674.733,118.457 674.719,118.431 674.711,118.414 C674.705,118.404 674.698,118.39 674.693,118.379 C674.682,118.358 674.672,118.338 674.661,118.317 C674.656,118.306 674.65,118.296 674.645,118.285 C674.632,118.26 674.618,118.233 674.606,118.208 C674.602,118.201 674.601,118.198 674.597,118.191 C674.58,118.158 674.566,118.131 674.549,118.097 C674.546,118.09 674.54,118.08 674.537,118.072 C674.526,118.052 674.512,118.023 674.501,118.002 C674.496,117.992 674.491,117.983 674.486,117.972 C674.475,117.951 674.464,117.929 674.453,117.908 C674.448,117.897 674.442,117.885 674.436,117.874 C674.428,117.858 674.414,117.83 674.405,117.813 C674.4,117.802 674.394,117.79 674.388,117.779 C674.378,117.759 674.366,117.734 674.355,117.714 C674.35,117.703 674.347,117.697 674.342,117.686 C674.329,117.661 674.313,117.629 674.3,117.604 C674.299,117.601 674.296,117.596 674.294,117.592 C674.278,117.559 674.262,117.528 674.246,117.495 C674.244,117.491 674.245,117.493 674.243,117.489 C674.228,117.46 674.213,117.43 674.199,117.401 C674.194,117.391 674.192,117.387 674.186,117.376 C674.174,117.351 674.164,117.331 674.152,117.306 C674.146,117.296 674.143,117.289 674.138,117.278 C674.125,117.254 674.116,117.234 674.103,117.209 C674.1,117.202 674.094,117.191 674.091,117.184 C674.078,117.159 674.067,117.137 674.055,117.112 C674.051,117.104 674.047,117.095 674.043,117.088 C674.031,117.063 674.015,117.031 674.003,117.007 C674.001,117.003 673.998,116.997 673.997,116.994 C673.964,116.927 673.934,116.866 673.901,116.8 C673.9,116.797 673.896,116.79 673.895,116.786 C673.882,116.761 673.867,116.731 673.855,116.706 C673.852,116.699 673.848,116.69 673.844,116.683 C673.832,116.658 673.82,116.634 673.808,116.609 C673.804,116.602 673.801,116.594 673.797,116.587 C673.785,116.562 673.771,116.535 673.759,116.51 C673.756,116.503 673.754,116.5 673.751,116.493 C673.735,116.459 673.723,116.436 673.707,116.403 C673.706,116.399 673.707,116.402 673.705,116.398 C673.657,116.299 673.611,116.203 673.563,116.104 C673.561,116.1 673.56,116.098 673.558,116.095 C673.544,116.066 673.531,116.037 673.517,116.008 C673.515,116.005 673.512,115.998 673.51,115.994 C673.498,115.97 673.481,115.934 673.469,115.909 C673.467,115.905 673.466,115.902 673.464,115.898 C673.385,115.733 673.309,115.573 673.23,115.408 L673.229,115.404 C673.213,115.371 673.199,115.341 673.183,115.308 C673.182,115.305 673.184,115.31 673.182,115.306 C647.014,59.803 686.907,16.651 700.832,3.885 C700.84,3.879 700.846,3.873 700.853,3.867 L700.853,3.866 C701.274,3.481 701.671,3.123 702.041,2.794 C690.775,12.81 655.097,49.054 666.828,97.452 C668.789,104.166 671.285,110.973 674.403,117.778 C674.573,118.117 674.731,118.454 674.906,118.793" id="Fill-12" fill="#3EAC47" sketch:type="MSShapeGroup"></path>
            <path d="M677.601,124.348 C676.773,122.521 675.877,120.671 674.906,118.793 C674.731,118.454 674.573,118.117 674.403,117.778 C671.285,110.973 668.789,104.166 666.828,97.452 C655.097,49.054 690.775,12.81 702.041,2.795 C700.498,5.817 698.473,10.088 696.365,15.383 C684.19,38.451 665.289,83.672 677.601,124.348" id="Fill-13" fill="#4CAF46" sketch:type="MSShapeGroup"></path>
            <path d="M626.432,134.544 L626.43,134.54 C625.662,132.105 624.731,129.611 623.621,127.059 C624.732,129.612 625.664,132.108 626.432,134.544 M623.611,127.036 C623.604,127.02 623.597,127.003 623.59,126.987 C623.597,127.004 623.604,127.019 623.611,127.036 M623.573,126.95 C623.57,126.941 623.566,126.933 623.562,126.924 C623.566,126.932 623.57,126.942 623.573,126.95 M622.121,123.803 C622.116,123.793 622.112,123.784 622.107,123.774 C622.112,123.784 622.116,123.793 622.121,123.803 M622.087,123.733 C622.075,123.708 622.063,123.684 622.051,123.66 C622.063,123.684 622.075,123.708 622.087,123.733" id="Fill-14" fill="#FFFFFF" sketch:type="MSShapeGroup"></path>
            <path d="M622.016,123.587 C622.014,123.584 622.012,123.58 622.011,123.576 C622.012,123.579 622.014,123.584 622.016,123.587" id="Fill-15" fill="#3EAC47" sketch:type="MSShapeGroup"></path>
            <path d="M621.98,123.515 C621.979,123.511 621.974,123.501 621.972,123.498 C621.975,123.504 621.978,123.509 621.98,123.515" id="Fill-16" fill="#3EAC47" sketch:type="MSShapeGroup"></path>
            <path d="M621.945,123.443 C621.941,123.433 621.94,123.432 621.936,123.423 C621.939,123.429 621.943,123.437 621.945,123.443" id="Fill-17" fill="#3EAC47" sketch:type="MSShapeGroup"></path>
            <path d="M621.91,123.369 C621.907,123.363 621.905,123.358 621.902,123.352 C621.904,123.358 621.907,123.363 621.91,123.369" id="Fill-18" fill="#3EAC47" sketch:type="MSShapeGroup"></path>
            <path d="M621.874,123.296 C621.872,123.289 621.87,123.286 621.867,123.28 C621.869,123.284 621.872,123.291 621.874,123.296" id="Fill-19" fill="#3EAC47" sketch:type="MSShapeGroup"></path>
            <path d="M621.839,123.222 C621.836,123.216 621.835,123.214 621.832,123.208 C621.834,123.212 621.837,123.218 621.839,123.222" id="Fill-20" fill="#3EAC47" sketch:type="MSShapeGroup"></path>
            <path d="M621.803,123.148 C621.8,123.142 621.801,123.142 621.798,123.136 C621.8,123.14 621.801,123.143 621.803,123.148" id="Fill-21" fill="#3EAC47" sketch:type="MSShapeGroup"></path>
            <path d="M621.766,123.07 L621.764,123.065 C621.765,123.068 621.765,123.067 621.766,123.07" id="Fill-22" fill="#3EAC47" sketch:type="MSShapeGroup"></path>
            <path d="M617.573,112.074 L617.572,112.071 C617.572,112.072 617.572,112.073 617.573,112.074" id="Fill-23" fill="#3EAC47" sketch:type="MSShapeGroup"></path>
            <path d="M617.552,112.002 L617.552,112 L617.552,112.002" id="Fill-24" fill="#3EAC47" sketch:type="MSShapeGroup"></path>
            <path d="M617.533,111.935 C617.532,111.932 617.531,111.929 617.53,111.926 C617.531,111.929 617.532,111.932 617.533,111.935" id="Fill-25" fill="#3EAC47" sketch:type="MSShapeGroup"></path>
            <path d="M617.513,111.864 C617.512,111.861 617.511,111.859 617.51,111.856 C617.511,111.858 617.512,111.861 617.513,111.864" id="Fill-26" fill="#3EAC47" sketch:type="MSShapeGroup"></path>
            <path d="M617.494,111.796 C617.493,111.793 617.491,111.787 617.49,111.784 C617.491,111.788 617.492,111.792 617.494,111.796" id="Fill-27" fill="#3EAC47" sketch:type="MSShapeGroup"></path>
            <path d="M617.472,111.718 L617.471,111.714 C617.471,111.716 617.471,111.717 617.472,111.718" id="Fill-28" fill="#3EAC47" sketch:type="MSShapeGroup"></path>
            <path d="M617.432,111.574 C617.429,111.565 617.426,111.554 617.423,111.545 C617.426,111.555 617.429,111.565 617.432,111.574" id="Fill-29" fill="#3EAC47" sketch:type="MSShapeGroup"></path>
            <path d="M617.413,111.508 C617.41,111.496 617.406,111.483 617.403,111.471 C617.406,111.484 617.41,111.495 617.413,111.508" id="Fill-30" fill="#3EAC47" sketch:type="MSShapeGroup"></path>
            <path d="M617.394,111.438 C617.391,111.426 617.387,111.412 617.383,111.4 C617.387,111.412 617.39,111.425 617.394,111.438" id="Fill-31" fill="#3EAC47" sketch:type="MSShapeGroup"></path>
            <path d="M617.376,111.372 C617.372,111.357 617.368,111.343 617.364,111.328 C617.367,111.342 617.372,111.358 617.376,111.372" id="Fill-32" fill="#3EAC47" sketch:type="MSShapeGroup"></path>
            <path d="M617.357,111.304 C617.353,111.289 617.348,111.271 617.344,111.256 C617.349,111.273 617.353,111.288 617.357,111.304" id="Fill-33" fill="#3EAC47" sketch:type="MSShapeGroup"></path>
            <path d="M617.339,111.24 C617.335,111.222 617.33,111.205 617.325,111.187 C617.33,111.204 617.335,111.223 617.339,111.24" id="Fill-34" fill="#3EAC47" sketch:type="MSShapeGroup"></path>
            <path d="M617.321,111.173 C617.316,111.155 617.311,111.135 617.306,111.117 C617.311,111.135 617.316,111.155 617.321,111.173" id="Fill-35" fill="#3EAC47" sketch:type="MSShapeGroup"></path>
            <path d="M617.304,111.11 C617.299,111.09 617.293,111.069 617.288,111.048 C617.293,111.069 617.299,111.09 617.304,111.11" id="Fill-36" fill="#3EAC47" sketch:type="MSShapeGroup"></path>
            <path d="M641.426,39.783 C644.019,35.016 646.422,32.585 646.437,32.57 C646.423,32.585 644.032,35.008 641.448,39.749 C641.44,39.761 641.434,39.772 641.426,39.783" id="Fill-37" fill="#FFFFFF" sketch:type="MSShapeGroup"></path>
            <path d="M617.288,111.048 C615.762,105.377 615.096,99.877 615.097,94.599 C615.105,58.411 646.437,32.57 646.437,32.57 C646.422,32.585 644.019,35.016 641.426,39.783 C636.964,46.866 630.508,58.841 626.342,74.192 C624.454,67.158 623.024,62.85 623.023,62.847 C616.466,75.994 612.325,92.611 617.288,111.048" id="Fill-38" fill="#3EAC47" sketch:type="MSShapeGroup"></path>
            <path d="M624.09,176.929 C629.149,166.104 631.88,151.809 626.432,134.544 L626.433,134.545 C626.432,134.543 626.432,134.543 626.431,134.54 C631.879,151.801 629.155,166.096 624.099,176.919 C624.096,176.922 624.093,176.926 624.09,176.929" id="Fill-39" fill="#FFFFFF" sketch:type="MSShapeGroup"></path>
            <path d="M624.099,176.919 C629.155,166.096 631.879,151.801 626.431,134.54 C619.976,111.71 621.797,90.94 626.342,74.192 C632.396,96.746 643.147,147.303 626.516,173.657 C625.677,174.986 624.874,176.05 624.099,176.919" id="Fill-40" fill="#3EAC47" sketch:type="MSShapeGroup"></path>
            <path d="M623.621,127.059 C623.618,127.052 623.614,127.043 623.611,127.036 C623.614,127.044 623.618,127.051 623.621,127.059 M623.59,126.987 C623.584,126.975 623.579,126.962 623.573,126.95 C623.579,126.962 623.584,126.975 623.59,126.987 M623.562,126.924 C623.111,125.892 622.632,124.853 622.121,123.803 C622.123,123.808 622.126,123.813 622.128,123.818 C622.134,123.83 622.14,123.841 622.145,123.853 C622.153,123.869 622.161,123.885 622.168,123.9 C622.174,123.912 622.179,123.922 622.184,123.933 C622.193,123.951 622.201,123.968 622.209,123.985 C622.218,124.003 622.225,124.018 622.234,124.035 C622.242,124.053 622.25,124.07 622.259,124.088 C622.264,124.099 622.271,124.114 622.277,124.126 C622.284,124.14 622.29,124.153 622.297,124.167 C622.303,124.179 622.31,124.194 622.316,124.206 C622.323,124.22 622.33,124.235 622.337,124.25 C622.342,124.261 622.348,124.273 622.354,124.285 C622.362,124.302 622.37,124.319 622.378,124.336 C622.382,124.345 622.388,124.357 622.392,124.366 C622.404,124.391 622.416,124.416 622.428,124.441 C622.432,124.45 622.437,124.46 622.441,124.469 C622.45,124.487 622.458,124.504 622.467,124.522 C622.471,124.531 622.476,124.543 622.48,124.551 C622.49,124.57 622.499,124.589 622.508,124.609 C622.51,124.614 622.515,124.624 622.518,124.63 C622.53,124.656 622.543,124.683 622.555,124.709 L622.556,124.71 C622.583,124.767 622.61,124.825 622.636,124.882 C622.638,124.884 622.638,124.886 622.64,124.889 C622.96,125.571 623.267,126.25 623.562,126.924" id="Fill-41" fill="#FFFFFF" sketch:type="MSShapeGroup"></path>
            <path d="M622.64,124.889 C622.638,124.886 622.638,124.884 622.636,124.882 C622.638,124.884 622.638,124.886 622.64,124.889 M622.556,124.71 L622.555,124.709 L622.556,124.71 M622.518,124.63 C622.515,124.624 622.51,124.614 622.508,124.609 C622.511,124.616 622.514,124.623 622.518,124.63 M622.48,124.551 C622.476,124.543 622.471,124.531 622.467,124.522 C622.471,124.532 622.476,124.542 622.48,124.551 M622.441,124.469 C622.437,124.46 622.432,124.45 622.428,124.441 C622.432,124.45 622.437,124.46 622.441,124.469 M622.392,124.366 C622.388,124.357 622.382,124.345 622.378,124.336 C622.383,124.346 622.387,124.356 622.392,124.366 M622.354,124.285 C622.348,124.273 622.342,124.261 622.337,124.25 C622.342,124.262 622.348,124.273 622.354,124.285 M622.316,124.206 C622.31,124.194 622.303,124.179 622.297,124.167 C622.303,124.18 622.309,124.193 622.316,124.206 M622.277,124.126 C622.271,124.114 622.264,124.099 622.259,124.088 C622.265,124.1 622.271,124.113 622.277,124.126 M622.234,124.035 C622.225,124.018 622.218,124.003 622.209,123.985 C622.217,124.002 622.225,124.019 622.234,124.035 M622.184,123.933 C622.179,123.922 622.174,123.912 622.168,123.9 C622.174,123.911 622.179,123.922 622.184,123.933 M622.145,123.853 C622.14,123.841 622.134,123.83 622.128,123.818 C622.134,123.83 622.14,123.841 622.145,123.853" id="Fill-42" fill="#3EAC47" sketch:type="MSShapeGroup"></path>
            <path d="M622.107,123.774 C622.101,123.761 622.093,123.746 622.087,123.733 C622.088,123.735 622.089,123.737 622.09,123.739 C622.094,123.748 622.1,123.76 622.104,123.769 C622.105,123.771 622.106,123.773 622.107,123.774" id="Fill-43" fill="#FFFFFF" sketch:type="MSShapeGroup"></path>
            <path d="M622.104,123.769 C622.1,123.76 622.094,123.748 622.09,123.739 C622.095,123.749 622.1,123.759 622.104,123.769" id="Fill-44" fill="#3EAC47" sketch:type="MSShapeGroup"></path>
            <path d="M622.051,123.66 L622.051,123.66 C622.039,123.635 622.027,123.611 622.016,123.587 C622.028,123.611 622.039,123.635 622.051,123.66 M622.011,123.576 C622,123.555 621.991,123.536 621.98,123.515 C621.991,123.536 622,123.555 622.011,123.576 M621.972,123.498 C621.963,123.479 621.955,123.461 621.945,123.443 C621.954,123.461 621.963,123.479 621.972,123.498 M621.936,123.423 C621.927,123.404 621.919,123.388 621.91,123.369 C621.917,123.385 621.928,123.407 621.936,123.423 M621.902,123.352 C621.893,123.333 621.883,123.314 621.874,123.296 C621.883,123.314 621.893,123.334 621.902,123.352 M621.867,123.28 C621.857,123.26 621.849,123.242 621.839,123.222 C621.848,123.24 621.858,123.262 621.867,123.28 M621.832,123.208 C621.823,123.188 621.813,123.168 621.803,123.148 C621.812,123.166 621.823,123.189 621.832,123.208 M621.798,123.136 C621.787,123.114 621.777,123.092 621.766,123.07 C621.777,123.092 621.787,123.114 621.798,123.136 M621.764,123.065 C621.753,123.042 621.741,123.017 621.73,122.995 C621.742,123.019 621.752,123.041 621.764,123.065 M621.729,122.993 C619.978,119.318 618.615,115.699 617.593,112.144 C618.615,115.698 619.978,119.318 621.729,122.993 M617.593,112.144 C617.586,112.12 617.579,112.098 617.573,112.074 C617.58,112.098 617.586,112.12 617.593,112.144 M617.572,112.071 C617.565,112.048 617.558,112.024 617.552,112.002 C617.559,112.026 617.565,112.047 617.572,112.071 M617.552,112 C617.545,111.978 617.539,111.957 617.533,111.935 C617.539,111.956 617.546,111.979 617.552,112 M617.53,111.926 C617.525,111.905 617.519,111.885 617.513,111.864 C617.519,111.885 617.525,111.905 617.53,111.926 M617.51,111.856 C617.505,111.836 617.499,111.815 617.494,111.796 C617.5,111.817 617.505,111.835 617.51,111.856 M617.49,111.784 C617.484,111.762 617.478,111.741 617.472,111.718 C617.479,111.742 617.484,111.76 617.49,111.784 M617.471,111.714 C617.458,111.668 617.445,111.621 617.432,111.574 C617.445,111.622 617.457,111.667 617.471,111.714 M617.423,111.545 C617.42,111.533 617.417,111.52 617.413,111.508 C617.416,111.52 617.42,111.533 617.423,111.545 M617.403,111.471 C617.4,111.46 617.397,111.449 617.394,111.438 C617.397,111.45 617.4,111.459 617.403,111.471 M617.383,111.4 C617.381,111.39 617.378,111.382 617.376,111.372 C617.378,111.381 617.381,111.391 617.383,111.4 M617.364,111.328 C617.361,111.319 617.359,111.313 617.357,111.304 C617.36,111.313 617.361,111.319 617.364,111.328 M617.344,111.256 C617.343,111.251 617.341,111.245 617.339,111.24 C617.341,111.246 617.342,111.25 617.344,111.256 M617.325,111.187 C617.324,111.182 617.323,111.178 617.321,111.173 C617.323,111.179 617.324,111.182 617.325,111.187 M617.306,111.117 C617.305,111.114 617.305,111.113 617.304,111.11 C617.305,111.113 617.305,111.114 617.306,111.117" id="Fill-45" fill="#FFFFFF" sketch:type="MSShapeGroup"></path>
            <path d="M626.433,134.545 L626.432,134.544 C625.664,132.108 624.732,129.612 623.621,127.059 C623.618,127.051 623.614,127.044 623.611,127.036 C623.604,127.019 623.597,127.004 623.59,126.987 C623.584,126.975 623.579,126.962 623.573,126.95 C623.57,126.942 623.566,126.932 623.562,126.924 C623.267,126.25 622.96,125.571 622.64,124.889 C624.193,128.2 625.446,131.419 626.431,134.54 C626.432,134.543 626.432,134.543 626.433,134.545 M622.636,124.882 C622.61,124.825 622.583,124.767 622.556,124.71 C622.583,124.769 622.609,124.823 622.636,124.882 M622.555,124.709 C622.543,124.683 622.53,124.656 622.518,124.63 C622.53,124.657 622.543,124.683 622.555,124.709 M622.508,124.609 C622.499,124.589 622.49,124.57 622.48,124.551 C622.49,124.572 622.498,124.588 622.508,124.609 M622.467,124.522 C622.458,124.504 622.45,124.487 622.441,124.469 C622.45,124.486 622.458,124.505 622.467,124.522 M622.428,124.441 C622.416,124.416 622.404,124.391 622.392,124.366 C622.405,124.392 622.415,124.415 622.428,124.441 M622.378,124.336 C622.37,124.319 622.362,124.302 622.354,124.285 C622.362,124.303 622.37,124.318 622.378,124.336 M622.337,124.25 C622.33,124.235 622.323,124.22 622.316,124.206 C622.323,124.221 622.33,124.235 622.337,124.25 M622.297,124.167 C622.29,124.153 622.284,124.14 622.277,124.126 C622.284,124.14 622.29,124.153 622.297,124.167 M622.259,124.088 C622.25,124.07 622.242,124.053 622.234,124.035 C622.242,124.053 622.25,124.07 622.259,124.088 M622.209,123.985 C622.201,123.968 622.193,123.951 622.184,123.933 C622.193,123.951 622.201,123.967 622.209,123.985 M622.168,123.9 C622.161,123.885 622.153,123.869 622.145,123.853 C622.152,123.868 622.161,123.886 622.168,123.9 M622.128,123.818 C622.126,123.813 622.123,123.808 622.121,123.803 C622.116,123.793 622.112,123.784 622.107,123.774 C622.106,123.773 622.105,123.771 622.104,123.769 C622.113,123.787 622.12,123.8 622.128,123.818 M622.09,123.739 C622.089,123.737 622.088,123.735 622.087,123.733 C622.075,123.708 622.063,123.684 622.051,123.66 C622.039,123.635 622.028,123.611 622.016,123.587 C622.028,123.611 622.039,123.635 622.051,123.66 C622.064,123.686 622.077,123.713 622.09,123.739" id="Fill-46" fill="#FFFFFF" sketch:type="MSShapeGroup"></path>
            <path d="M626.431,134.54 C625.446,131.419 624.193,128.2 622.64,124.889 C622.638,124.886 622.638,124.884 622.636,124.882 C622.609,124.823 622.583,124.769 622.556,124.71 L622.555,124.709 C622.543,124.683 622.53,124.657 622.518,124.63 C622.514,124.623 622.511,124.616 622.508,124.609 C622.498,124.588 622.49,124.572 622.48,124.551 C622.476,124.542 622.471,124.532 622.467,124.522 C622.458,124.505 622.45,124.486 622.441,124.469 C622.437,124.46 622.432,124.45 622.428,124.441 C622.415,124.415 622.405,124.392 622.392,124.366 C622.387,124.356 622.383,124.346 622.378,124.336 C622.37,124.318 622.362,124.303 622.354,124.285 C622.348,124.273 622.342,124.262 622.337,124.25 C622.33,124.235 622.323,124.221 622.316,124.206 C622.309,124.193 622.303,124.18 622.297,124.167 C622.29,124.153 622.284,124.14 622.277,124.126 C622.271,124.113 622.265,124.1 622.259,124.088 C622.25,124.07 622.242,124.053 622.234,124.035 C622.225,124.019 622.217,124.002 622.209,123.985 C622.201,123.967 622.193,123.951 622.184,123.933 C622.179,123.922 622.174,123.911 622.168,123.9 C622.161,123.886 622.152,123.868 622.145,123.853 C622.14,123.841 622.134,123.83 622.128,123.818 C622.12,123.8 622.113,123.787 622.104,123.769 C622.1,123.759 622.095,123.749 622.09,123.739 C622.077,123.713 622.064,123.686 622.051,123.66 C622.039,123.635 622.028,123.611 622.016,123.587 C622.014,123.584 622.012,123.579 622.011,123.576 C622,123.555 621.991,123.536 621.98,123.515 C621.978,123.509 621.975,123.504 621.972,123.498 C621.963,123.479 621.954,123.461 621.945,123.443 C621.943,123.437 621.939,123.429 621.936,123.423 C621.928,123.407 621.917,123.385 621.91,123.369 C621.907,123.363 621.904,123.358 621.902,123.352 C621.893,123.334 621.883,123.314 621.874,123.296 C621.872,123.291 621.869,123.284 621.867,123.28 C621.858,123.262 621.848,123.24 621.839,123.222 C621.837,123.218 621.834,123.212 621.832,123.208 C621.823,123.189 621.812,123.166 621.803,123.148 C621.801,123.143 621.8,123.14 621.798,123.136 C621.787,123.114 621.777,123.092 621.766,123.07 C621.765,123.067 621.765,123.068 621.764,123.065 C621.752,123.041 621.742,123.019 621.73,122.995 L621.729,122.993 C619.978,119.318 618.615,115.698 617.593,112.144 C617.586,112.12 617.58,112.098 617.573,112.074 C617.572,112.073 617.572,112.072 617.572,112.071 C617.565,112.047 617.559,112.026 617.552,112.002 C617.552,112.001 617.552,112.002 617.552,112 C617.546,111.979 617.539,111.956 617.533,111.935 C617.532,111.932 617.531,111.929 617.53,111.926 C617.525,111.905 617.519,111.885 617.513,111.864 C617.512,111.861 617.511,111.858 617.51,111.856 C617.505,111.835 617.5,111.817 617.494,111.796 C617.492,111.792 617.491,111.788 617.49,111.784 C617.484,111.76 617.479,111.742 617.472,111.718 C617.471,111.717 617.471,111.716 617.471,111.714 C617.457,111.667 617.445,111.622 617.432,111.574 C617.429,111.565 617.426,111.555 617.423,111.545 C617.42,111.533 617.416,111.52 617.413,111.508 C617.41,111.495 617.406,111.484 617.403,111.471 C617.4,111.459 617.397,111.45 617.394,111.438 C617.39,111.425 617.387,111.412 617.383,111.4 C617.381,111.391 617.378,111.381 617.376,111.372 C617.372,111.358 617.367,111.342 617.364,111.328 C617.361,111.319 617.36,111.313 617.357,111.304 C617.353,111.288 617.349,111.273 617.344,111.256 C617.342,111.25 617.341,111.246 617.339,111.24 C617.335,111.223 617.33,111.204 617.325,111.187 C617.324,111.182 617.323,111.179 617.321,111.173 C617.316,111.155 617.311,111.135 617.306,111.117 C617.305,111.114 617.305,111.113 617.304,111.11 C617.299,111.09 617.293,111.069 617.288,111.048 C612.325,92.611 616.466,75.994 623.023,62.847 C623.024,62.85 624.454,67.158 626.342,74.192 C621.797,90.94 619.976,111.71 626.431,134.54" id="Fill-47" fill="#4CAF46" sketch:type="MSShapeGroup"></path>
            <path d="M583.361,155.525 L583.36,155.522 L583.36,155.517 L583.361,155.525" id="Fill-48" fill="#FFFFFF" sketch:type="MSShapeGroup"></path>
            <path d="M580.735,142.131 C580.199,140.571 579.606,138.989 578.887,137.363 L578.889,137.368 C578.894,137.379 578.897,137.387 578.902,137.398 C578.905,137.405 578.906,137.407 578.909,137.414 C578.915,137.427 578.921,137.44 578.926,137.453 C578.927,137.455 578.928,137.457 578.929,137.459 C579.588,138.954 580.165,140.419 580.666,141.857 C580.666,141.859 580.667,141.86 580.667,141.862 C580.669,141.867 580.671,141.872 580.673,141.877 C580.677,141.89 580.68,141.898 580.684,141.91 C580.685,141.914 580.687,141.919 580.688,141.922 C580.693,141.937 580.696,141.946 580.701,141.96 C580.702,141.962 580.703,141.966 580.704,141.967 C580.709,141.982 580.714,141.995 580.718,142.01 C580.724,142.05 580.729,142.091 580.735,142.131" id="Fill-49" fill="#FFFFFF" sketch:type="MSShapeGroup"></path>
            <path d="M580.718,142.01 C580.714,141.995 580.709,141.982 580.704,141.967 C580.709,141.982 580.713,141.995 580.718,142.01 M580.701,141.96 C580.696,141.946 580.693,141.937 580.688,141.922 C580.693,141.935 580.697,141.947 580.701,141.96 M580.684,141.91 C580.68,141.898 580.677,141.89 580.673,141.877 C580.676,141.888 580.68,141.899 580.684,141.91 M580.667,141.862 C580.667,141.86 580.666,141.859 580.666,141.857 C580.666,141.859 580.667,141.86 580.667,141.862 M578.929,137.459 C578.928,137.457 578.927,137.455 578.926,137.453 C578.927,137.455 578.928,137.457 578.929,137.459 M578.909,137.414 C578.906,137.407 578.905,137.405 578.902,137.398 C578.904,137.402 578.907,137.41 578.909,137.414 M578.889,137.368 L578.887,137.363 C578.886,137.362 578.886,137.361 578.886,137.361 C578.887,137.363 578.888,137.366 578.889,137.368" id="Fill-50" fill="#3EAC47" sketch:type="MSShapeGroup"></path>
            <path d="M578.845,137.269 C578.842,137.263 578.842,137.262 578.839,137.255 C578.841,137.26 578.843,137.265 578.845,137.269" id="Fill-51" fill="#3EAC47" sketch:type="MSShapeGroup"></path>
            <path d="M578.824,137.221 C578.821,137.214 578.818,137.208 578.815,137.201 C578.818,137.207 578.821,137.214 578.824,137.221" id="Fill-52" fill="#3EAC47" sketch:type="MSShapeGroup"></path>
            <path d="M578.801,137.17 C578.798,137.163 578.795,137.157 578.792,137.15 C578.795,137.156 578.799,137.164 578.801,137.17" id="Fill-53" fill="#3EAC47" sketch:type="MSShapeGroup"></path>
            <path d="M578.779,137.12 C578.776,137.113 578.773,137.106 578.77,137.1 C578.773,137.106 578.776,137.113 578.779,137.12" id="Fill-54" fill="#3EAC47" sketch:type="MSShapeGroup"></path>
            <path d="M578.75,137.053 C578.746,137.044 578.744,137.039 578.74,137.03 C578.743,137.038 578.746,137.045 578.75,137.053" id="Fill-55" fill="#3EAC47" sketch:type="MSShapeGroup"></path>
            <path d="M578.729,137.005 C578.725,136.996 578.72,136.985 578.716,136.976 C578.72,136.985 578.725,136.995 578.729,137.005" id="Fill-56" fill="#3EAC47" sketch:type="MSShapeGroup"></path>
            <path d="M578.708,136.957 C578.704,136.948 578.699,136.936 578.695,136.927 C578.7,136.937 578.704,136.947 578.708,136.957" id="Fill-57" fill="#3EAC47" sketch:type="MSShapeGroup"></path>
            <path d="M578.687,136.909 C578.683,136.9 578.678,136.887 578.674,136.878 C578.678,136.888 578.683,136.899 578.687,136.909" id="Fill-58" fill="#3EAC47" sketch:type="MSShapeGroup"></path>
            <path d="M578.669,136.867 C578.651,136.826 578.633,136.784 578.616,136.744 C578.634,136.786 578.651,136.825 578.669,136.867" id="Fill-59" fill="#3EAC47" sketch:type="MSShapeGroup"></path>
            <path d="M578.615,136.742 C578.609,136.729 578.603,136.714 578.597,136.7 C578.603,136.714 578.609,136.729 578.615,136.742" id="Fill-60" fill="#3EAC47" sketch:type="MSShapeGroup"></path>
            <path d="M595.31,77.163 C597.152,74.196 598.735,72.713 598.735,72.713 C598.735,72.713 597.177,74.182 595.356,77.097 C595.34,77.119 595.325,77.141 595.31,77.163" id="Fill-61" fill="#FFFFFF" sketch:type="MSShapeGroup"></path>
            <path d="M578.596,136.697 C575.779,130.131 574.623,123.864 574.621,117.995 C574.611,91.163 598.735,72.713 598.735,72.713 C598.735,72.713 597.152,74.196 595.31,77.163 C591.631,82.463 585.867,92.362 582.508,106.134 C581.301,102.754 580.132,99.907 579.19,97.756 C574.373,108.386 572.196,121.775 578.596,136.697" id="Fill-62" fill="#3EAC47" sketch:type="MSShapeGroup"></path>
            <path d="M565.745,191.245 C566.198,190.904 566.79,190.439 567.484,189.852 C566.81,190.423 566.23,190.88 565.781,191.219 C565.77,191.227 565.757,191.236 565.745,191.245" id="Fill-63" fill="#FFFFFF" sketch:type="MSShapeGroup"></path>
            <path d="M565.781,191.219 C566.23,190.88 566.81,190.423 567.484,189.852 C574.044,184.296 589.618,167.791 580.718,142.01 C578.896,128.193 580.067,116.141 582.508,106.134 C589.899,126.836 598.72,167.566 565.781,191.219" id="Fill-64" fill="#3EAC47" sketch:type="MSShapeGroup"></path>
            <path d="M578.868,137.32 L578.868,137.32 C578.86,137.303 578.852,137.286 578.845,137.269 C578.852,137.285 578.861,137.304 578.868,137.32" id="Fill-65" fill="#FFFFFF" sketch:type="MSShapeGroup"></path>
            <path d="M578.886,137.361 C578.88,137.348 578.873,137.333 578.868,137.32 C578.874,137.334 578.88,137.347 578.886,137.361" id="Fill-66" fill="#3EAC47" sketch:type="MSShapeGroup"></path>
            <path d="M578.839,137.255 C578.833,137.243 578.829,137.233 578.824,137.221 C578.829,137.232 578.834,137.244 578.839,137.255 M578.815,137.201 C578.81,137.191 578.806,137.18 578.801,137.17 C578.805,137.179 578.811,137.192 578.815,137.201 M578.792,137.15 C578.788,137.14 578.784,137.13 578.779,137.12 C578.784,137.131 578.787,137.139 578.792,137.15 M578.77,137.1 C578.763,137.084 578.757,137.069 578.75,137.053 C578.756,137.067 578.764,137.086 578.77,137.1 M578.74,137.03 C578.736,137.021 578.732,137.013 578.729,137.005 C578.733,137.014 578.736,137.021 578.74,137.03 M578.716,136.976 C578.714,136.969 578.711,136.964 578.708,136.957 C578.711,136.964 578.713,136.969 578.716,136.976 M578.695,136.927 C578.693,136.922 578.69,136.915 578.687,136.909 C578.69,136.916 578.692,136.92 578.695,136.927 M578.674,136.878 C578.672,136.874 578.671,136.871 578.669,136.867 C578.671,136.871 578.672,136.873 578.674,136.878 M578.616,136.744 L578.615,136.742 C578.616,136.745 578.615,136.742 578.616,136.744 M578.597,136.7 C578.596,136.699 578.596,136.698 578.596,136.697 L578.597,136.7" id="Fill-67" fill="#FFFFFF" sketch:type="MSShapeGroup"></path>
            <path d="M580.704,141.967 C580.703,141.966 580.702,141.962 580.701,141.96 C580.702,141.962 580.703,141.965 580.704,141.967 M580.688,141.922 C580.687,141.919 580.685,141.914 580.684,141.91 C580.685,141.913 580.688,141.92 580.688,141.922 M580.673,141.877 C580.671,141.872 580.669,141.867 580.667,141.862 C580.669,141.866 580.671,141.873 580.673,141.877 M580.666,141.857 C580.165,140.419 579.588,138.954 578.929,137.459 C579.587,138.953 580.165,140.42 580.666,141.857 M578.926,137.453 C578.921,137.44 578.915,137.427 578.909,137.414 C578.915,137.427 578.921,137.44 578.926,137.453 M578.902,137.398 C578.897,137.387 578.894,137.379 578.889,137.368 C578.893,137.378 578.897,137.387 578.902,137.398" id="Fill-68" fill="#FFFFFF" sketch:type="MSShapeGroup"></path>
            <g id="Group-72" sketch:type="MSShapeGroup">
                <path d="M580.718,142.01 C580.713,141.995 580.709,141.982 580.704,141.967 C580.703,141.965 580.702,141.962 580.701,141.96 C580.697,141.947 580.693,141.935 580.688,141.922 C580.688,141.92 580.685,141.913 580.684,141.91 C580.68,141.899 580.676,141.888 580.673,141.877 C580.671,141.873 580.669,141.866 580.667,141.862 C580.667,141.86 580.666,141.859 580.666,141.857 C580.165,140.42 579.587,138.953 578.929,137.459 C578.928,137.457 578.927,137.455 578.926,137.453 C578.921,137.44 578.915,137.427 578.909,137.414 C578.907,137.41 578.904,137.402 578.902,137.398 C578.897,137.387 578.893,137.378 578.889,137.368 C578.888,137.366 578.887,137.363 578.886,137.361 C578.88,137.347 578.874,137.334 578.868,137.32 C578.861,137.304 578.852,137.285 578.845,137.269 C578.843,137.265 578.841,137.26 578.839,137.255 C578.834,137.244 578.829,137.232 578.824,137.221 C578.821,137.214 578.818,137.207 578.815,137.201 C578.811,137.192 578.805,137.179 578.801,137.17 C578.799,137.164 578.795,137.156 578.792,137.15 C578.787,137.139 578.784,137.131 578.779,137.12 C578.776,137.113 578.773,137.106 578.77,137.1 C578.764,137.086 578.756,137.067 578.75,137.053 C578.746,137.045 578.743,137.038 578.74,137.03 C578.736,137.021 578.733,137.014 578.729,137.005 C578.725,136.995 578.72,136.985 578.716,136.976 C578.713,136.969 578.711,136.964 578.708,136.957 C578.704,136.947 578.7,136.937 578.695,136.927 C578.692,136.92 578.69,136.916 578.687,136.909 C578.683,136.899 578.678,136.888 578.674,136.878 C578.672,136.873 578.671,136.871 578.669,136.867 C578.651,136.825 578.634,136.786 578.616,136.744 C578.615,136.742 578.616,136.745 578.615,136.742 C578.609,136.729 578.603,136.714 578.597,136.7 L578.596,136.697 C572.196,121.775 574.373,108.386 579.19,97.756 C580.132,99.907 581.301,102.754 582.508,106.134 C580.067,116.141 578.896,128.193 580.718,142.01" id="Fill-69" fill="#4CAF46"></path>
                <path d="M34.723,150.938 C31.945,151.709 28.821,152.097 25.344,152.097 C22.206,152.097 19.129,151.578 16.111,150.54 C13.094,149.504 10.391,147.982 8.002,145.978 C5.611,143.974 3.681,141.477 2.209,138.482 C0.736,135.491 0,132.015 0,128.056 C0,124.048 0.762,120.551 2.284,117.556 C3.805,114.562 5.763,112.063 8.155,110.06 C10.546,108.058 13.217,106.55 16.165,105.535 C19.113,104.521 22.036,104.014 24.936,104.014 C28.125,104.014 30.989,104.353 33.525,105.029 C36.062,105.704 38.176,106.598 39.867,107.708 L38.562,113.791 C36.87,112.68 34.926,111.787 32.727,111.111 C30.527,110.435 28.195,110.097 25.731,110.097 C23.458,110.097 21.211,110.471 18.988,111.22 C16.764,111.968 14.77,113.091 13.007,114.587 C11.242,116.084 9.815,117.955 8.728,120.201 C7.639,122.443 7.096,125.087 7.096,128.129 C7.096,131.159 7.628,133.787 8.693,136.013 C9.757,138.241 11.162,140.101 12.905,141.598 C14.647,143.095 16.643,144.204 18.893,144.93 C21.144,145.653 23.455,146.016 25.826,146.016 C30.084,146.016 33.353,145.216 35.627,143.624 L35.627,133.994 L24.983,133.994 L24.983,128.273 L42.217,128.273 L42.217,147.099 C39.996,148.886 37.497,150.167 34.723,150.938" id="Fill-71" fill="#555B60"></path>
            </g>
            <path d="M86.316,114.877 C85.882,114.008 85.29,113.285 84.543,112.704 C83.793,112.124 82.937,111.689 81.972,111.401 C81.005,111.111 80.016,110.965 79.001,110.965 L72.557,110.965 L72.557,125.014 L79.001,125.014 C80.016,125.014 81.005,124.883 81.972,124.616 C82.937,124.351 83.793,123.927 84.543,123.348 C85.29,122.771 85.882,122.036 86.316,121.14 C86.752,120.249 86.969,119.197 86.969,117.99 C86.969,116.783 86.752,115.744 86.316,114.877 L86.316,114.877 Z M93.558,151.228 L79.001,130.952 L72.486,130.952 L72.486,151.228 L65.535,151.228 L65.535,105.029 L80.161,105.029 C81.802,105.029 83.444,105.294 85.086,105.825 C86.726,106.357 88.211,107.152 89.537,108.216 C90.866,109.276 91.952,110.629 92.798,112.269 C93.642,113.912 94.066,115.817 94.066,117.99 C94.066,121.08 93.279,123.603 91.712,125.559 C90.141,127.511 88.224,128.951 85.954,129.866 L101.74,151.228 L93.558,151.228 L93.558,151.228 Z" id="Fill-73" fill="#555B60" sketch:type="MSShapeGroup"></path>
            <path d="M120.278,151.228 L120.278,105.029 L145.261,105.029 L145.261,111.038 L127.374,111.038 L127.374,125.014 L142.365,125.014 L142.365,131.025 L127.374,131.025 L127.374,145.216 L147.795,145.216 L147.795,151.228 L120.278,151.228" id="Fill-74" fill="#555B60" sketch:type="MSShapeGroup"></path>
            <path d="M168.432,151.228 L168.432,105.029 L193.415,105.029 L193.415,111.038 L175.53,111.038 L175.53,125.014 L190.519,125.014 L190.519,131.025 L175.53,131.025 L175.53,145.216 L195.949,145.216 L195.949,151.228 L168.432,151.228" id="Fill-75" fill="#555B60" sketch:type="MSShapeGroup"></path>
            <path d="M255.912,152.241 L234.306,128.563 C232.572,126.68 230.764,124.651 228.886,122.481 C227.009,120.309 225.274,118.28 223.684,116.397 L223.539,116.47 C223.635,118.595 223.684,120.621 223.684,122.551 L223.684,128.056 L223.684,151.228 L216.587,151.228 L216.587,105.029 L221.429,105.029 L241.228,126.753 C241.902,127.476 242.649,128.308 243.468,129.251 C244.287,130.194 245.131,131.146 245.997,132.111 C246.864,133.077 247.719,134.054 248.562,135.045 C249.406,136.033 250.188,136.962 250.911,137.833 L251.056,137.759 C250.959,135.972 250.911,134.137 250.911,132.254 L250.911,126.897 L250.911,105.029 L258.007,105.029 L258.007,152.241 L255.912,152.241" id="Fill-76" fill="#555B60" sketch:type="MSShapeGroup"></path>
            <path d="M324.771,151.88 L322.384,151.88 L313.765,127.186 C313.136,125.403 312.499,123.516 311.846,121.539 C311.194,119.56 310.506,117.314 309.783,114.804 L309.638,114.804 C308.913,117.314 308.225,119.573 307.574,121.574 C306.923,123.577 306.283,125.451 305.655,127.186 L297.038,151.88 L294.647,151.88 L278.283,105.029 L285.307,105.029 L292.764,126.317 C293.295,127.865 293.874,129.541 294.504,131.35 C295.13,133.16 295.685,135.006 296.17,136.889 L296.313,136.889 C296.845,135.006 297.399,133.16 297.979,131.35 C298.559,129.541 299.113,127.865 299.645,126.317 L307.031,105.029 L313.04,105.029 L320.499,126.317 C321.03,127.814 321.573,129.48 322.129,131.315 C322.683,133.15 323.226,135.006 323.758,136.889 L323.903,136.889 C324.384,135.054 324.94,133.198 325.569,131.315 C326.195,129.432 326.775,127.766 327.305,126.317 L334.764,105.029 L341.21,105.029 L324.771,151.88" id="Fill-77" fill="#2AA347" sketch:type="MSShapeGroup"></path>
            <path d="M377.489,122.408 C377.15,121.637 376.812,120.742 376.474,119.729 C376.136,118.716 375.823,117.725 375.533,116.76 L375.388,116.76 C375.146,117.725 374.846,118.716 374.483,119.729 C374.121,120.742 373.771,121.637 373.432,122.408 L368.872,133.704 L382.05,133.704 L377.489,122.408 L377.489,122.408 Z M389.436,151.228 L384.44,139.279 L366.481,139.279 L361.485,151.228 L354.605,151.228 L374.303,104.377 L376.837,104.377 L396.534,151.228 L389.436,151.228 L389.436,151.228 Z" id="Fill-78" fill="#2AA347" sketch:type="MSShapeGroup"></path>
            <path d="M429.916,151.88 L427.672,151.88 L409.279,105.029 L416.664,105.029 L425.21,127.043 C425.836,128.636 426.476,130.372 427.129,132.254 C427.781,134.137 428.419,136.071 429.047,138.049 L429.194,138.049 C429.82,136.119 430.447,134.223 431.075,132.366 C431.702,130.505 432.354,128.731 433.031,127.043 L441.574,105.029 L448.237,105.029 L429.916,151.88" id="Fill-79" fill="#2AA347" sketch:type="MSShapeGroup"></path>
            <path d="M468.151,151.228 L468.151,105.029 L493.134,105.029 L493.134,111.038 L475.246,111.038 L475.246,125.014 L490.237,125.014 L490.237,131.025 L475.246,131.025 L475.246,145.216 L495.667,145.216 L495.667,151.228 L468.151,151.228" id="Fill-80" fill="#2AA347" sketch:type="MSShapeGroup"></path>
            <path d="M542.301,143.77 C541.625,145.459 540.611,146.92 539.26,148.151 C537.909,149.38 536.242,150.335 534.264,151.011 C532.284,151.686 529.992,152.024 527.385,152.024 C524.872,152.024 522.557,151.709 520.432,151.084 C518.307,150.457 516.642,149.731 515.436,148.912 L513.843,141.235 C516.06,142.78 518.298,143.952 520.56,144.749 C522.82,145.544 525.201,145.943 527.703,145.943 C530.301,145.943 532.37,145.29 533.91,143.987 C535.449,142.684 536.22,140.945 536.22,138.772 C536.22,136.747 535.581,135.054 534.307,133.704 C533.031,132.353 531,131.219 528.209,130.302 C524.072,128.951 520.944,127.126 518.828,124.833 C516.711,122.542 515.654,119.802 515.654,116.614 C515.654,115.021 515.955,113.466 516.557,111.944 C517.158,110.426 518.062,109.082 519.266,107.913 C520.47,106.746 521.99,105.815 523.82,105.126 C525.65,104.433 527.795,104.087 530.253,104.087 C532.566,104.087 534.611,104.372 536.395,104.946 C538.179,105.518 539.48,106.113 540.3,106.731 L538.926,112.487 C538.107,111.908 536.879,111.317 535.242,110.713 C533.605,110.109 531.848,109.809 529.971,109.809 C527.611,109.809 525.757,110.435 524.409,111.689 C523.062,112.946 522.388,114.419 522.388,116.107 C522.388,119.197 524.872,121.586 529.847,123.278 C531.873,123.953 533.708,124.75 535.35,125.667 C536.991,126.584 538.404,127.632 539.585,128.817 C540.769,130 541.686,131.363 542.337,132.908 C542.99,134.453 543.316,136.192 543.316,138.123 C543.316,140.196 542.976,142.079 542.301,143.77" id="Fill-81" fill="#2AA347" sketch:type="MSShapeGroup"></path>
            <path d="M281.9,170.612 L281.9,184.737 L279.406,184.737 L279.406,170.612 L274.189,170.612 L274.189,168.5 L287.117,168.5 L287.117,170.612 L281.9,170.612" id="Fill-82" fill="#555B60" sketch:type="MSShapeGroup"></path>
            <path d="M297.777,184.737 L297.777,168.5 L306.555,168.5 L306.555,170.612 L300.269,170.612 L300.269,175.524 L305.538,175.524 L305.538,177.636 L300.269,177.636 L300.269,182.625 L307.447,182.625 L307.447,184.737 L297.777,184.737" id="Fill-83" fill="#555B60" sketch:type="MSShapeGroup"></path>
            <path d="M330.985,171.376 C330.781,171.258 330.534,171.134 330.245,171.006 C329.957,170.879 329.634,170.765 329.279,170.663 C328.924,170.561 328.544,170.478 328.146,170.411 C327.746,170.341 327.336,170.309 326.913,170.309 C326.114,170.309 325.326,170.44 324.547,170.701 C323.766,170.965 323.065,171.354 322.446,171.874 C321.827,172.389 321.326,173.042 320.945,173.833 C320.565,174.619 320.373,175.549 320.373,176.617 C320.373,177.67 320.558,178.591 320.932,179.378 C321.307,180.168 321.801,180.822 322.422,181.337 C323.04,181.857 323.739,182.246 324.521,182.509 C325.3,182.771 326.098,182.902 326.913,182.902 C327.879,182.902 328.739,182.809 329.495,182.625 C330.249,182.436 330.883,182.191 331.391,181.885 L330.883,184.252 C330.373,184.523 329.8,184.724 329.164,184.848 C328.529,184.975 327.684,185.039 326.633,185.039 C325.614,185.039 324.585,184.861 323.54,184.507 C322.497,184.15 321.556,183.619 320.716,182.915 C319.876,182.213 319.195,181.334 318.668,180.283 C318.142,179.229 317.879,178.008 317.879,176.617 C317.879,175.211 318.147,173.979 318.681,172.927 C319.214,171.876 319.902,170.998 320.742,170.296 C321.581,169.592 322.517,169.06 323.553,168.704 C324.588,168.35 325.614,168.168 326.633,168.168 C327.753,168.168 328.707,168.277 329.495,168.487 C330.284,168.701 330.924,168.952 331.414,169.239 L330.985,171.376" id="Fill-84" fill="#555B60" sketch:type="MSShapeGroup"></path>
            <path d="M353.501,184.737 L353.501,177.636 L345.181,177.636 L345.181,184.737 L342.688,184.737 L342.688,168.5 L345.181,168.5 L345.181,175.524 L353.501,175.524 L353.501,168.5 L355.996,168.5 L355.996,184.737 L353.501,184.737" id="Fill-85" fill="#555B60" sketch:type="MSShapeGroup"></path>
            <path d="M382.027,185.09 L374.436,176.769 C373.826,176.11 373.19,175.396 372.531,174.635 C371.871,173.871 371.261,173.157 370.702,172.495 L370.651,172.523 C370.686,173.268 370.702,173.979 370.702,174.658 L370.702,176.594 L370.702,184.737 L368.209,184.737 L368.209,168.5 L369.91,168.5 L376.868,176.135 C377.105,176.39 377.367,176.68 377.655,177.011 C377.943,177.343 378.239,177.677 378.543,178.018 C378.847,178.356 379.147,178.7 379.445,179.047 C379.741,179.394 380.015,179.722 380.27,180.028 L380.321,180.002 C380.285,179.376 380.27,178.729 380.27,178.069 L380.27,176.186 L380.27,168.5 L382.762,168.5 L382.762,185.09 L382.027,185.09" id="Fill-86" fill="#555B60" sketch:type="MSShapeGroup"></path>
            <path d="M408.514,173.921 C408.158,173.141 407.686,172.482 407.102,171.95 C406.517,171.415 405.86,171.006 405.129,170.726 C404.401,170.446 403.671,170.309 402.941,170.309 C402.195,170.309 401.456,170.446 400.727,170.726 C399.998,171.006 399.345,171.415 398.768,171.95 C398.192,172.482 397.725,173.141 397.369,173.921 C397.013,174.702 396.834,175.59 396.834,176.594 C396.834,177.594 397.013,178.49 397.369,179.277 C397.725,180.067 398.192,180.726 398.768,181.261 C399.345,181.796 399.998,182.204 400.727,182.484 C401.456,182.764 402.195,182.902 402.941,182.902 C403.671,182.902 404.401,182.764 405.129,182.484 C405.86,182.204 406.517,181.796 407.102,181.261 C407.686,180.726 408.158,180.067 408.514,179.277 C408.869,178.49 409.048,177.594 409.048,176.594 C409.048,175.59 408.869,174.702 408.514,173.921 L408.514,173.921 Z M410.803,180.143 C410.311,181.184 409.662,182.067 408.857,182.787 C408.051,183.51 407.135,184.064 406.11,184.457 C405.083,184.845 404.026,185.039 402.941,185.039 C401.855,185.039 400.799,184.845 399.774,184.457 C398.747,184.064 397.831,183.51 397.026,182.787 C396.22,182.067 395.57,181.184 395.079,180.143 C394.585,179.098 394.34,177.917 394.34,176.594 C394.34,175.285 394.585,174.113 395.079,173.068 C395.57,172.026 396.22,171.144 397.026,170.423 C397.831,169.701 398.747,169.146 399.774,168.754 C400.799,168.366 401.855,168.168 402.941,168.168 C404.026,168.168 405.083,168.366 406.11,168.754 C407.135,169.146 408.051,169.701 408.857,170.423 C409.662,171.144 410.311,172.026 410.803,173.068 C411.295,174.113 411.54,175.285 411.54,176.594 C411.54,177.917 411.295,179.098 410.803,180.143 L410.803,180.143 Z" id="Fill-87" fill="#555B60" sketch:type="MSShapeGroup"></path>
            <path d="M423.118,184.737 L423.118,168.5 L425.612,168.5 L425.612,182.625 L432.763,182.625 L432.763,184.737 L423.118,184.737" id="Fill-88" fill="#555B60" sketch:type="MSShapeGroup"></path>
            <path d="M456.35,173.921 C455.993,173.141 455.524,172.482 454.937,171.95 C454.353,171.415 453.695,171.006 452.965,170.726 C452.236,170.446 451.506,170.309 450.777,170.309 C450.032,170.309 449.292,170.446 448.563,170.726 C447.835,171.006 447.181,171.415 446.604,171.95 C446.028,172.482 445.561,173.141 445.205,173.921 C444.849,174.702 444.67,175.59 444.67,176.594 C444.67,177.594 444.849,178.49 445.205,179.277 C445.561,180.067 446.028,180.726 446.604,181.261 C447.181,181.796 447.835,182.204 448.563,182.484 C449.292,182.764 450.032,182.902 450.777,182.902 C451.506,182.902 452.236,182.764 452.965,182.484 C453.695,182.204 454.353,181.796 454.937,181.261 C455.524,180.726 455.993,180.067 456.35,179.277 C456.705,178.49 456.884,177.594 456.884,176.594 C456.884,175.59 456.705,174.702 456.35,173.921 L456.35,173.921 Z M458.641,180.143 C458.149,181.184 457.498,182.067 456.695,182.787 C455.887,183.51 454.972,184.064 453.947,184.457 C452.919,184.845 451.864,185.039 450.777,185.039 C449.693,185.039 448.636,184.845 447.611,184.457 C446.583,184.064 445.667,183.51 444.862,182.787 C444.055,182.067 443.408,181.184 442.915,180.143 C442.423,179.098 442.176,177.917 442.176,176.594 C442.176,175.285 442.423,174.113 442.915,173.068 C443.408,172.026 444.055,171.144 444.862,170.423 C445.667,169.701 446.583,169.146 447.611,168.754 C448.636,168.366 449.693,168.168 450.777,168.168 C451.864,168.168 452.919,168.366 453.947,168.754 C454.972,169.146 455.887,169.701 456.695,170.423 C457.498,171.144 458.149,172.026 458.641,173.068 C459.133,174.113 459.378,175.285 459.378,176.594 C459.378,177.917 459.133,179.098 458.641,180.143 L458.641,180.143 Z" id="Fill-89" fill="#555B60" sketch:type="MSShapeGroup"></path>
            <path d="M482.521,184.634 C481.546,184.906 480.448,185.039 479.226,185.039 C478.121,185.039 477.042,184.858 475.981,184.495 C474.922,184.128 473.971,183.596 473.131,182.889 C472.292,182.185 471.614,181.309 471.096,180.257 C470.578,179.207 470.321,177.983 470.321,176.594 C470.321,175.186 470.586,173.957 471.121,172.902 C471.657,171.851 472.345,170.975 473.184,170.268 C474.025,169.567 474.963,169.035 476,168.678 C477.035,168.322 478.063,168.146 479.082,168.146 C480.202,168.146 481.208,168.264 482.101,168.5 C482.993,168.739 483.735,169.051 484.328,169.443 L483.87,171.581 C483.276,171.192 482.593,170.876 481.819,170.637 C481.046,170.402 480.228,170.281 479.361,170.281 C478.563,170.281 477.773,170.415 476.991,170.675 C476.21,170.94 475.51,171.334 474.89,171.861 C474.271,172.386 473.769,173.042 473.386,173.833 C473.004,174.619 472.813,175.549 472.813,176.617 C472.813,177.683 473.001,178.608 473.373,179.388 C473.748,180.171 474.242,180.825 474.855,181.35 C475.466,181.876 476.167,182.268 476.959,182.522 C477.749,182.777 478.562,182.902 479.394,182.902 C480.892,182.902 482.04,182.625 482.839,182.064 L482.839,178.677 L479.098,178.677 L479.098,176.667 L485.156,176.667 L485.156,183.284 C484.375,183.912 483.495,184.364 482.521,184.634" id="Fill-90" fill="#555B60" sketch:type="MSShapeGroup"></path>
            <path d="M497.572,168.5 L500.064,168.5 L500.064,184.737 L497.572,184.737 L497.572,168.5 Z" id="Fill-91" fill="#555B60" sketch:type="MSShapeGroup"></path>
            <path d="M512.634,184.737 L512.634,168.5 L521.411,168.5 L521.411,170.612 L515.126,170.612 L515.126,175.524 L520.394,175.524 L520.394,177.636 L515.126,177.636 L515.126,182.625 L522.302,182.625 L522.302,184.737 L512.634,184.737" id="Fill-92" fill="#555B60" sketch:type="MSShapeGroup"></path>
            <path d="M542.506,182.115 C542.268,182.708 541.912,183.22 541.438,183.654 C540.963,184.086 540.377,184.421 539.682,184.66 C538.985,184.896 538.18,185.013 537.265,185.013 C536.382,185.013 535.569,184.906 534.822,184.685 C534.075,184.462 533.49,184.21 533.066,183.921 L532.505,181.223 C533.285,181.768 534.073,182.178 534.866,182.459 C535.66,182.736 536.497,182.879 537.376,182.879 C538.29,182.879 539.017,182.65 539.557,182.191 C540.098,181.733 540.368,181.121 540.368,180.36 C540.368,179.646 540.144,179.053 539.697,178.576 C539.249,178.101 538.535,177.703 537.554,177.381 C536.1,176.907 535.001,176.266 534.257,175.46 C533.514,174.654 533.143,173.692 533.143,172.574 C533.143,172.013 533.247,171.465 533.459,170.93 C533.671,170.398 533.989,169.923 534.412,169.516 C534.835,169.105 535.369,168.777 536.013,168.535 C536.655,168.292 537.408,168.168 538.271,168.168 C539.085,168.168 539.805,168.27 540.431,168.471 C541.057,168.671 541.514,168.882 541.802,169.099 L541.32,171.122 C541.032,170.917 540.6,170.71 540.027,170.497 C539.45,170.287 538.832,170.181 538.172,170.181 C537.344,170.181 536.693,170.402 536.22,170.841 C535.745,171.284 535.509,171.8 535.509,172.392 C535.509,173.479 536.382,174.32 538.129,174.913 C538.841,175.151 539.487,175.431 540.063,175.753 C540.64,176.075 541.137,176.445 541.552,176.859 C541.968,177.276 542.289,177.753 542.519,178.298 C542.747,178.84 542.862,179.452 542.862,180.13 C542.862,180.86 542.743,181.519 542.506,182.115" id="Fill-93" fill="#555B60" sketch:type="MSShapeGroup"></path>
        </g>
    </g>
</svg>