<?xml version="1.0" encoding="utf-8"?>
<!-- Generator: Adobe Illustrator 16.0.4, SVG Export Plug-In . SVG Version: 6.00 Build 0)  -->
<!DOCTYPE svg PUBLIC "-//W3C//DTD SVG 1.1//EN" "http://www.w3.org/Graphics/SVG/1.1/DTD/svg11.dtd">
<svg version="1.1" id="Layer_1" xmlns="http://www.w3.org/2000/svg" xmlns:xlink="http://www.w3.org/1999/xlink" x="0px" y="0px"
	 width="73.253px" height="56.917px" viewBox="103.162 20.481 73.253 56.917" enable-background="new 103.162 20.481 73.253 56.917"
	 xml:space="preserve">
<title>RISC-V</title>
<path fill="#F5B31A" d="M142.181,33.852c0,6.213-3.764,11.863-11.111,12.835l10.356,12.238l0.942-0.97l18.896-26.454V20.481h-30.569
	C138.417,21.236,142.181,27.637,142.181,33.852z"/>
<path fill="#283272" d="M147.453,61.343l13.812-19.301v20.833h-15.002L147.453,61.343z M120.903,41.384h7.155
	c5.273,0,7.91-3.766,7.91-7.532c0-3.767-2.637-7.345-7.91-7.345h-9.792v36.375h18.262l-15.625-18.486v-3.009V41.384z"/>
<rect x="119.199" y="67.203" fill="#283272" width="2.169" height="10.19"/>
<path fill="#283272" d="M134.296,75.162h-11.283v2.236h11.368c1.706-0.047,3.051-1.468,3.005-3.174
	c-0.045-1.641-1.364-2.96-3.005-3.005l-8.271-0.067c-0.487-0.002-0.882-0.396-0.884-0.884l0,0c0.002-0.49,0.4-0.887,0.891-0.887
	h11.354v-2.169h-11.361c-1.695-0.005-3.074,1.365-3.078,3.061c-0.002,0.818,0.321,1.603,0.899,2.18
	c0.573,0.574,1.359,0.883,2.169,0.854h8.264c0.488,0,0.884,0.396,0.884,0.884c0,0.002,0,0.004,0,0.006l0,0
	c0.006,0.526-0.416,0.959-0.942,0.965C134.304,75.162,134.3,75.162,134.296,75.162z"/>
<path fill="#283272" d="M143.584,67.203h9.4v2.17h-9.4c-1.599,0-2.895,1.295-2.895,2.893c0,1.599,1.296,2.895,2.895,2.895h9.4v2.236
	h-9.396c-1.342,0.003-2.627-0.545-3.553-1.517c-1.92-1.977-1.92-5.121,0-7.098C140.935,67.77,142.229,67.193,143.584,67.203z"/>
<path fill="#283272" d="M114.403,71.297l-9.069-0.017v-1.836l9.16-0.019c0.494-0.001,0.896,0.397,0.898,0.892l0,0
	C115.386,70.859,114.945,71.297,114.403,71.297z M117.625,77.394l-2.894-4.014c0.755-0.03,1.467-0.364,1.972-0.927
	c1.193-1.22,1.171-3.177-0.05-4.369c-0.567-0.555-1.325-0.869-2.117-0.881h-11.375v10.186h2.171V73.38h6.713l2.891,4.011
	L117.625,77.394z"/>
<polyline fill="#F5B31A" points="163.828,77.394 157.873,67.203 160.422,67.203 165.076,75.287 169.731,67.203 172.243,67.203 
	166.324,77.394 "/>
<rect x="154.301" y="71.343" fill="#F5B31A" width="4.271" height="1.975"/>
<path fill="#283272" d="M176.414,68.828c0.024,0.889-0.676,1.629-1.564,1.652c-0.888,0.025-1.627-0.676-1.652-1.564
	c-0.023-0.888,0.677-1.627,1.564-1.651c0.018-0.001,0.034-0.001,0.051-0.001c0.867-0.017,1.585,0.674,1.602,1.541
	C176.414,68.812,176.414,68.82,176.414,68.828z M173.6,68.828c-0.021,0.669,0.504,1.227,1.173,1.248c0.017,0,0.032,0,0.05,0
	c0.66-0.002,1.194-0.539,1.192-1.2c0-0.013-0.001-0.025-0.001-0.038c0.029-0.666-0.487-1.23-1.154-1.26
	c-0.666-0.029-1.23,0.487-1.26,1.154c-0.002,0.035-0.002,0.07,0,0.105V68.828z M174.562,69.648h-0.361v-1.562
	c0.197-0.036,0.398-0.053,0.6-0.049c0.188-0.016,0.377,0.024,0.544,0.113c0.101,0.086,0.157,0.213,0.153,0.345
	c-0.014,0.181-0.146,0.328-0.324,0.361v0.019c0.158,0.064,0.27,0.211,0.287,0.382c0.016,0.136,0.053,0.269,0.113,0.392h-0.389
	c-0.061-0.121-0.102-0.25-0.123-0.383c-0.03-0.171-0.125-0.247-0.324-0.247h-0.174L174.562,69.648z M174.574,68.762h0.171
	c0.199,0,0.361-0.067,0.361-0.231c0-0.165-0.104-0.231-0.333-0.231c-0.067-0.002-0.134,0.004-0.199,0.019V68.762z"/>
</svg>
