<svg id="Layer_1" data-name="Layer 1" xmlns="http://www.w3.org/2000/svg" viewBox="0 0 128 64"><defs><style>.cls-1{fill:#d91e2a;}</style></defs><title>silicon-labs-logo-no-R (1)</title><path class="cls-1" d="M65.78,24.91c10,.44,10.51,1,13.12,2.09a146.68,146.68,0,0,1-39.85,2c-2.63-.34-9.34-1.59-12.4-3.33-1.3-.74-4.35-2.44-4.14-5.58s4.57-6.36,6.34-7.4C41,5.57,53.93,3.18,67.63,1A180.27,180.27,0,0,0,43.46,5.43C27.14,9.57,10.06,17.14,3.94,24.94,1.3,28.25,0,31.93,1.86,35.39c3.2,6.08,12.57,9.12,23,10.61-3.52-1.07-7.85-2.22-9.75-4.8-.64-.88-.93-2.82,1.23-4.58a36.83,36.83,0,0,1,9.27-5.73l10.4,2.42-1.88,1.4a2,2,0,0,0-.86,2.53A8.7,8.7,0,0,0,37,40c12.32,5,35.31.6,42.84-4.87,2.07-1.45,4.21-2.88,4.38-5.64a4.16,4.16,0,0,0-1.87-3.27C78,23.12,70.75,22.77,65.77,22.68c-9-.17-11.25-1.17-13.72-2.68,16.54-3,31.78-3.69,46.56-.73,3.55.92,7.86,2.36,9.42,5.33,1.14,2.17.11,4.68-2,6.75-4.67,4.51-12.8,7.41-18.13,9.31,10.94-3.48,17.58-5.36,27.78-11.53,5.26-3.18,12.61-9.36,11.17-15.78-1.76-7.81-16-10.84-16-10.84a12.66,12.66,0,0,1,4.73,3c1.42,1.7,1.37,3.12,1.2,3.7-1.35,4.66-7.39,5.26-11.48,6.81L93.88,14.28s2-1.07,3-1.74c1.08-.83,1.77-1.94,1.28-3.25a7.12,7.12,0,0,0-4.78-3.5C80.91,2.11,64.92,4.21,53.83,10.6c-2.66,1.64-6.2,3.85-6.52,7.23-.14,1.5,1.07,3.29,2.89,4.31C55.86,25.06,60.45,24.78,65.78,24.91Z"/><rect x="14" y="49" width="2" height="14"/><polygon points="28 63 28 61 23 61 23 49 21 49 21 63 28 63"/><rect x="31" y="49" width="2" height="14"/><path d="M44,59v2H40V51h4l0,1.63h2V51a2.18,2.18,0,0,0-2-2H40a2.15,2.15,0,0,0-2,2V61a2.15,2.15,0,0,0,2,2h4a2.15,2.15,0,0,0,2-2V59Z"/><polygon points="64 54 68 63 70 63 70 49 68 49 68 58 64 49 62 49 62 63 64 63 64 54"/><polygon points="92 63 92 61 87 61 87 49 85 49 85 63 92 63"/><path d="M56,63a2.16,2.16,0,0,0,2-2V51a2.18,2.18,0,0,0-2-2H52a2.15,2.15,0,0,0-2,2V61a2.15,2.15,0,0,0,2,2Zm0-2H52V51h4Z"/><path d="M98.53,49l-4,14h2l.88-3h4.17l.79,3h2.12l-4-14Zm1,3.28L101,58H98Z"/><path d="M108,63h6a2.15,2.15,0,0,0,2-2V57.5L114.5,56l1.5-1.5V51a2.15,2.15,0,0,0-2-2h-6Zm2-12h4v4h-4Zm0,6h4v4h-4Z"/><path d="M3,52.14c0,1.11,0,1.19.75,1.56l3.89,1.94A2.09,2.09,0,0,1,9,57.58V61a2.15,2.15,0,0,1-2,2H3a2.15,2.15,0,0,1-2-2V59H3v2H7V59.11c0-1.32,0-1.35-.79-1.81L3.06,55.73C1.78,55.09,1,54.44,1,53.46V51a2.15,2.15,0,0,1,2-2H7a1.76,1.76,0,0,1,2,2v1.63H7L7,51H3Z"/><path d="M121,52.14c0,1.11,0,1.19.75,1.56l3.89,1.94a2.1,2.1,0,0,1,1.36,2V61a2.15,2.15,0,0,1-2,2h-4a2.15,2.15,0,0,1-2-2V59h2v2h4V59.11c0-1.32,0-1.35-.79-1.81l-3.15-1.57c-1.28-.64-2-1.29-2.06-2.27V51a2.15,2.15,0,0,1,2-2h4a1.76,1.76,0,0,1,2,2v1.63h-2V51h-4Z"/></svg>