<?xml version="1.0" encoding="UTF-8" standalone="no"?>
<!-- Created with Inkscape (http://www.inkscape.org/) -->

<svg
   xmlns:dc="http://purl.org/dc/elements/1.1/"
   xmlns:cc="http://creativecommons.org/ns#"
   xmlns:rdf="http://www.w3.org/1999/02/22-rdf-syntax-ns#"
   xmlns:svg="http://www.w3.org/2000/svg"
   xmlns="http://www.w3.org/2000/svg"
   xmlns:sodipodi="http://sodipodi.sourceforge.net/DTD/sodipodi-0.dtd"
   xmlns:inkscape="http://www.inkscape.org/namespaces/inkscape"
   id="svg3004"
   version="1.1"
   inkscape:version="0.48.4 r9939"
   width="495.95"
   height="150"
   xml:space="preserve"
   sodipodi:docname="AB Open - Logo.eps"><metadata
     id="metadata3010"><rdf:RDF><cc:Work
         rdf:about=""><dc:format>image/svg+xml</dc:format><dc:type
           rdf:resource="http://purl.org/dc/dcmitype/StillImage" /><dc:title></dc:title></cc:Work></rdf:RDF></metadata><defs
     id="defs3008"><clipPath
       clipPathUnits="userSpaceOnUse"
       id="clipPath3020"><path
         d="m 0,0 3967.58,0 0,1200 L 0,1200 0,0 z"
         id="path3022" /></clipPath></defs><sodipodi:namedview
     pagecolor="#ffffff"
     bordercolor="#666666"
     borderopacity="1"
     objecttolerance="10"
     gridtolerance="10"
     guidetolerance="10"
     inkscape:pageopacity="0"
     inkscape:pageshadow="2"
     inkscape:window-width="1060"
     inkscape:window-height="733"
     id="namedview3006"
     showgrid="false"
     inkscape:zoom="1.4396612"
     inkscape:cx="247.97501"
     inkscape:cy="75"
     inkscape:window-x="202"
     inkscape:window-y="110"
     inkscape:window-maximized="0"
     inkscape:current-layer="g3012" /><g
     id="g3012"
     inkscape:groupmode="layer"
     inkscape:label="ink_ext_XXXXXX"
     transform="matrix(1.25,0,0,-1.25,0,150)"><g
       id="g3014"
       transform="scale(0.1,0.1)"><g
         id="g3016"><g
           id="g3018"
           clip-path="url(#clipPath3020)"><path
             d="M 1200.07,600.039 C 1200.07,268.672 931.438,0 600.051,0 268.66,0 0,268.672 0,600.039 c 0,331.367 268.66,600.011 600.051,600.011 331.387,0 600.019,-268.644 600.019,-600.011"
             style="fill:#106cff;fill-opacity:1;fill-rule:nonzero;stroke:none"
             id="path3024" /><path
             d="M 2121.14,600.039 C 2121.14,268.672 1852.48,0 1521.12,0 1336.1,0 1170.66,83.7383 1060.58,215.383 l 0,769.277 c 110.05,131.65 275.52,215.39 460.54,215.39 331.36,0 600.02,-268.644 600.02,-600.011"
             style="fill:#48ff9f;fill-opacity:1;fill-rule:nonzero;stroke:none"
             id="path3026" /><path
             d="m 921.094,600.266 c 0,-146.328 52.453,-280.254 139.486,-384.426 86.99,104.172 139.47,238.098 139.47,384.426 0,146.316 -52.48,280.273 -139.47,384.394 C 973.547,880.539 921.094,746.582 921.094,600.266"
             style="fill:#004990;fill-opacity:1;fill-rule:nonzero;stroke:none"
             id="path3028" /><path
             d="m 2779.97,607.777 c 0,105.989 -65.9,184.114 -167.11,184.114 -101.92,0 -166.45,-78.125 -166.45,-184.114 0,-105.304 64.53,-184.113 166.45,-184.113 101.21,0 167.11,78.809 167.11,184.113 z m -392,0 c 0,133.84 91.06,234.387 224.89,234.387 133.82,0 225.54,-100.547 225.54,-234.387 0,-133.839 -91.72,-234.386 -225.54,-234.386 -133.83,0 -224.89,100.547 -224.89,234.386"
             style="fill:#004990;fill-opacity:1;fill-rule:nonzero;stroke:none"
             id="path3030" /><path
             d="m 3178.13,545.949 c 0,72.699 -39.41,126.367 -105.31,126.367 -40.06,0 -80.16,-23.777 -97.83,-52.304 l 0,-148.106 c 17.67,-28.535 57.77,-53 97.83,-53 65.9,0 105.31,54.356 105.31,127.043 z m -203.14,-114.804 0,-174.61 -50.96,0 0,453.149 50.96,0 0,-48.911 c 23.78,33.286 64.55,57.067 110.74,57.067 86.29,0 146.07,-65.227 146.07,-171.891 0,-105.976 -59.78,-172.558 -146.07,-172.558 -44.85,0 -83.56,21.746 -110.74,57.754"
             style="fill:#004990;fill-opacity:1;fill-rule:nonzero;stroke:none"
             id="path3032" /><path
             d="m 3454.63,675.719 c -69.98,0 -104.63,-59.11 -107.34,-108.696 l 215.37,0 c -0.68,48.231 -33.3,108.696 -108.03,108.696 z m -161.01,-129.77 c 0,95.117 67.95,171.891 161.7,171.891 99.18,0 157.61,-77.453 157.61,-175.965 l 0,-12.898 -264.96,0 c 4.09,-61.836 46.88,-113.457 117.54,-113.457 38.05,0 75.41,14.941 101.9,42.117 l 24.45,-33.289 c -33.26,-32.618 -77.42,-50.957 -130.43,-50.957 -97.83,0 -167.81,69.98 -167.81,172.558"
             style="fill:#004990;fill-opacity:1;fill-rule:nonzero;stroke:none"
             id="path3034" /><path
             d="m 3917.33,381.555 0,214.675 c 0,58.422 -29.92,76.086 -74.06,76.086 -40.08,0 -77.46,-24.453 -97.17,-50.953 l 0,-239.808 -50.96,0 0,328.129 50.96,0 0,-47.559 c 23.1,27.863 67.95,55.715 117.54,55.715 67.93,0 103.94,-34.649 103.94,-105.988 l 0,-230.297 -50.25,0"
             style="fill:#004990;fill-opacity:1;fill-rule:nonzero;stroke:none"
             id="path3036" /><path
             d="m 600.312,769.129 -95.957,-244.977 192.586,0 -96.629,244.977 z m 153.133,-396.051 -40.175,101.387 -225.926,0 -40.125,-101.387 -64.653,0 183.047,453.891 70.071,0 182.39,-453.891 -64.629,0"
             style="fill:#ffffff;fill-opacity:1;fill-rule:nonzero;stroke:none"
             id="path3038" /><path
             d="m 1672.26,501.125 c 0,41.758 -28.76,78.711 -84.18,78.711 l -140.3,0 0,-157.422 140.3,0 c 52.71,0 84.18,30.117 84.18,78.711 z m -8.9,202.582 c 0,41.074 -27.38,73.926 -78.71,73.926 l -136.87,0 0,-147.156 136.87,0 c 51.33,0 78.71,31.48 78.71,73.23 z m -272.39,-331.937 0,456.507 203.28,0 c 79.39,0 127.99,-47.91 127.99,-116.347 0,-57.5 -38.34,-95.821 -80.08,-104.715 48.59,-7.531 88.96,-57.496 88.96,-112.242 0,-73.243 -48.6,-123.203 -132.1,-123.203 l -208.05,0"
             style="fill:#ffffff;fill-opacity:1;fill-rule:nonzero;stroke:none"
             id="path3040" /></g></g></g></g></svg>