<?xml version="1.0" encoding="utf-8"?>
<!-- Generator: Adobe Illustrator 22.1.0, SVG Export Plug-In . SVG Version: 6.00 Build 0)  -->
<svg version="1.1" id="Logo_CEA" xmlns="http://www.w3.org/2000/svg" xmlns:xlink="http://www.w3.org/1999/xlink" x="0px" y="0px"
	 viewBox="0 0 566.9 462.5" style="enable-background:new 0 0 566.9 462.5;" xml:space="preserve">
<style type="text/css">
	.st0{fill:#B81420;}
	.st1{fill:#FFFFFF;}
	.st2{fill:#73BE2A;}
</style>
<g>
	<rect x="0" y="0" class="st0" width="566.9" height="462.5"/>
	<path class="st1" d="M459.6,231.1c0-63.4-48.2-67.8-58.3-67.8c-15.7,0-30.8,3.3-46.7,9.5l-1.1,16.7c6.2-2.9,26-11.4,45.8-11.4
		c15.6,0,27.6,5.2,35.7,15.5c-53.6,28.2-85.5,50.8-90.3,69.6c-13.7,9.3-37.9,20-59.4,20c-22.9,0-32.7-9.9-37-15.6
		c58.8-39.5,89.2-62.4,85.5-80.4c-3.4-16.2-27.5-23.9-49.1-23.9c-22.1,0-37.3,9.6-44.5,17c-11.6,11.9-17.1,29.6-16.4,52.6
		c0.3,10,2.3,20.5,5.6,29.7c-9,5.9-33.6,20.7-61.8,20.7c-33.5,0-47.3-26.2-47.3-52.6c0-25.6,12.9-52.6,47.3-52.6
		c19.3,0,38.8,8.2,45.4,11.2l-1.1-16.7c-12.5-4.9-28.9-9.3-43.2-9.3c-57,0-61.7,47.8-61.4,67.3c-0.3,19.5,4.9,67.3,60.9,67.3
		c33.8,0,62.6-18.6,67.8-22c3.6,6.3,18,22,49.2,22c24.6,0,52-12.3,61.1-18.2c5.6,7.5,17,18.2,51.9,18.2c23.1,0,37.7-8,46.9-19
		c0.2,5.8,0.4,11.4,0.6,15.8l14,2.2C459.2,282.3,459.6,231.8,459.6,231.1 M237.3,239.1c0-0.3-3.9-29.9,11.9-48
		c8.2-9.4,20.2-14.1,35.9-14.1c16.8,0,31,5.9,32.4,12.6c1.1,5-3.7,11.5-25.5,28.9c-0.2,0.2-22.2,18.9-50.6,35.7
		C239.6,249.7,238.2,244.6,237.3,239.1 M434.1,270.1c-8.2,9.4-20.5,13.5-36.1,13.6c-35.6,0.3-39.1-13.2-39.1-13.2
		c-3.7-8.3,8.3-25,82.8-64.4c1.8,4.6,3.4,10.5,4.3,16C446,222.4,449.9,252,434.1,270.1"/>
</g>
<rect x="121.1" y="342.1" class="st2" width="324.7" height="13.8"/>
</svg>
