<?xml version="1.0" encoding="utf-8"?>
<!-- Generator: Adobe Illustrator 22.0.1, SVG Export Plug-In . SVG Version: 6.00 Build 0)  -->
<svg version="1.1" id="Logo" xmlns="http://www.w3.org/2000/svg" xmlns:xlink="http://www.w3.org/1999/xlink" x="0px" y="0px"
	 viewBox="0 0 379.5 110.6" style="enable-background:new 0 0 379.5 110.6;" xml:space="preserve">
<style type="text/css">
	.st0{fill:#ABD3F1;}
	.st1{fill:#963594;}
	.st2{fill:#5B1D57;}
	.st3{fill:url(#SVGID_1_);}
	.st4{fill:url(#SVGID_2_);}
	.st5{fill:url(#SVGID_3_);}
	.st6{fill:none;stroke:#000000;stroke-miterlimit:10;}
	.st7{fill-rule:evenodd;clip-rule:evenodd;}
	.st8{opacity:0.73;}
</style>
<path class="st0" d="M56.5,40c0,15.6-12.7,28.3-28.5,28.3V11.7C43.8,11.7,56.5,24.4,56.5,40z"/>
<path class="st1" d="M0,40c0-15.6,12.6-28.3,28-28.3v56.6C12.6,68.3,0,55.6,0,40z"/>
<path class="st2" d="M28.1,62c-12.1,0-22-9.8-22-22s9.8-22,22-22V62z"/>
<linearGradient id="SVGID_1_" gradientUnits="userSpaceOnUse" x1="39.0289" y1="61.9821" x2="39.0289" y2="18.0654">
	<stop  offset="0" style="stop-color:#9FCEEF"/>
	<stop  offset="1" style="stop-color:#53B2E5"/>
</linearGradient>
<path class="st3" d="M50,40c0,12.1-9.8,22-22,22V18.1C40.2,18.1,50,27.9,50,40z"/>
<linearGradient id="SVGID_2_" gradientUnits="userSpaceOnUse" x1="21.2323" y1="18.0917" x2="21.2323" y2="61.9821">
	<stop  offset="0" style="stop-color:#C2E8F8"/>
	<stop  offset="1" style="stop-color:#24ABE2"/>
</linearGradient>
<path class="st4" d="M28,62c-7.5,0-13.6-9.8-13.6-22S20.5,18.1,28,18.1V62z"/>
<radialGradient id="SVGID_3_" cx="30.7477" cy="34.8571" r="13.1784" gradientUnits="userSpaceOnUse">
	<stop  offset="0.1399" style="stop-color:#FFFFFF"/>
	<stop  offset="1" style="stop-color:#FFF200"/>
</radialGradient>
<path class="st5" d="M28.3,24.7c-0.4,0-0.7,0.1-1,0.2c-5,0.6-9,7.2-9,15.2c0,8.4,4.4,15.3,9.8,15.3v0c0.1,0-0.1,0,0,0
	c8.5,0,15.5-6.9,15.5-15.3S36.7,24.7,28.3,24.7z"/>
<g>
	<path d="M100.1,26.3l-3.7,6.4c-2-1.9-4.7-2.8-8.1-2.8c-3.2,0-5.8,1.1-7.7,3.2s-2.8,5.1-2.8,8.9c0,7.7,3.7,11.5,11,11.5
		c3.2,0,5.9-1,8.4-3.1l3.1,6.7c-2.5,1.5-4.6,2.5-6.5,2.9s-4,0.6-6.6,0.6c-5.6,0-10.1-1.6-13.4-4.9s-4.9-7.9-4.9-13.7
		c0-5.8,1.8-10.4,5.4-14c3.6-3.5,8.4-5.3,14.6-5.3C93.3,22.7,97,23.9,100.1,26.3z"/>
	<path d="M104.8,41.6c0-5.6,1.6-10.1,4.8-13.6c3.2-3.5,7.5-5.3,12.7-5.3c5.6,0,9.9,1.7,12.9,5.1s4.6,8,4.6,13.8
		c0,5.8-1.6,10.5-4.7,13.9s-7.4,5.2-12.8,5.2c-5.6,0-9.9-1.7-13-5.2C106.4,52,104.8,47.3,104.8,41.6z M113.7,41.6
		c0,8.1,2.9,12.1,8.7,12.1c2.7,0,4.8-1,6.3-3.1c1.6-2.1,2.3-5.1,2.3-8.9c0-7.9-2.9-11.9-8.7-11.9c-2.7,0-4.8,1-6.3,3.1
		C114.5,34.9,113.7,37.8,113.7,41.6z"/>
	<path d="M170.3,59.9v-2.2c-0.7,0.8-1.9,1.5-3.6,2c-1.7,0.6-3.4,0.9-5.2,0.9c-5.1,0-9.1-1.6-12-4.8c-2.9-3.2-4.4-7.7-4.4-13.5
		s1.7-10.5,5-14.1c3.4-3.6,7.6-5.4,12.6-5.4c2.8,0,5.3,0.6,7.6,1.7V9.8l8.5-2v52.2H170.3z M170.3,32.1c-1.8-1.5-3.7-2.2-5.7-2.2
		c-3.4,0-6,1-7.9,3.1s-2.8,5.1-2.8,9c0,7.6,3.7,11.4,11,11.4c0.8,0,1.8-0.2,3-0.7c1.2-0.5,2-1,2.3-1.5V32.1z"/>
	<path d="M220,44.3h-26.1c0.2,2.9,1.2,5.2,3,6.8c1.8,1.6,4.3,2.4,7.4,2.4c3.9,0,6.8-1,8.9-3l3.3,6.5c-3,2.4-7.5,3.7-13.4,3.7
		c-5.6,0-10-1.6-13.2-4.9c-3.2-3.3-4.9-7.8-4.9-13.7c0-5.8,1.8-10.4,5.3-14c3.6-3.6,7.8-5.4,12.8-5.4c5.3,0,9.6,1.6,12.8,4.7
		c3.2,3.2,4.8,7.2,4.8,12.1C220.7,40.6,220.5,42.2,220,44.3z M194.2,37.9h18c-0.6-5.3-3.5-8-8.9-8C198.4,29.8,195.4,32.5,194.2,37.9
		z"/>
	<path d="M235.4,59v15.3h-8.5V23.4h8.5v2.5c2.1-2.1,4.8-3.1,7.9-3.1c11.6,0,17.5,6.4,17.5,19.2c0,6-1.6,10.6-4.8,13.8
		c-3.2,3.2-7.6,4.8-13.2,4.8C240,60.6,237.6,60.1,235.4,59z M235.4,32.3v19.2c1.5,1.3,3.4,1.9,5.4,1.9c3.9,0,6.8-0.9,8.5-2.8
		c1.7-1.9,2.6-4.8,2.6-8.9c0-4.3-0.9-7.4-2.6-9.1c-1.7-1.8-4.5-2.6-8.5-2.6C238.8,29.9,237,30.7,235.4,32.3z"/>
	<path d="M269.7,9.8l8.5-2v41.1c0,4.5,1.3,7.2,4,8.1c-1.3,2.5-3.6,3.8-6.8,3.8c-3.9,0-5.8-2.7-5.8-8.1V9.8z"/>
	<path d="M309.2,56.3c-0.8,1.3-2.1,2.3-4,3.1c-1.9,0.8-3.9,1.2-6,1.2c-3.9,0-7-1-9.3-3c-2.3-2-3.4-4.8-3.4-8.4
		c0-4.2,1.6-7.5,4.8-9.9s7.7-3.6,13.5-3.6c1,0,2.2,0.2,3.5,0.5c0-4.3-2.7-6.5-8.2-6.5c-3.2,0-5.9,0.5-8.1,1.6l-1.8-6.6
		c2.9-1.4,6.4-2.1,10.5-2.1c5.6,0,9.7,1.3,12.3,3.8c2.6,2.5,3.9,7.3,3.9,14.4v7.8c0,4.9,1,7.9,2.9,9.2c-0.7,1.2-1.5,2-2.4,2.3
		c-0.9,0.3-1.9,0.4-3,0.4c-1.2,0-2.3-0.5-3.3-1.4S309.5,57.4,309.2,56.3z M308.4,42.7c-1.5-0.3-2.5-0.4-3.3-0.4
		c-6.7,0-10.1,2.2-10.1,6.6c0,3.3,1.9,4.9,5.7,4.9c5.1,0,7.7-2.6,7.7-7.7V42.7z"/>
	<path d="M342.3,65.8c-0.9,2.4-2.9,4.5-5.9,6.1c-3,1.6-6.5,2.4-10.5,2.4v-7.5c6.6,0,9.9-1.7,9.9-4.9c0-2.2-0.9-5.5-2.7-10
		l-11.4-28.4h8.8l10,25.3l9-25.3h8.8L342.3,65.8z"/>
</g>
<g id="Hand">
	<circle class="st6" cx="372.4" cy="16.3" r="6.6"/>
	<path class="st7" d="M374.2,19.2c0,0,0.9-0.7,1.1-0.8c0,0,0.9-0.5,0.9-0.6c0,0,0.5-0.2,0.2-0.6c0,0-0.5-0.5-1.4,0.3
		c0,0-0.2,0.2-0.3,0.2c0,0-0.8,0.6-0.9,0.5c0,0-0.3-0.5,0-0.9c0,0,0.4-0.6,0.4-0.7c0,0,0.1-0.2,0.3-0.3c0,0,0.4-0.5,0.5-0.6
		c0,0,0.6-0.8,0.6-0.9c0,0,0.1-0.2,0.2-0.3c0,0,0.6-0.9,0.3-1.1c0,0-0.3-0.5-0.8,0.3l-0.2,0.3c0,0-0.2,0.3-0.3,0.4
		c0,0-0.4,0.4-0.5,0.6c0,0-0.5,0.5-0.6,0.7c0,0-0.2,0.2-0.3,0.2c0,0-0.2,0.1,0.1-0.3c0,0,0.5-0.8,0.5-0.9c0,0,0.6-1,0.5-1.1
		c0,0,0.4-0.8,0.4-0.8c0,0,0.3-0.5-0.2-0.7c0,0-0.4,0-0.6,0.6c0,0-0.4,0.7-0.4,0.7c0,0-0.5,0.7-0.5,0.8c0,0-0.7,1-0.8,1.2
		c0,0-0.3,0.2-0.1-0.3c0,0,0.2-0.6,0.2-0.9c0,0,0.3-0.7,0.2-0.8c0,0,0.2-0.2,0.2-0.4c0,0,0.6-0.8,0.2-1c0,0-0.3-0.3-0.7,0.3
		c0,0-0.3,0.5-0.3,0.7c0,0-0.6,1-0.6,1.2c0,0-0.4,1.2-0.5,1.2c0,0-0.4,0.1-0.3-0.3c0,0,0-0.3,0-0.5c0,0,0-0.6,0-0.8
		c0,0,0-0.4,0.1-0.6c0,0,0.2-0.8-0.1-0.9c0,0-0.5-0.2-0.6,1.1c0,0-0.1,0.8-0.1,1c0,0-0.1,1.1-0.1,1.3c0,0-0.5,1.7-0.6,1.7
		c0,0-0.1,0.8-0.1,1.4c0,0,0.1,0.8,1,1.1l0.5,0.4c0,0,0.9,0.4,1.4,0.1C371.8,20.5,373.4,20,374.2,19.2z"/>
</g>
<g class="st8">
	<path d="M7,98.3H1.6v4.7h6.2v0.8H0.7V92.5h7.1v0.8H1.6v4.2H7V98.3z"/>
	<path d="M10.4,95.4l0.1,1.5c0.3-0.5,0.6-0.9,1.1-1.2c0.5-0.3,1-0.4,1.6-0.4c0.9,0,1.6,0.3,2.1,0.8c0.5,0.6,0.7,1.4,0.7,2.6v5.1
		h-0.9v-5.1c0-1-0.2-1.6-0.5-2c-0.4-0.4-0.9-0.6-1.5-0.6c-0.7,0-1.2,0.2-1.6,0.5c-0.4,0.3-0.7,0.8-0.9,1.4v5.9H9.6v-8.4H10.4z"/>
	<path d="M23.7,103.8c-0.1-0.3-0.1-0.5-0.1-0.7s0-0.4,0-0.6c-0.3,0.4-0.7,0.8-1.2,1.1c-0.5,0.3-1.1,0.4-1.7,0.4
		c-0.8,0-1.5-0.2-1.9-0.7c-0.5-0.4-0.7-1-0.7-1.7c0-0.8,0.3-1.4,1-1.9c0.7-0.5,1.6-0.7,2.7-0.7h1.9v-1c0-0.6-0.2-1.1-0.6-1.4
		c-0.4-0.3-0.9-0.5-1.6-0.5c-0.6,0-1.2,0.2-1.6,0.5c-0.4,0.3-0.6,0.7-0.6,1.2l-0.9,0l0,0c0-0.6,0.3-1.2,0.9-1.7s1.4-0.7,2.3-0.7
		c0.9,0,1.7,0.2,2.2,0.7c0.6,0.5,0.8,1.1,0.8,2v4.1c0,0.3,0,0.6,0.1,0.9s0.1,0.6,0.2,0.8H23.7z M20.7,103.2c0.7,0,1.3-0.2,1.8-0.5
		c0.5-0.3,0.9-0.7,1.1-1.2v-1.8h-1.9c-0.8,0-1.5,0.2-2,0.5c-0.5,0.4-0.8,0.8-0.8,1.3c0,0.5,0.2,0.8,0.5,1.1
		C19.7,103,20.1,103.2,20.7,103.2z"/>
	<path d="M33.7,99.8c0,1.3-0.3,2.3-0.9,3s-1.4,1.1-2.4,1.1c-0.6,0-1.1-0.1-1.6-0.4c-0.4-0.2-0.8-0.6-1.1-1.1l-0.1,1.3H27V91.7h0.9v5
		c0.3-0.5,0.6-0.8,1.1-1.1c0.4-0.3,1-0.4,1.6-0.4c1,0,1.8,0.4,2.4,1.2s0.9,1.9,0.9,3.2V99.8z M32.8,99.7c0-1.1-0.2-2-0.6-2.6
		c-0.4-0.7-1-1-1.8-1c-0.6,0-1.2,0.2-1.6,0.5s-0.7,0.7-0.9,1.2v3.8c0.2,0.5,0.5,0.9,0.9,1.2c0.4,0.3,0.9,0.4,1.5,0.4
		c0.8,0,1.4-0.3,1.8-0.9c0.4-0.6,0.6-1.4,0.6-2.4V99.7z"/>
	<path d="M36.9,103.8h-0.9V91.7h0.9V103.8z"/>
	<path d="M40.5,93h-0.9v-1.3h0.9V93z M40.5,103.8h-0.9v-8.4h0.9V103.8z"/>
	<path d="M43.9,95.4l0.1,1.5c0.3-0.5,0.6-0.9,1.1-1.2c0.5-0.3,1-0.4,1.6-0.4c0.9,0,1.6,0.3,2.1,0.8c0.5,0.6,0.7,1.4,0.7,2.6v5.1
		h-0.9v-5.1c0-1-0.2-1.6-0.5-2c-0.4-0.4-0.9-0.6-1.5-0.6c-0.7,0-1.2,0.2-1.6,0.5c-0.4,0.3-0.7,0.8-0.9,1.4v5.9H43v-8.4H43.9z"/>
	<path d="M51.5,99.7c0-1.3,0.3-2.4,0.9-3.2c0.6-0.8,1.4-1.2,2.4-1.2c0.6,0,1.1,0.1,1.5,0.4c0.4,0.3,0.8,0.6,1.1,1.1l0.1-1.3h0.8v8.3
		c0,1.1-0.3,1.9-0.9,2.6c-0.6,0.6-1.4,0.9-2.5,0.9c-0.4,0-0.8,0-1.3-0.1c-0.5-0.1-0.9-0.2-1.2-0.4l0.2-0.8c0.3,0.2,0.7,0.3,1,0.4
		c0.4,0.1,0.8,0.1,1.2,0.1c0.8,0,1.4-0.2,1.9-0.7c0.4-0.5,0.6-1.1,0.6-2v-1.1c-0.3,0.4-0.6,0.8-1.1,1c-0.4,0.2-0.9,0.3-1.5,0.3
		c-1,0-1.8-0.4-2.4-1.1c-0.6-0.8-0.9-1.8-0.9-3V99.7z M52.5,99.8c0,1,0.2,1.8,0.6,2.4s1,0.9,1.8,0.9c0.6,0,1.1-0.1,1.5-0.4
		c0.4-0.3,0.7-0.7,0.9-1.1v-3.9c-0.2-0.5-0.5-0.9-0.9-1.2s-0.9-0.5-1.5-0.5c-0.8,0-1.4,0.3-1.9,1c-0.4,0.7-0.6,1.5-0.6,2.6V99.8z"/>
	<path d="M71,100.7h-5.2l-1.2,3.2h-1l4.3-11.3h0.9l4.3,11.3h-1L71,100.7z M66.1,99.8h4.6l-2.3-6.1h0L66.1,99.8z"/>
	<path d="M75.9,103.8H75V92.5h0.9V103.8z"/>
	<path d="M84.5,97.6c-0.4-0.5-0.7-1-0.9-1.4c-0.2-0.4-0.3-0.9-0.3-1.3c0-0.8,0.2-1.4,0.7-1.9c0.5-0.4,1.1-0.7,1.9-0.7
		c0.7,0,1.3,0.2,1.8,0.6c0.4,0.4,0.7,0.9,0.7,1.6c0,0.5-0.1,0.9-0.3,1.2c-0.2,0.3-0.6,0.7-1,1l-1.2,0.9l3.2,3.7
		c0.3-0.4,0.5-0.8,0.6-1.2s0.2-0.9,0.2-1.5h0.9c0,0.7-0.1,1.3-0.3,1.8c-0.2,0.6-0.5,1.1-0.8,1.5l1.4,1.7l0,0h-1.1l-0.9-1.1
		c-0.4,0.4-0.9,0.7-1.4,0.9c-0.5,0.2-1.1,0.3-1.7,0.3c-1.1,0-1.9-0.3-2.6-0.8c-0.6-0.6-0.9-1.3-0.9-2.2c0-0.6,0.2-1.2,0.6-1.7
		c0.4-0.5,0.9-1,1.6-1.5L84.5,97.6z M85.7,103.2c0.5,0,0.9-0.1,1.4-0.3c0.5-0.2,0.9-0.5,1.2-0.8l-3.2-3.7c0,0,0,0-0.1-0.1
		c0,0,0,0,0-0.1l-0.4,0.3c-0.6,0.5-1,0.9-1.2,1.3s-0.3,0.8-0.3,1.1c0,0.6,0.2,1.2,0.7,1.6C84.2,103,84.9,103.2,85.7,103.2z
		 M84.2,94.9c0,0.3,0.1,0.7,0.2,1.1c0.2,0.4,0.4,0.8,0.7,1.2l1.4-1c0.3-0.2,0.5-0.5,0.6-0.7s0.2-0.5,0.2-0.8c0-0.4-0.1-0.7-0.4-1
		c-0.3-0.3-0.7-0.4-1.1-0.4c-0.5,0-0.9,0.2-1.2,0.5C84.3,94,84.2,94.4,84.2,94.9z"/>
	<path d="M104.9,103.8H104v-5.2h-6.4v5.2h-0.9V92.5h0.9v5.3h6.4v-5.3h0.9V103.8z"/>
	<path d="M108.8,99.1v4.7h-0.9V92.5h3.9c1.2,0,2.1,0.3,2.8,0.9c0.6,0.6,1,1.4,1,2.4c0,1-0.3,1.8-1,2.4s-1.6,0.9-2.8,0.9H108.8z
		 M108.8,98.3h3c0.9,0,1.6-0.2,2.1-0.7c0.5-0.5,0.7-1.1,0.7-1.8c0-0.7-0.2-1.3-0.7-1.8s-1.2-0.7-2.1-0.7h-3V98.3z"/>
	<path d="M125.5,100.3L125.5,100.3c-0.1,1.2-0.5,2.1-1.2,2.7s-1.7,1-2.8,1c-1.3,0-2.3-0.5-3-1.4c-0.8-0.9-1.2-2.1-1.2-3.5v-1.8
		c0-1.4,0.4-2.6,1.2-3.5c0.8-0.9,1.8-1.4,3-1.4c1.2,0,2.2,0.3,2.9,1c0.7,0.6,1.1,1.5,1.2,2.7l0,0h-0.9c-0.1-0.9-0.4-1.7-1-2.2
		c-0.5-0.5-1.3-0.7-2.2-0.7c-1,0-1.8,0.4-2.4,1.1c-0.6,0.8-0.9,1.7-0.9,2.9v1.9c0,1.2,0.3,2.2,0.9,3c0.6,0.8,1.4,1.1,2.4,1.1
		c1,0,1.7-0.2,2.2-0.7c0.5-0.5,0.8-1.2,1-2.2H125.5z"/>
	<path d="M139.3,93.3h-3.9v10.5h-0.9V93.3h-3.9v-0.8h8.7V93.3z"/>
	<path d="M139.6,99.5c0-1.2,0.3-2.3,1-3c0.7-0.8,1.6-1.2,2.7-1.2c1.1,0,2,0.4,2.7,1.2c0.7,0.8,1,1.8,1,3v0.3c0,1.2-0.3,2.3-1,3
		c-0.7,0.8-1.6,1.2-2.7,1.2c-1.1,0-2-0.4-2.7-1.2c-0.7-0.8-1-1.8-1-3V99.5z M140.6,99.7c0,1,0.2,1.8,0.7,2.5c0.5,0.7,1.2,1,2.1,1
		c0.9,0,1.5-0.3,2-1c0.5-0.7,0.7-1.5,0.7-2.5v-0.3c0-1-0.2-1.8-0.7-2.4c-0.5-0.7-1.2-1-2-1s-1.6,0.3-2,1s-0.7,1.5-0.7,2.4V99.7z"/>
	<path d="M153.1,103.8V92.5h3.3c1.2,0,2.1,0.2,2.7,0.7c0.7,0.5,1,1.2,1,2.2c0,0.6-0.2,1.1-0.5,1.5c-0.3,0.4-0.8,0.7-1.3,0.9
		c0.7,0.1,1.2,0.4,1.7,1s0.6,1.1,0.6,1.8c0,1-0.3,1.8-1,2.3c-0.7,0.5-1.5,0.8-2.6,0.8H153.1z M154.1,97.6h2.6c0.8,0,1.5-0.2,1.9-0.5
		c0.4-0.4,0.7-0.9,0.7-1.6c0-0.7-0.2-1.3-0.7-1.6c-0.5-0.4-1.2-0.5-2.1-0.5h-2.4V97.6z M154.1,98.4v4.7h3c0.8,0,1.5-0.2,2-0.6
		s0.7-1,0.7-1.7c0-0.7-0.2-1.2-0.6-1.7c-0.4-0.4-1.1-0.6-1.9-0.6H154.1z"/>
	<path d="M165.9,104c-1.1,0-1.9-0.4-2.6-1.2c-0.7-0.8-1-1.8-1-3v-0.4c0-1.2,0.3-2.2,1-3c0.7-0.8,1.5-1.2,2.5-1.2c1,0,1.8,0.3,2.4,1
		c0.6,0.7,0.9,1.5,0.9,2.6v0.8h-5.9v0.2c0,0.9,0.3,1.7,0.8,2.4c0.5,0.6,1.2,1,2,1c0.6,0,1.1-0.1,1.5-0.2c0.4-0.2,0.8-0.4,1-0.7
		l0.4,0.6c-0.3,0.3-0.7,0.6-1.2,0.8C167.1,103.9,166.5,104,165.9,104z M165.8,96.1c-0.7,0-1.3,0.3-1.7,0.8c-0.5,0.5-0.7,1.2-0.8,2
		l0,0h4.9v-0.2c0-0.7-0.2-1.3-0.6-1.8C167.1,96.3,166.5,96.1,165.8,96.1z"/>
	<path d="M183.3,99.1c0,1.5-0.4,2.6-1.2,3.5c-0.8,0.9-1.9,1.4-3.2,1.4c-1.3,0-2.4-0.5-3.2-1.4c-0.8-0.9-1.2-2.1-1.2-3.5v-1.8
		c0-1.5,0.4-2.6,1.2-3.5c0.8-0.9,1.8-1.4,3.2-1.4c1.3,0,2.4,0.5,3.2,1.4c0.8,0.9,1.2,2.1,1.2,3.5V99.1z M182.4,97.2
		c0-1.2-0.3-2.2-0.9-3c-0.6-0.7-1.5-1.1-2.6-1.1c-1.1,0-1.9,0.4-2.5,1.1s-0.9,1.7-0.9,3v1.9c0,1.2,0.3,2.2,0.9,3
		c0.6,0.7,1.4,1.1,2.5,1.1c1.1,0,2-0.4,2.6-1.1c0.6-0.7,0.9-1.7,0.9-3V97.2z"/>
	<path d="M192.2,99.8c0,1.3-0.3,2.3-0.9,3S190,104,189,104c-0.6,0-1.1-0.1-1.5-0.3c-0.4-0.2-0.8-0.5-1.1-1v4.4h-0.9V95.4h0.8
		l0.1,1.3c0.3-0.5,0.6-0.8,1.1-1.1c0.4-0.3,1-0.4,1.6-0.4c1,0,1.8,0.4,2.4,1.2s0.9,1.9,0.9,3.2V99.8z M191.3,99.7
		c0-1.1-0.2-1.9-0.6-2.6c-0.4-0.7-1-1-1.9-1c-0.6,0-1.1,0.1-1.5,0.4c-0.4,0.3-0.7,0.7-0.9,1.2v4c0.2,0.5,0.5,0.8,0.9,1.1
		c0.4,0.3,0.9,0.4,1.5,0.4c0.8,0,1.4-0.3,1.9-0.9s0.6-1.4,0.6-2.4V99.7z"/>
	<path d="M197.5,104c-1.1,0-1.9-0.4-2.6-1.2c-0.7-0.8-1-1.8-1-3v-0.4c0-1.2,0.3-2.2,1-3c0.7-0.8,1.5-1.2,2.5-1.2c1,0,1.8,0.3,2.4,1
		c0.6,0.7,0.9,1.5,0.9,2.6v0.8h-5.9v0.2c0,0.9,0.3,1.7,0.8,2.4c0.5,0.6,1.2,1,2,1c0.6,0,1.1-0.1,1.5-0.2c0.4-0.2,0.8-0.4,1-0.7
		l0.4,0.6c-0.3,0.3-0.7,0.6-1.2,0.8C198.7,103.9,198.2,104,197.5,104z M197.4,96.1c-0.7,0-1.3,0.3-1.7,0.8c-0.5,0.5-0.7,1.2-0.8,2
		l0,0h4.9v-0.2c0-0.7-0.2-1.3-0.6-1.8S198.1,96.1,197.4,96.1z"/>
	<path d="M203.3,95.4l0.1,1.5c0.3-0.5,0.6-0.9,1.1-1.2s1-0.4,1.6-0.4c0.9,0,1.6,0.3,2.1,0.8c0.5,0.6,0.7,1.4,0.7,2.6v5.1H208v-5.1
		c0-1-0.2-1.6-0.5-2s-0.9-0.6-1.5-0.6c-0.7,0-1.2,0.2-1.6,0.5c-0.4,0.3-0.7,0.8-0.9,1.4v5.9h-0.9v-8.4H203.3z"/>
	<path d="M222,101c0-0.6-0.2-1.1-0.7-1.5c-0.5-0.4-1.3-0.7-2.4-1c-1.2-0.3-2.2-0.7-2.8-1.2s-1-1.2-1-2c0-0.9,0.4-1.6,1.1-2.1
		c0.7-0.5,1.6-0.8,2.7-0.8c1.2,0,2.1,0.3,2.8,1c0.7,0.6,1.1,1.4,1,2.4l0,0h-0.9c0-0.8-0.3-1.4-0.8-1.9c-0.5-0.5-1.3-0.7-2.2-0.7
		c-0.9,0-1.6,0.2-2.1,0.6c-0.5,0.4-0.8,0.9-0.8,1.5c0,0.6,0.2,1,0.7,1.4c0.5,0.4,1.3,0.7,2.4,1c1.2,0.3,2.1,0.7,2.8,1.3
		c0.6,0.5,1,1.2,1,2.1c0,0.9-0.4,1.6-1.1,2.2c-0.7,0.5-1.7,0.8-2.8,0.8c-1.1,0-2.1-0.3-3-0.9c-0.8-0.6-1.2-1.4-1.2-2.5l0,0h0.9
		c0,0.9,0.3,1.5,1,2s1.4,0.6,2.3,0.6c0.9,0,1.6-0.2,2.2-0.6C221.7,102.2,222,101.7,222,101z"/>
	<path d="M230.1,103.8c-0.1-0.3-0.1-0.5-0.1-0.7c0-0.2,0-0.4,0-0.6c-0.3,0.4-0.7,0.8-1.2,1.1c-0.5,0.3-1.1,0.4-1.7,0.4
		c-0.8,0-1.5-0.2-1.9-0.7c-0.5-0.4-0.7-1-0.7-1.7c0-0.8,0.3-1.4,1-1.9c0.7-0.5,1.6-0.7,2.7-0.7h1.9v-1c0-0.6-0.2-1.1-0.6-1.4
		c-0.4-0.3-0.9-0.5-1.6-0.5c-0.6,0-1.2,0.2-1.6,0.5c-0.4,0.3-0.6,0.7-0.6,1.2l-0.9,0l0,0c0-0.6,0.3-1.2,0.9-1.7
		c0.6-0.5,1.4-0.7,2.3-0.7c0.9,0,1.7,0.2,2.2,0.7c0.6,0.5,0.8,1.1,0.8,2v4.1c0,0.3,0,0.6,0.1,0.9c0,0.3,0.1,0.6,0.2,0.8H230.1z
		 M227.1,103.2c0.7,0,1.3-0.2,1.8-0.5c0.5-0.3,0.9-0.7,1.1-1.2v-1.8h-1.9c-0.8,0-1.5,0.2-2,0.5c-0.5,0.4-0.8,0.8-0.8,1.3
		c0,0.5,0.2,0.8,0.5,1.1S226.5,103.2,227.1,103.2z"/>
	<path d="M234,103.8v-7.6h-1.4v-0.8h1.4v-1.2c0-0.8,0.2-1.5,0.6-2c0.4-0.5,1-0.7,1.8-0.7c0.2,0,0.3,0,0.5,0c0.2,0,0.4,0.1,0.5,0.1
		l-0.1,0.8c-0.1,0-0.3-0.1-0.4-0.1c-0.1,0-0.3,0-0.5,0c-0.5,0-0.9,0.2-1.2,0.5c-0.3,0.3-0.4,0.8-0.4,1.4v1.2h2v0.8h-2v7.6H234z"/>
	<path d="M241.5,104c-1.1,0-1.9-0.4-2.6-1.2c-0.7-0.8-1-1.8-1-3v-0.4c0-1.2,0.3-2.2,1-3c0.7-0.8,1.5-1.2,2.5-1.2c1,0,1.8,0.3,2.4,1
		c0.6,0.7,0.9,1.5,0.9,2.6v0.8h-5.9v0.2c0,0.9,0.3,1.7,0.8,2.4c0.5,0.6,1.2,1,2,1c0.6,0,1.1-0.1,1.5-0.2c0.4-0.2,0.8-0.4,1-0.7
		l0.4,0.6c-0.3,0.3-0.7,0.6-1.2,0.8C242.8,103.9,242.2,104,241.5,104z M241.4,96.1c-0.7,0-1.3,0.3-1.7,0.8c-0.5,0.5-0.7,1.2-0.8,2
		l0,0h4.9v-0.2c0-0.7-0.2-1.3-0.6-1.8S242.2,96.1,241.4,96.1z"/>
	<path d="M252.2,97.6c-0.4-0.5-0.7-1-0.9-1.4c-0.2-0.4-0.3-0.9-0.3-1.3c0-0.8,0.2-1.4,0.7-1.9c0.5-0.4,1.1-0.7,1.9-0.7
		c0.7,0,1.3,0.2,1.8,0.6c0.4,0.4,0.7,0.9,0.7,1.6c0,0.5-0.1,0.9-0.3,1.2c-0.2,0.3-0.6,0.7-1,1l-1.2,0.9l3.2,3.7
		c0.3-0.4,0.5-0.8,0.6-1.2s0.2-0.9,0.2-1.5h0.9c0,0.7-0.1,1.3-0.3,1.8c-0.2,0.6-0.5,1.1-0.8,1.5l1.4,1.7l0,0h-1.1l-0.9-1.1
		c-0.4,0.4-0.9,0.7-1.4,0.9c-0.5,0.2-1.1,0.3-1.7,0.3c-1.1,0-1.9-0.3-2.6-0.8c-0.6-0.6-0.9-1.3-0.9-2.2c0-0.6,0.2-1.2,0.6-1.7
		c0.4-0.5,0.9-1,1.6-1.5L252.2,97.6z M253.4,103.2c0.5,0,0.9-0.1,1.4-0.3c0.5-0.2,0.9-0.5,1.2-0.8l-3.2-3.7c0,0,0,0-0.1-0.1
		c0,0,0,0,0-0.1l-0.4,0.3c-0.6,0.5-1,0.9-1.2,1.3c-0.2,0.4-0.3,0.8-0.3,1.1c0,0.6,0.2,1.2,0.7,1.6C252,103,252.6,103.2,253.4,103.2z
		 M251.9,94.9c0,0.3,0.1,0.7,0.2,1.1c0.2,0.4,0.4,0.8,0.7,1.2l1.4-1c0.3-0.2,0.5-0.5,0.6-0.7s0.2-0.5,0.2-0.8c0-0.4-0.1-0.7-0.4-1
		s-0.7-0.4-1.1-0.4c-0.5,0-0.9,0.2-1.2,0.5C252.1,94,251.9,94.4,251.9,94.9z"/>
	<path d="M270.4,100.7h-5.2l-1.2,3.2h-1l4.3-11.3h0.9l4.3,11.3h-1L270.4,100.7z M265.5,99.8h4.6l-2.3-6.1h0L265.5,99.8z"/>
	<path d="M277.1,103.2c0.6,0,1.2-0.2,1.6-0.5c0.5-0.4,0.7-0.8,0.7-1.5h0.8l0,0c0,0.8-0.3,1.4-0.9,1.9c-0.6,0.5-1.4,0.8-2.2,0.8
		c-1.1,0-2-0.4-2.7-1.2c-0.6-0.8-0.9-1.8-0.9-3v-0.3c0-1.2,0.3-2.2,0.9-3c0.6-0.8,1.5-1.2,2.6-1.2c0.9,0,1.7,0.3,2.3,0.8
		c0.6,0.5,0.9,1.3,0.9,2.1l0,0h-0.8c0-0.7-0.2-1.2-0.7-1.6c-0.5-0.4-1-0.6-1.7-0.6c-0.9,0-1.6,0.3-2,1c-0.4,0.6-0.6,1.5-0.6,2.4v0.3
		c0,1,0.2,1.8,0.6,2.5C275.5,102.9,276.2,103.2,277.1,103.2z"/>
	<path d="M285.4,103.2c0.6,0,1.2-0.2,1.6-0.5c0.5-0.4,0.7-0.8,0.7-1.5h0.8l0,0c0,0.8-0.3,1.4-0.9,1.9c-0.6,0.5-1.4,0.8-2.2,0.8
		c-1.1,0-2-0.4-2.7-1.2c-0.6-0.8-0.9-1.8-0.9-3v-0.3c0-1.2,0.3-2.2,0.9-3c0.6-0.8,1.5-1.2,2.6-1.2c0.9,0,1.7,0.3,2.3,0.8
		c0.6,0.5,0.9,1.3,0.9,2.1l0,0h-0.8c0-0.7-0.2-1.2-0.7-1.6c-0.5-0.4-1-0.6-1.7-0.6c-0.9,0-1.6,0.3-2,1c-0.4,0.6-0.6,1.5-0.6,2.4v0.3
		c0,1,0.2,1.8,0.6,2.5C283.8,102.9,284.5,103.2,285.4,103.2z"/>
	<path d="M293.6,104c-1.1,0-1.9-0.4-2.6-1.2s-1-1.8-1-3v-0.4c0-1.2,0.3-2.2,1-3s1.5-1.2,2.5-1.2c1,0,1.8,0.3,2.4,1
		c0.6,0.7,0.9,1.5,0.9,2.6v0.8h-5.9v0.2c0,0.9,0.3,1.7,0.8,2.4c0.5,0.6,1.2,1,2,1c0.6,0,1.1-0.1,1.5-0.2c0.4-0.2,0.8-0.4,1-0.7
		l0.4,0.6c-0.3,0.3-0.7,0.6-1.2,0.8C294.9,103.9,294.3,104,293.6,104z M293.5,96.1c-0.7,0-1.3,0.3-1.7,0.8c-0.5,0.5-0.7,1.2-0.8,2
		l0,0h4.9v-0.2c0-0.7-0.2-1.3-0.6-1.8C294.8,96.3,294.3,96.1,293.5,96.1z"/>
	<path d="M303.7,101.7c0-0.4-0.2-0.7-0.5-1c-0.3-0.3-0.9-0.5-1.8-0.7c-1-0.2-1.7-0.5-2.2-0.9c-0.5-0.4-0.7-0.9-0.7-1.5
		c0-0.6,0.3-1.2,0.8-1.6c0.5-0.4,1.3-0.7,2.1-0.7c0.9,0,1.7,0.2,2.3,0.7c0.6,0.5,0.8,1.1,0.8,1.8l0,0h-0.9c0-0.5-0.2-0.9-0.6-1.2
		c-0.4-0.3-0.9-0.5-1.6-0.5c-0.7,0-1.2,0.1-1.5,0.4s-0.5,0.6-0.5,1c0,0.4,0.1,0.7,0.4,1c0.3,0.3,0.9,0.5,1.8,0.7
		c1,0.2,1.7,0.5,2.2,0.9s0.7,0.9,0.7,1.6c0,0.7-0.3,1.3-0.9,1.7c-0.6,0.4-1.3,0.7-2.2,0.7c-1,0-1.8-0.2-2.4-0.7
		c-0.6-0.5-0.9-1.1-0.8-1.7l0,0h0.9c0,0.6,0.3,1,0.7,1.3c0.5,0.3,1,0.4,1.6,0.4c0.7,0,1.2-0.1,1.6-0.4
		C303.5,102.5,303.7,102.1,303.7,101.7z"/>
	<path d="M311.8,101.7c0-0.4-0.2-0.7-0.5-1c-0.3-0.3-0.9-0.5-1.8-0.7c-1-0.2-1.7-0.5-2.2-0.9c-0.5-0.4-0.7-0.9-0.7-1.5
		c0-0.6,0.3-1.2,0.8-1.6c0.5-0.4,1.3-0.7,2.1-0.7c0.9,0,1.7,0.2,2.3,0.7c0.6,0.5,0.8,1.1,0.8,1.8l0,0h-0.9c0-0.5-0.2-0.9-0.6-1.2
		c-0.4-0.3-0.9-0.5-1.6-0.5c-0.7,0-1.2,0.1-1.5,0.4s-0.5,0.6-0.5,1c0,0.4,0.1,0.7,0.4,1c0.3,0.3,0.9,0.5,1.8,0.7
		c1,0.2,1.7,0.5,2.2,0.9s0.7,0.9,0.7,1.6c0,0.7-0.3,1.3-0.9,1.7c-0.6,0.4-1.3,0.7-2.2,0.7c-1,0-1.8-0.2-2.4-0.7
		c-0.6-0.5-0.9-1.1-0.8-1.7l0,0h0.9c0,0.6,0.3,1,0.7,1.3c0.5,0.3,1,0.4,1.6,0.4c0.7,0,1.2-0.1,1.6-0.4
		C311.6,102.5,311.8,102.1,311.8,101.7z"/>
	<path d="M315.9,93H315v-1.3h0.9V93z M315.9,103.8H315v-8.4h0.9V103.8z"/>
	<path d="M325.3,99.8c0,1.3-0.3,2.3-0.9,3s-1.4,1.1-2.4,1.1c-0.6,0-1.1-0.1-1.6-0.4s-0.8-0.6-1.1-1.1l-0.1,1.3h-0.8V91.7h0.9v5
		c0.3-0.5,0.6-0.8,1.1-1.1c0.4-0.3,1-0.4,1.6-0.4c1,0,1.8,0.4,2.4,1.2s0.9,1.9,0.9,3.2V99.8z M324.3,99.7c0-1.1-0.2-2-0.6-2.6
		c-0.4-0.7-1-1-1.8-1c-0.6,0-1.2,0.2-1.6,0.5c-0.4,0.3-0.7,0.7-0.9,1.2v3.8c0.2,0.5,0.5,0.9,0.9,1.2c0.4,0.3,0.9,0.4,1.5,0.4
		c0.8,0,1.4-0.3,1.8-0.9c0.4-0.6,0.6-1.4,0.6-2.4V99.7z"/>
	<path d="M328.4,103.8h-0.9V91.7h0.9V103.8z"/>
	<path d="M334.1,104c-1.1,0-1.9-0.4-2.6-1.2c-0.7-0.8-1-1.8-1-3v-0.4c0-1.2,0.3-2.2,1-3c0.7-0.8,1.5-1.2,2.5-1.2c1,0,1.8,0.3,2.4,1
		c0.6,0.7,0.9,1.5,0.9,2.6v0.8h-5.9v0.2c0,0.9,0.3,1.7,0.8,2.4c0.5,0.6,1.2,1,2,1c0.6,0,1.1-0.1,1.5-0.2c0.4-0.2,0.8-0.4,1-0.7
		l0.4,0.6c-0.3,0.3-0.7,0.6-1.2,0.8C335.3,103.9,334.8,104,334.1,104z M334,96.1c-0.7,0-1.3,0.3-1.7,0.8c-0.5,0.5-0.7,1.2-0.8,2l0,0
		h4.9v-0.2c0-0.7-0.2-1.3-0.6-1.8S334.7,96.1,334,96.1z"/>
	<path d="M350.8,93.3h-3.9v10.5H346V93.3h-3.9v-0.8h8.7V93.3z"/>
	<path d="M351.1,99.5c0-1.2,0.3-2.3,1-3s1.6-1.2,2.7-1.2c1.1,0,2,0.4,2.7,1.2c0.7,0.8,1,1.8,1,3v0.3c0,1.2-0.3,2.3-1,3
		c-0.7,0.8-1.6,1.2-2.7,1.2c-1.1,0-2-0.4-2.7-1.2c-0.7-0.8-1-1.8-1-3V99.5z M352.1,99.7c0,1,0.2,1.8,0.7,2.5c0.5,0.7,1.2,1,2.1,1
		c0.9,0,1.5-0.3,2-1c0.5-0.7,0.7-1.5,0.7-2.5v-0.3c0-1-0.2-1.8-0.7-2.4c-0.5-0.7-1.2-1-2-1c-0.9,0-1.6,0.3-2,1
		c-0.5,0.7-0.7,1.5-0.7,2.4V99.7z"/>
	<path d="M370.7,100.7h-5.2l-1.2,3.2h-1l4.3-11.3h0.9l4.3,11.3h-1L370.7,100.7z M365.8,99.8h4.6l-2.3-6.1h0L365.8,99.8z"/>
	<path d="M375.3,103.8h-0.9V91.7h0.9V103.8z"/>
	<path d="M379,103.8H378V91.7h0.9V103.8z"/>
</g>
<g>
</g>
<g>
</g>
<g>
</g>
<g>
</g>
<g>
</g>
<g>
</g>
</svg>
