<svg id="Layer_1" data-name="Layer 1" xmlns="http://www.w3.org/2000/svg" width="13.93cm" height="2.43cm" viewBox="0 0 395 69"><defs><style>.cls-1{fill:#1676a3;}.cls-2{fill:#fff;}</style></defs><title>logo-em</title><path class="cls-1" d="M68.9,34.5A34.45,34.45,0,1,1,34.5,0,34.5,34.5,0,0,1,68.9,34.5"/><path class="cls-2" d="M31.3,33.7H26.1V30.9H26a7.79,7.79,0,0,1-2.5,2.6,4.75,4.75,0,0,1-2.5.7,4.31,4.31,0,0,1-1.7-.3,3.46,3.46,0,0,1-1.2-.7v7.4H12.6v-27H18V24.9a7,7,0,0,0,.8,3.7,2.93,2.93,0,0,0,2.7,1.2,3.9,3.9,0,0,0,3.3-1.3,7.34,7.34,0,0,0,1-4.4V13.6h5.5Z"/><path class="cls-2" d="M47.6,18.3a4.08,4.08,0,0,0-3-1.1,4.81,4.81,0,0,0-2.2.4A5.26,5.26,0,0,0,41,18.7a3.69,3.69,0,0,0-.7,1.4c-.1.5-.2.9-.3,1.3h8.9a6.33,6.33,0,0,0-1.3-3.1M41.4,28.8A4.89,4.89,0,0,0,45,30a5.47,5.47,0,0,0,2.9-.8,3.55,3.55,0,0,0,1.5-1.8h4.8a9.75,9.75,0,0,1-3.6,5.2,10.65,10.65,0,0,1-5.8,1.5,11.76,11.76,0,0,1-4.3-.8,8.92,8.92,0,0,1-3.2-2.1,7.93,7.93,0,0,1-2-3.3,11.76,11.76,0,0,1-.7-4.3,11.58,11.58,0,0,1,.7-4.2A10.78,10.78,0,0,1,37.4,16a10.16,10.16,0,0,1,3.2-2.2,11.22,11.22,0,0,1,4.2-.8,9.33,9.33,0,0,1,4.5,1,8.12,8.12,0,0,1,3.1,2.7,12.12,12.12,0,0,1,1.8,3.8,13.28,13.28,0,0,1,.4,4.5H40c.1,1.8.5,3,1.4,3.8"/><path class="cls-2" d="M25.2,39.4v2.7h.1a8.48,8.48,0,0,1,2.6-2.4,6.76,6.76,0,0,1,3.5-.9,8.12,8.12,0,0,1,3.5.7,5.56,5.56,0,0,1,2.4,2.6,7.56,7.56,0,0,1,2.4-2.3,6.09,6.09,0,0,1,3.6-1,8.85,8.85,0,0,1,2.9.4,7.14,7.14,0,0,1,2.3,1.2A5.74,5.74,0,0,1,50,42.6a8.19,8.19,0,0,1,.5,3.3V59.3H45V48.1a11.48,11.48,0,0,0-.1-1.9,5.41,5.41,0,0,0-.4-1.5,2.41,2.41,0,0,0-1-1,3.42,3.42,0,0,0-1.8-.4,3.58,3.58,0,0,0-1.9.4,2.54,2.54,0,0,0-1.1,1.2,3,3,0,0,0-.5,1.6,10.87,10.87,0,0,0-.1,1.8V59.5H32.6V46.4a4.15,4.15,0,0,0-.3-1.6,2.34,2.34,0,0,0-1-1.2,3.74,3.74,0,0,0-2-.4,4.4,4.4,0,0,0-1,.2,2.52,2.52,0,0,0-1.2.7,3.88,3.88,0,0,0-1,1.4,5.46,5.46,0,0,0-.4,2.4V59.5H20v-20h5.2Z"/><path class="cls-1" d="M97.1,26.5a3.42,3.42,0,0,0-2.6-.9,3.58,3.58,0,0,0-1.9.4,4,4,0,0,0-1.2,1,3.38,3.38,0,0,0-.6,1.2,5.16,5.16,0,0,0-.2,1.1h7.8a6.09,6.09,0,0,0-1.3-2.8m-5.4,9.2a4.29,4.29,0,0,0,3.1,1,4.09,4.09,0,0,0,2.5-.7,3.5,3.5,0,0,0,1.3-1.5h4.2A8.1,8.1,0,0,1,99.7,39a9.25,9.25,0,0,1-5.1,1.4,8.73,8.73,0,0,1-3.7-.7,7.74,7.74,0,0,1-2.8-1.9,7.89,7.89,0,0,1-1.8-2.9,11,11,0,0,1-.6-3.7,10.46,10.46,0,0,1,.6-3.6,7.89,7.89,0,0,1,1.8-2.9,7.74,7.74,0,0,1,2.8-1.9,8.57,8.57,0,0,1,3.6-.7,8,8,0,0,1,3.9.9,7.54,7.54,0,0,1,2.7,2.3,9.88,9.88,0,0,1,1.5,3.3,12.38,12.38,0,0,1,.3,3.9H90.5a4.93,4.93,0,0,0,1.2,3.2"/><path class="cls-1" d="M110.6,22.4v2.4h.1a6.59,6.59,0,0,1,2.3-2.1,6.17,6.17,0,0,1,3.1-.7,7.31,7.31,0,0,1,3,.6,4.34,4.34,0,0,1,2.1,2.3,6.73,6.73,0,0,1,2.1-2,5.49,5.49,0,0,1,3.2-.9,10.9,10.9,0,0,1,2.6.3,4.94,4.94,0,0,1,3.3,3,8.36,8.36,0,0,1,.5,2.9V39.9h-4.8V30a9.7,9.7,0,0,0-.1-1.7,3.26,3.26,0,0,0-.4-1.4,2,2,0,0,0-.9-.9,3.51,3.51,0,0,0-1.6-.3,2.54,2.54,0,0,0-1.6.4,4.74,4.74,0,0,0-1,1,5.78,5.78,0,0,0-.5,1.4,8.6,8.6,0,0,0-.1,1.6v9.7H117V28.5a3.19,3.19,0,0,0-.3-1.4,2.72,2.72,0,0,0-.8-1,2.86,2.86,0,0,0-1.7-.4,5.07,5.07,0,0,0-.9.2,3,3,0,0,0-1.1.6,6.23,6.23,0,0,0-.9,1.2,5.58,5.58,0,0,0-.4,2.1V39.9h-4.8V22.4Z"/><path class="cls-1" d="M150.6,22.4v2.4h.1a6.59,6.59,0,0,1,2.3-2.1,6.17,6.17,0,0,1,3.1-.7,7.31,7.31,0,0,1,3,.6,4.34,4.34,0,0,1,2.1,2.3,6.73,6.73,0,0,1,2.1-2,5.49,5.49,0,0,1,3.2-.9,10.9,10.9,0,0,1,2.6.3,4.94,4.94,0,0,1,3.3,3,8.36,8.36,0,0,1,.5,2.9V39.9h-4.8V30a9.7,9.7,0,0,0-.1-1.7,3.26,3.26,0,0,0-.4-1.4,2,2,0,0,0-.9-.9,3.51,3.51,0,0,0-1.6-.3,2.54,2.54,0,0,0-1.6.4,4.74,4.74,0,0,0-1,1,5.78,5.78,0,0,0-.5,1.4,8.6,8.6,0,0,0-.1,1.6v9.7H157V28.5a3.19,3.19,0,0,0-.3-1.4,2.72,2.72,0,0,0-.8-1,2.86,2.86,0,0,0-1.7-.4,5.07,5.07,0,0,0-.9.2,3,3,0,0,0-1.1.6,6.23,6.23,0,0,0-.9,1.2,5.58,5.58,0,0,0-.4,2.1V39.9H146V22.4Z"/><path class="cls-1" d="M181.4,39.9h-4.8V22.4h4.8Zm-4.8-24.1h4.8v4h-4.8Z"/><path class="cls-1" d="M193.5,25.6a3.56,3.56,0,0,0-1.9.5,5.35,5.35,0,0,0-1.3,1.3,6.7,6.7,0,0,0-.7,1.8,12.31,12.31,0,0,0-.2,2,12.25,12.25,0,0,0,.2,1.9,6.7,6.7,0,0,0,.7,1.8,3.74,3.74,0,0,0,1.2,1.3,3.56,3.56,0,0,0,1.9.5,3.25,3.25,0,0,0,2.6-1,4.85,4.85,0,0,0,1.2-2.6h4.6a7.79,7.79,0,0,1-2.7,5.3,8.84,8.84,0,0,1-5.7,1.8,8.57,8.57,0,0,1-3.6-.7,9,9,0,0,1-2.8-1.8,7.5,7.5,0,0,1-1.8-2.8,10.46,10.46,0,0,1-.6-3.6,11.64,11.64,0,0,1,.6-3.8,8.72,8.72,0,0,1,1.7-3,9.51,9.51,0,0,1,2.8-2,9.2,9.2,0,0,1,3.8-.7,9.86,9.86,0,0,1,5.6,1.6,5.2,5.2,0,0,1,1.8,2.1,6.56,6.56,0,0,1,.8,2.9H197c-.2-1.8-1.4-2.8-3.5-2.8"/><path class="cls-1" d="M209.1,22.4v3.2h.1a6,6,0,0,1,.9-1.5,4.89,4.89,0,0,1,1.3-1.2,8,8,0,0,1,1.6-.8,5.23,5.23,0,0,1,1.8-.3,3.55,3.55,0,0,1,1,.2v4.5c-.2,0-.5-.1-.8-.1s-.6-.1-.9-.1a4.81,4.81,0,0,0-2.2.4,4.43,4.43,0,0,0-1.5,1.2,4.94,4.94,0,0,0-.8,1.8,7.84,7.84,0,0,0-.2,2.2v7.9h-4.8V22.4Z"/><path class="cls-1" d="M221.6,33.2a4.84,4.84,0,0,0,.7,1.8,4,4,0,0,0,1.3,1.3,4.25,4.25,0,0,0,4,0,2.74,2.74,0,0,0,1.3-1.3,4.84,4.84,0,0,0,.7-1.8,13.55,13.55,0,0,0,.2-2,14.92,14.92,0,0,0-.2-2.1,4.84,4.84,0,0,0-.7-1.8,5.35,5.35,0,0,0-1.3-1.3,4.23,4.23,0,0,0-2-.5,3.94,3.94,0,0,0-2,.5,3.25,3.25,0,0,0-1.3,1.3,4.84,4.84,0,0,0-.7,1.8,14.92,14.92,0,0,0-.2,2.1,6.8,6.8,0,0,0,.2,2m-4.4-5.8a7.89,7.89,0,0,1,1.8-2.9,9.23,9.23,0,0,1,2.8-1.9,10.6,10.6,0,0,1,3.7-.7,8.73,8.73,0,0,1,3.7.7,8.12,8.12,0,0,1,2.9,1.9,7.89,7.89,0,0,1,1.8,2.9,11.22,11.22,0,0,1,.6,3.8,11.22,11.22,0,0,1-.6,3.8,7.89,7.89,0,0,1-1.8,2.9,7.15,7.15,0,0,1-2.9,1.8,11,11,0,0,1-3.7.6,10.64,10.64,0,0,1-3.7-.6,7.5,7.5,0,0,1-2.8-1.8,7.89,7.89,0,0,1-1.8-2.9,11.22,11.22,0,0,1-.6-3.8,11.22,11.22,0,0,1,.6-3.8"/><path class="cls-1" d="M248.3,26.5a3.42,3.42,0,0,0-2.6-.9,3.58,3.58,0,0,0-1.9.4,4,4,0,0,0-1.2,1,3.38,3.38,0,0,0-.6,1.2,5.16,5.16,0,0,0-.2,1.1h7.8a9.18,9.18,0,0,0-1.3-2.8m-5.4,9.2a4.29,4.29,0,0,0,3.1,1,4.09,4.09,0,0,0,2.5-.7,3.5,3.5,0,0,0,1.3-1.5H254a8.1,8.1,0,0,1-3.1,4.5,9.25,9.25,0,0,1-5.1,1.4,8.73,8.73,0,0,1-3.7-.7,7.74,7.74,0,0,1-2.8-1.9,7.89,7.89,0,0,1-1.8-2.9,11,11,0,0,1-.6-3.7,10.46,10.46,0,0,1,.6-3.6,7.89,7.89,0,0,1,1.8-2.9,7.74,7.74,0,0,1,2.8-1.9,8.57,8.57,0,0,1,3.6-.7,8,8,0,0,1,3.9.9,7.54,7.54,0,0,1,2.7,2.3,9.88,9.88,0,0,1,1.5,3.3,12.38,12.38,0,0,1,.3,3.9H241.5a5,5,0,0,0,1.4,3.2"/><rect class="cls-1" x="257.2" y="15.8" width="4.8" height="24.1"/><path class="cls-1" d="M276.4,26.5a3.42,3.42,0,0,0-2.6-.9,3.58,3.58,0,0,0-1.9.4,4,4,0,0,0-1.2,1,3.38,3.38,0,0,0-.6,1.2,5.16,5.16,0,0,0-.2,1.1h7.8a9.18,9.18,0,0,0-1.3-2.8m-5.5,9.2a4.29,4.29,0,0,0,3.1,1,4.09,4.09,0,0,0,2.5-.7,3.5,3.5,0,0,0,1.3-1.5H282a8.1,8.1,0,0,1-3.1,4.5,9.25,9.25,0,0,1-5.1,1.4,8.73,8.73,0,0,1-3.7-.7,7.74,7.74,0,0,1-2.8-1.9,7.89,7.89,0,0,1-1.8-2.9,11,11,0,0,1-.6-3.7,10.46,10.46,0,0,1,.6-3.6,7.89,7.89,0,0,1,1.8-2.9,7.74,7.74,0,0,1,2.8-1.9,8.57,8.57,0,0,1,3.6-.7,8,8,0,0,1,3.9.9,7.54,7.54,0,0,1,2.7,2.3,9.88,9.88,0,0,1,1.5,3.3,12.38,12.38,0,0,1,.3,3.9H269.5a6.34,6.34,0,0,0,1.4,3.2"/><path class="cls-1" d="M293.5,25.6a3.56,3.56,0,0,0-1.9.5,5.35,5.35,0,0,0-1.3,1.3,6.7,6.7,0,0,0-.7,1.8,13.55,13.55,0,0,0-.2,2,12.25,12.25,0,0,0,.2,1.9,5.63,5.63,0,0,0,.7,1.8,3.74,3.74,0,0,0,1.2,1.3,3.56,3.56,0,0,0,1.9.5,3.25,3.25,0,0,0,2.6-1,4.85,4.85,0,0,0,1.2-2.6h4.6a7.79,7.79,0,0,1-2.7,5.3,8.84,8.84,0,0,1-5.7,1.8,8.57,8.57,0,0,1-3.6-.7,9,9,0,0,1-2.8-1.8,7.5,7.5,0,0,1-1.8-2.8,10.46,10.46,0,0,1-.6-3.6,11.64,11.64,0,0,1,.6-3.8,8.72,8.72,0,0,1,1.7-3,9.51,9.51,0,0,1,2.8-2,9.2,9.2,0,0,1,3.8-.7,9.86,9.86,0,0,1,5.6,1.6,5.2,5.2,0,0,1,1.8,2.1,6.56,6.56,0,0,1,.8,2.9H297c-.2-1.8-1.4-2.8-3.5-2.8"/><path class="cls-1" d="M314.2,22.4v3.2h-3.5v8.6c0,.8.1,1.4.4,1.6a2.2,2.2,0,0,0,1.6.4h.8c.2,0,.5-.1.7-.1v3.7a6.15,6.15,0,0,1-1.4.1h-1.5a14.92,14.92,0,0,1-2.1-.2,5.46,5.46,0,0,1-1.8-.6,2.54,2.54,0,0,1-1.2-1.3,4.14,4.14,0,0,1-.4-2.1V25.6h-2.9V22.4h2.9V17.2h4.8v5.2Z"/><path class="cls-1" d="M321,22.4v3.2h.1a6,6,0,0,1,.9-1.5,4.89,4.89,0,0,1,1.3-1.2,8,8,0,0,1,1.6-.8,5.23,5.23,0,0,1,1.8-.3,3.55,3.55,0,0,1,1,.2v4.5c-.2,0-.5-.1-.8-.1s-.6-.1-.9-.1a4.81,4.81,0,0,0-2.2.4,4.43,4.43,0,0,0-1.5,1.2,4.94,4.94,0,0,0-.8,1.8,7.84,7.84,0,0,0-.2,2.2v7.9h-4.8V22.4Z"/><path class="cls-1" d="M333.4,33.2a4.84,4.84,0,0,0,.7,1.8,4,4,0,0,0,1.3,1.3,4.25,4.25,0,0,0,4,0,2.74,2.74,0,0,0,1.3-1.3,4.84,4.84,0,0,0,.7-1.8,13.55,13.55,0,0,0,.2-2,14.92,14.92,0,0,0-.2-2.1,4.84,4.84,0,0,0-.7-1.8,5.35,5.35,0,0,0-1.3-1.3,4.23,4.23,0,0,0-2-.5,3.94,3.94,0,0,0-2,.5,3.25,3.25,0,0,0-1.3,1.3,4.84,4.84,0,0,0-.7,1.8,14.92,14.92,0,0,0-.2,2.1,13.55,13.55,0,0,0,.2,2m-4.3-5.8a7.89,7.89,0,0,1,1.8-2.9,9.23,9.23,0,0,1,2.8-1.9,10.6,10.6,0,0,1,3.7-.7,8.73,8.73,0,0,1,3.7.7,8.12,8.12,0,0,1,2.9,1.9,7.89,7.89,0,0,1,1.8,2.9,11.22,11.22,0,0,1,.6,3.8,11.22,11.22,0,0,1-.6,3.8,7.89,7.89,0,0,1-1.8,2.9,7.15,7.15,0,0,1-2.9,1.8,11.71,11.71,0,0,1-7.4,0,7.5,7.5,0,0,1-2.8-1.8,7.89,7.89,0,0,1-1.8-2.9,11.22,11.22,0,0,1-.6-3.8,7.82,7.82,0,0,1,.6-3.8"/><path class="cls-1" d="M354.2,22.4v2.4h.1a5.65,5.65,0,0,1,2.4-2.2,6.58,6.58,0,0,1,3-.7,9.77,9.77,0,0,1,3.2.5,3.58,3.58,0,0,1,1.9,1.5,5.37,5.37,0,0,1,1,2.3,13.86,13.86,0,0,1,.3,3V39.9h-4.8V30a5.63,5.63,0,0,0-.7-3.2,2.66,2.66,0,0,0-2.4-1.1,3.23,3.23,0,0,0-2.8,1.2,6.45,6.45,0,0,0-.9,3.8v9.1h-4.8V22.4Z"/><path class="cls-1" d="M374.5,39.9h-4.8V22.4h4.8Zm-4.8-24.1h4.8v4h-4.8Z"/><path class="cls-1" d="M386.7,25.6a3.56,3.56,0,0,0-1.9.5,5.35,5.35,0,0,0-1.3,1.3,6.7,6.7,0,0,0-.7,1.8,13.55,13.55,0,0,0-.2,2,12.25,12.25,0,0,0,.2,1.9,5.63,5.63,0,0,0,.7,1.8,3.74,3.74,0,0,0,1.2,1.3,3.56,3.56,0,0,0,1.9.5,3.25,3.25,0,0,0,2.6-1,4.85,4.85,0,0,0,1.2-2.6H395a7.79,7.79,0,0,1-2.7,5.3,8.84,8.84,0,0,1-5.7,1.8,8.57,8.57,0,0,1-3.6-.7,9,9,0,0,1-2.8-1.8,7.5,7.5,0,0,1-1.8-2.8,10.46,10.46,0,0,1-.6-3.6,11.64,11.64,0,0,1,.6-3.8,8.72,8.72,0,0,1,1.7-3,9.51,9.51,0,0,1,2.8-2,9.2,9.2,0,0,1,3.8-.7,9.86,9.86,0,0,1,5.6,1.6,5.2,5.2,0,0,1,1.8,2.1,6.56,6.56,0,0,1,.8,2.9h-4.7a3.17,3.17,0,0,0-3.5-2.8"/></svg>