<svg xmlns="http://www.w3.org/2000/svg" viewBox="0 0 841.89 595.28"><defs><style>.cls-1{isolation:isolate;}.cls-2{fill:#24a21d;}.cls-3{fill:#fff;opacity:0.2;mix-blend-mode:overlay;}.cls-4{fill:#636670;}</style></defs><title>Greenwaves_logo_V2</title><g class="cls-1"><g id="Layer_1" data-name="Layer 1"><path class="cls-2" d="M649.4,256.6s-36.24,27.71-19.87,64.6c15.6,35.16-14.1,54.64-14.1,54.64s49.78-24.7,30.61-68.94C631.5,273.37,649.4,256.6,649.4,256.6Z"/><path class="cls-2" d="M697.1,216.45S648,257,672.72,307.54c23.55,48.22-16.87,76.89-16.87,76.89s68.15-37,39.15-97.67C673,240.76,697.1,216.45,697.1,216.45Z"/><path class="cls-2" d="M756,183.9s-65.74,50.49-30.43,118.78c33.71,65.19-20.84,100.2-20.84,100.2S798,373.22,760.42,281C735.43,219.58,756,183.9,756,183.9Z"/><path class="cls-3" d="M717.49,281.34a150,150,0,0,0,7.58,20.32l.5,1q1.47,2.83,2.71,5.59C710.81,250.66,756,183.9,756,183.9S703.63,224.13,717.49,281.34Z"/><path class="cls-3" d="M746,305.42c-22.8-52.57-1.43-102.86,6.68-118.74-12.86,11.43-57.6,57.08-27.14,116,33.71,65.19-20.84,100.2-20.84,100.2h0C729.81,386.87,766.92,353.62,746,305.42Z"/><path class="cls-3" d="M672.72,307.54a79.83,79.83,0,0,1,4.38,10.88h0c-12.39-43.8,5.69-80,15-94.8a35,35,0,0,1,5-7.18S648,257,672.72,307.54Z"/><path class="cls-3" d="M673.69,246.73c-8,16.09-12.43,37.36-1,60.81,10.84,22.2,8.12,40.25,2,53.27a24.6,24.6,0,0,0,2.42-3.27C699,323,673.69,246.74,673.69,246.73Z"/><polygon class="cls-3" points="634.03 339.41 634.03 339.41 634.03 339.4 634.03 339.41"/><path class="cls-3" d="M629.53,321.2c.73,1.65,1.33,3.24,1.87,4.82C627,293,639.68,270.1,646,261a23.89,23.89,0,0,1,3.38-4.38S613.16,284.31,629.53,321.2Z"/><path class="cls-3" d="M629.86,281.64c-4.89,10.78-7.06,24.39-.33,39.56,13.9,31.32-8.13,50.18-13.12,53.93C654.78,347.62,636.57,297,629.86,281.64Z"/><path class="cls-4" d="M85.39,334.82A35.11,35.11,0,0,1,76,336a28.13,28.13,0,0,1-9.23-1.56,25,25,0,0,1-8.11-4.56,22.65,22.65,0,0,1-5.79-7.49,23.24,23.24,0,0,1-2.21-10.43A22.91,22.91,0,0,1,53,301.44a23.69,23.69,0,0,1,5.87-7.5,25,25,0,0,1,8-4.52,26.68,26.68,0,0,1,8.77-1.52,33.64,33.64,0,0,1,8.59,1,21.76,21.76,0,0,1,6.34,2.68l-1.3,6.09A22.23,22.23,0,0,0,83.39,295a23.54,23.54,0,0,0-7-1,21.32,21.32,0,0,0-6.75,1.12,18.31,18.31,0,0,0-6,3.37,17.09,17.09,0,0,0-4.28,5.61,20.18,20.18,0,0,0,0,15.82,16.72,16.72,0,0,0,10.2,8.91,22.31,22.31,0,0,0,6.93,1.09q6.39,0,9.8-2.39v-9.63H75.65v-5.72H92.88V331A20.6,20.6,0,0,1,85.39,334.82Z"/><path class="cls-4" d="M144.22,335.11l-14.55-20.27h-6.52v20.27h-7v-46.2h14.63a15.93,15.93,0,0,1,4.92.8,13.87,13.87,0,0,1,4.45,2.39,12.15,12.15,0,0,1,4.53,9.77,11.71,11.71,0,0,1-2.35,7.57,13.93,13.93,0,0,1-5.76,4.31l15.79,21.36ZM137,298.76a6.14,6.14,0,0,0-1.77-2.17,7.69,7.69,0,0,0-2.57-1.3,10.32,10.32,0,0,0-3-.44h-6.45v14h6.45a11,11,0,0,0,3-.4,7.28,7.28,0,0,0,2.57-1.27A5.94,5.94,0,0,0,137,305a7,7,0,0,0,.66-3.15A6.83,6.83,0,0,0,137,298.76Z"/><path class="cls-4" d="M170.94,335.11v-46.2h25v6H178v14h15v6H178V329.1h20.42v6Z"/><path class="cls-4" d="M219.1,335.11v-46.2h25v6H226.2v14h15v6h-15V329.1h20.42v6Z"/><path class="cls-4" d="M306.58,336.12,285,312.45q-2.6-2.83-5.42-6.08c-1.87-2.18-3.61-4.21-5.2-6.09l-.14.07q.14,3.19.14,6.09v28.67h-7.1v-46.2h4.85l19.8,21.73c.67.72,1.42,1.55,2.23,2.49s1.67,1.9,2.53,2.87,1.73,1.94,2.57,2.93l2.35,2.79.14-.08c-.09-1.78-.14-3.62-.14-5.5V288.91h7.09v47.21Z"/><path class="cls-2" d="M375.44,335.76h-2.39l-8.62-24.69c-.63-1.78-1.26-3.67-1.92-5.65s-1.34-4.22-2.06-6.73h-.15q-1.08,3.76-2.06,6.77t-1.92,5.61l-8.62,24.69h-2.39L329,288.91h7l7.46,21.29c.53,1.55,1.11,3.22,1.74,5s1.18,3.66,1.67,5.54H347q.79-2.82,1.67-5.54c.58-1.81,1.13-3.48,1.66-5l7.39-21.29h6l7.46,21.29c.53,1.5,1.07,3.16,1.63,5s1.09,3.69,1.62,5.57h.15q.72-2.75,1.67-5.57t1.73-5l7.46-21.29h6.45Z"/><path class="cls-2" d="M440.1,335.11l-5-11.95h-18l-5,11.95h-6.88L425,288.26h2.53l19.7,46.85Zm-11.94-28.82c-.34-.77-.68-1.66-1-2.68s-.65-2-.94-3h-.15q-.36,1.46-.9,3c-.36,1-.71,1.91-1,2.68l-4.56,11.3h13.18Z"/><path class="cls-2" d="M480.58,335.76h-2.24L460,288.91h7.38l8.55,22q.93,2.38,1.92,5.21c.65,1.88,1.29,3.82,1.91,5.79h.15c.63-1.93,1.25-3.82,1.88-5.68s1.28-3.63,2-5.32l8.54-22h6.66Z"/><path class="cls-2" d="M518.82,335.11v-46.2h25v6H525.91v14h15v6h-15V329.1h20.42v6Z"/><path class="cls-2" d="M593,327.65a11.73,11.73,0,0,1-3,4.38,14.23,14.23,0,0,1-5,2.87,21.44,21.44,0,0,1-6.88,1,24.69,24.69,0,0,1-6.95-.94,18.53,18.53,0,0,1-5-2.17l-1.59-7.68a28,28,0,0,0,6.72,3.51,21.24,21.24,0,0,0,7.14,1.2,9.32,9.32,0,0,0,6.21-2,6.48,6.48,0,0,0,2.31-5.21,7.08,7.08,0,0,0-1.92-5.07,14.42,14.42,0,0,0-6.09-3.4,21.7,21.7,0,0,1-9.39-5.47,11.71,11.71,0,0,1-3.17-8.22,12.59,12.59,0,0,1,.9-4.67,11.47,11.47,0,0,1,2.71-4,13.11,13.11,0,0,1,4.56-2.79,18.18,18.18,0,0,1,6.43-1,20.14,20.14,0,0,1,6.14.86,13.5,13.5,0,0,1,3.91,1.79l-1.38,5.75a16.23,16.23,0,0,0-3.68-1.77,15,15,0,0,0-5.27-.91,7.85,7.85,0,0,0-5.56,1.88,5.87,5.87,0,0,0-2,4.42q0,4.63,7.46,7.17a32.41,32.41,0,0,1,5.51,2.39,19.26,19.26,0,0,1,4.23,3.15,12.6,12.6,0,0,1,2.75,4.09,13.2,13.2,0,0,1,1,5.22A15.18,15.18,0,0,1,593,327.65Z"/><path class="cls-4" d="M332.57,354.5v14.12h-2.5V354.5h-5.21v-2.12h12.92v2.12Z"/><path class="cls-4" d="M348.44,368.62V352.38h8.78v2.12h-6.28v4.91h5.27v2.11h-5.27v5h7.17v2.11Z"/><path class="cls-4" d="M381.65,355.26a7.25,7.25,0,0,0-.74-.37,7.16,7.16,0,0,0-1-.34,9.54,9.54,0,0,0-1.14-.25,7.12,7.12,0,0,0-3.6.29,6.37,6.37,0,0,0-2.1,1.17,5.69,5.69,0,0,0-1.5,2,7.07,7.07,0,0,0,0,5.54,5.55,5.55,0,0,0,1.49,2,6.37,6.37,0,0,0,2.1,1.17,7.22,7.22,0,0,0,2.39.4,11.08,11.08,0,0,0,2.58-.28,6.85,6.85,0,0,0,1.9-.74l-.51,2.37a6,6,0,0,1-1.72.59,13.16,13.16,0,0,1-2.53.19,9.65,9.65,0,0,1-3.09-.53,8.87,8.87,0,0,1-2.83-1.59,7.9,7.9,0,0,1-2.83-6.3,8,8,0,0,1,.8-3.69,8.17,8.17,0,0,1,2.06-2.63,8.7,8.7,0,0,1,2.81-1.59,9.3,9.3,0,0,1,3.08-.54,11.23,11.23,0,0,1,2.86.32,8.09,8.09,0,0,1,1.92.75Z"/><path class="cls-4" d="M404.17,368.62v-7.1h-8.32v7.1h-2.49V352.38h2.49v7h8.32v-7h2.49v16.24Z"/><path class="cls-4" d="M432.69,369l-7.59-8.32c-.61-.66-1.24-1.37-1.9-2.13l-1.83-2.14-.05,0c0,.74.05,1.45.05,2.13v10.08h-2.49V352.38h1.7l6.95,7.64c.24.25.5.54.79.88l.89,1,.9,1,.83,1,.05,0c0-.63-.05-1.28-.05-1.94v-9.57h2.49V369Z"/><path class="cls-4" d="M461.47,364a8.11,8.11,0,0,1-2,2.64,8.74,8.74,0,0,1-2.74,1.67,9,9,0,0,1-6.34,0,8.78,8.78,0,0,1-2.75-1.67,8.22,8.22,0,0,1-1.94-2.64,8.84,8.84,0,0,1,0-7.08,8.22,8.22,0,0,1,1.94-2.64,8.6,8.6,0,0,1,2.75-1.67,8.81,8.81,0,0,1,6.34,0,8.55,8.55,0,0,1,2.74,1.67,8.11,8.11,0,0,1,2,2.64,8.84,8.84,0,0,1,0,7.08Zm-2.29-6.22a6.24,6.24,0,0,0-1.41-2,6.31,6.31,0,0,0-2-1.22,6.08,6.08,0,0,0-2.19-.42,6,6,0,0,0-5.57,3.62,6.27,6.27,0,0,0-.54,2.67,6.38,6.38,0,0,0,.54,2.68,6.05,6.05,0,0,0,7.76,3.21,6.31,6.31,0,0,0,2-1.22,6.18,6.18,0,0,0,1.41-2,6.38,6.38,0,0,0,.53-2.68A6.27,6.27,0,0,0,459.18,357.81Z"/><path class="cls-4" d="M473.79,368.62V352.38h2.49v14.13h7.15v2.11Z"/><path class="cls-4" d="M509.31,364a8.11,8.11,0,0,1-1.95,2.64,8.91,8.91,0,0,1-9.08,1.67,8.67,8.67,0,0,1-2.75-1.67,8.11,8.11,0,0,1-1.95-2.64,8.84,8.84,0,0,1,0-7.08,8.11,8.11,0,0,1,1.95-2.64,8.49,8.49,0,0,1,2.75-1.67,8.78,8.78,0,0,1,6.33,0,8.6,8.6,0,0,1,2.75,1.67,8.11,8.11,0,0,1,1.95,2.64,8.95,8.95,0,0,1,0,7.08ZM507,357.81a6.12,6.12,0,0,0-1.42-2,6.19,6.19,0,0,0-2-1.22,6.08,6.08,0,0,0-2.19-.42,6.21,6.21,0,0,0-4.17,1.64,6.22,6.22,0,0,0-1.4,2,6.43,6.43,0,0,0-.53,2.67,6.54,6.54,0,0,0,.53,2.68,6.11,6.11,0,0,0,5.57,3.63,6.08,6.08,0,0,0,2.19-.42,6.19,6.19,0,0,0,2-1.22,6.05,6.05,0,0,0,1.42-2,6.54,6.54,0,0,0,.53-2.68A6.43,6.43,0,0,0,507,357.81Z"/><path class="cls-4" d="M533.19,368.52a12.43,12.43,0,0,1-3.3.4,10,10,0,0,1-3.24-.54,8.91,8.91,0,0,1-2.85-1.61,8,8,0,0,1-2-2.63,8.28,8.28,0,0,1-.77-3.66,8,8,0,0,1,.8-3.69,8.32,8.32,0,0,1,2.06-2.64,8.93,8.93,0,0,1,2.82-1.59,9.55,9.55,0,0,1,3.08-.53,12.1,12.1,0,0,1,3,.35,7.8,7.8,0,0,1,2.23.95l-.46,2.13a8.36,8.36,0,0,0-4.51-1.3,7.46,7.46,0,0,0-2.37.4,6.4,6.4,0,0,0-2.1,1.18,6.13,6.13,0,0,0-1.51,2,6.3,6.3,0,0,0-.57,2.78,6.4,6.4,0,0,0,.56,2.77,5.74,5.74,0,0,0,1.48,2,6,6,0,0,0,2.11,1.18,8,8,0,0,0,2.43.38,6,6,0,0,0,3.45-.84v-3.39h-3.75v-2h6.06v6.62A7.23,7.23,0,0,1,533.19,368.52Z"/><path class="cls-4" d="M548.24,368.62V352.38h2.49v16.24Z"/><path class="cls-4" d="M563.3,368.62V352.38h8.78v2.12h-6.29v4.91h5.27v2.11h-5.27v5H573v2.11Z"/><path class="cls-4" d="M593.17,366a4.2,4.2,0,0,1-1.07,1.54,4.84,4.84,0,0,1-1.75,1,7.42,7.42,0,0,1-2.42.36,8.57,8.57,0,0,1-2.44-.33,6.38,6.38,0,0,1-1.76-.76l-.56-2.7a10.07,10.07,0,0,0,2.36,1.23,7.51,7.51,0,0,0,2.51.42,3.29,3.29,0,0,0,2.18-.68,2.3,2.3,0,0,0,.82-1.84,2.5,2.5,0,0,0-.68-1.78,5.08,5.08,0,0,0-2.14-1.19,7.7,7.7,0,0,1-3.3-1.93,4.09,4.09,0,0,1-1.11-2.88,4.33,4.33,0,0,1,.32-1.65,3.91,3.91,0,0,1,1-1.41,4.56,4.56,0,0,1,1.6-1,6.41,6.41,0,0,1,2.26-.37,6.83,6.83,0,0,1,2.16.31,5.11,5.11,0,0,1,1.37.62l-.48,2a5.42,5.42,0,0,0-1.3-.63,5.32,5.32,0,0,0-1.85-.31,2.74,2.74,0,0,0-2,.66,2,2,0,0,0-.71,1.55c0,1.08.87,1.92,2.62,2.52a11.8,11.8,0,0,1,1.93.84,6.85,6.85,0,0,1,1.49,1.1,4.69,4.69,0,0,1,1,1.44,4.85,4.85,0,0,1,.34,1.83A5.3,5.3,0,0,1,593.17,366Z"/></g></g></svg>