<?xml version="1.0" encoding="UTF-8"?>
<svg width="720px" height="289px" viewBox="0 0 720 289" version="1.1" xmlns="http://www.w3.org/2000/svg" xmlns:xlink="http://www.w3.org/1999/xlink" xmlns:sketch="http://www.bohemiancoding.com/sketch/ns">
    <!-- Generator: Sketch 3.3.3 (12072) - http://www.bohemiancoding.com/sketch -->
    <title>Untitled</title>
    <desc>Created with Sketch.</desc>
    <defs></defs>
    <g id="Page-1" stroke="none" stroke-width="1" fill="none" fill-rule="evenodd" sketch:type="MSPage">
        <g id="greenwaves" sketch:type="MSLayerGroup">
            <g id="Layer_1" sketch:type="MSShapeGroup">
                <path d="M599.4,142.6 C-50,-114 563.16,170.31 579.53,207.2 C595.13,242.36 565.43,261.84 565.43,261.84 C565.43,261.84 615.21,237.14 596.04,192.9 C581.5,159.37 599.4,142.6 599.4,142.6 L599.4,142.6 Z" id="Shape" fill="#24A21D"></path>
                <path d="M647.1,102.45 C-50,-114 598,143 622.72,193.54 C646.27,241.76 605.85,270.43 605.85,270.43 C605.85,270.43 674,233.43 645,172.76 C623,126.76 647.1,102.45 647.1,102.45 L647.1,102.45 Z" id="Shape" fill="#24A21D"></path>
                <path d="M706,69.9 C-49.9,-114 640.26,120.39 675.57,188.68 C709.28,253.87 654.73,288.88 654.73,288.88 C654.73,288.88 748,259.22 710.42,167 C685.43,105.58 706,69.9 706,69.9 L706,69.9 Z" id="Shape" fill="#24A21D"></path>
                <path d="M667.49,167.34 C669.523054,174.287359 672.05634,181.078438 675.07,187.66 L675.57,188.66 C676.55,190.546667 677.453333,192.41 678.28,194.25 C660.81,136.66 706,69.9 706,69.9 C706,69.9 653.63,110.13 667.49,167.34 L667.49,167.34 Z" id="Shape" opacity="0.2" fill="#FFFFFF"></path>
                <path d="M696,191.42 C673.2,138.85 694.57,88.56 702.68,72.68 C689.82,84.11 645.08,129.76 675.54,188.68 C709.25,253.87 654.7,288.88 654.7,288.88 L654.7,288.88 C679.81,272.87 716.92,239.62 696,191.42 L696,191.42 Z" id="Shape" opacity="0.2" fill="#FFFFFF"></path>
                <path d="M622.72,193.54 C624.444799,197.054365 625.908749,200.690843 627.1,204.42 L627.1,204.42 C614.71,160.62 632.79,124.42 642.1,109.62 C643.459781,107.026948 645.13957,104.614772 647.1,102.44 C649.06043,100.265228 598,143 622.72,193.54 L622.72,193.54 Z" id="Shape" opacity="0.2" fill="#FFFFFF"></path>
                <path d="M623.69,132.73 C615.69,148.82 611.26,170.09 622.69,193.54 C633.53,215.74 630.81,233.79 624.69,246.81 C625.585564,245.788683 626.394998,244.694944 627.11,243.54 C649,209 623.69,132.74 623.69,132.73 L623.69,132.73 Z" id="Shape" opacity="0.2" fill="#FFFFFF"></path>
                <path id="Shape" opacity="0.2" fill="#FFFFFF" d="M584.03,225.41 L584.03,225.41 L584.03,225.4 L584.03,225.41 L584.03,225.41 Z"></path>
                <path d="M579.53,207.2 C580.26,208.85 580.86,210.44 581.4,212.02 C577,179 589.68,156.1 596,147 C596.953238,145.414028 598.087509,143.944174 599.38,142.62 C600.672491,141.295826 563.16,170.31 579.53,207.2 L579.53,207.2 Z" id="Shape" opacity="0.2" fill="#FFFFFF"></path>
                <path d="M579.86,167.64 C574.97,178.42 572.8,192.03 579.53,207.2 C593.43,238.52 571.4,257.38 566.41,261.13 C604.78,233.62 586.57,183 579.86,167.64 L579.86,167.64 Z" id="Shape" opacity="0.2" fill="#FFFFFF"></path>
                <path d="M35.39,220.82 C32.3275982,221.635308 29.1689102,222.032246 26,222 C22.857799,221.999158 19.7379445,221.471859 16.77,220.44 C13.8051469,219.440863 11.0541821,217.894081 8.66,215.88 C6.22395617,213.819049 4.25086392,211.266638 2.87,208.39 C1.33503508,205.131568 0.578461303,201.560951 0.66,197.96 C0.592382712,194.317151 1.39457636,190.710708 3,187.44 C4.42877626,184.568406 6.42579327,182.016851 8.87,179.94 C11.2345022,177.952006 13.9469753,176.419459 16.87,175.42 C19.6875996,174.425839 22.6521783,173.912024 25.64,173.9 C28.534432,173.862366 31.4216167,174.198476 34.23,174.9 C36.4721345,175.451312 38.6122361,176.35596 40.57,177.58 L39.27,183.67 C37.4504098,182.498537 35.4695132,181.599048 33.39,181 C31.1203257,180.31612 28.7603738,179.978984 26.39,180 C24.0943755,180.007495 21.8150282,180.385697 19.64,181.12 C17.4449816,181.854019 15.4090299,182.997545 13.64,184.49 C11.8386143,186.041907 10.3808805,187.952628 9.36,190.1 C7.20684891,195.153545 7.20684891,200.866455 9.36,205.92 C11.3510843,210.195733 15.0554648,213.431618 19.56,214.83 C21.7980649,215.556513 24.1369731,215.924393 26.49,215.92 C30.75,215.92 34.0166667,215.123333 36.29,213.53 L36.29,203.9 L25.65,203.9 L25.65,198.18 L42.88,198.18 L42.88,217 C40.6725022,218.774717 38.1227351,220.075133 35.39,220.82 L35.39,220.82 Z" id="Shape" fill="#636670"></path>
                <path d="M94.22,221.11 L79.67,200.84 L73.15,200.84 L73.15,221.11 L66.15,221.11 L66.15,174.91 L80.78,174.91 C82.4518189,174.916841 84.1121401,175.186812 85.7,175.71 C87.3171179,176.227573 88.8254591,177.037671 90.15,178.1 C93.0996238,180.473084 94.7745455,184.085443 94.68,187.87 C94.800457,190.589789 93.9694908,193.266562 92.33,195.44 C90.8204938,197.356219 88.8342561,198.842449 86.57,199.75 L102.36,221.11 L94.22,221.11 Z M87,184.76 C86.5850268,183.909984 85.979274,183.167338 85.23,182.59 C84.4628491,181.998681 83.5908928,181.557614 82.66,181.29 C81.6871176,180.996428 80.6762092,180.848162 79.66,180.85 L73.21,180.85 L73.21,194.85 L79.66,194.85 C80.6736536,194.855531 81.6832071,194.720924 82.66,194.45 C83.5923722,194.201184 84.4659728,193.769483 85.23,193.18 C85.9857514,192.60524 86.5927104,191.857686 87,191 C87.4616702,190.015513 87.6876423,188.93701 87.66,187.85 C87.6845489,186.782571 87.4585005,185.724253 87,184.76 L87,184.76 Z" id="Shape" fill="#636670"></path>
                <path d="M120.94,221.11 L120.94,174.91 L145.94,174.91 L145.94,180.91 L128,180.91 L128,194.91 L143,194.91 L143,200.91 L128,200.91 L128,215.1 L148.42,215.1 L148.42,221.1 L120.94,221.11 Z" id="Shape" fill="#636670"></path>
                <path d="M169.1,221.11 L169.1,174.91 L194.1,174.91 L194.1,180.91 L176.2,180.91 L176.2,194.91 L191.2,194.91 L191.2,200.91 L176.2,200.91 L176.2,215.1 L196.62,215.1 L196.62,221.1 L169.1,221.11 Z" id="Shape" fill="#636670"></path>
                <path d="M256.58,222.12 L235,198.45 C233.266667,196.563333 231.46,194.536667 229.58,192.37 C227.71,190.19 225.97,188.16 224.38,186.28 L224.24,186.35 C224.333333,188.476667 224.38,190.506667 224.38,192.44 L224.38,221.11 L217.28,221.11 L217.28,174.91 L222.13,174.91 L241.93,196.64 C242.6,197.36 243.35,198.19 244.16,199.13 C244.97,200.07 245.83,201.03 246.69,202 C247.55,202.97 248.42,203.94 249.26,204.93 L251.61,207.72 L251.75,207.64 C251.66,205.86 251.61,204.02 251.61,202.14 L251.61,174.91 L258.7,174.91 L258.7,222.12 L256.58,222.12 Z" id="Shape" fill="#636670"></path>
                <path d="M325.44,221.76 L323.05,221.76 L314.43,197.07 C313.8,195.29 313.17,193.4 312.51,191.42 C311.85,189.44 311.17,187.2 310.45,184.69 L310.3,184.69 C309.58,187.196667 308.893333,189.453333 308.24,191.46 C307.586667,193.466667 306.946667,195.336667 306.32,197.07 L297.7,221.76 L295.31,221.76 L279,174.91 L286,174.91 L293.46,196.2 C293.99,197.75 294.57,199.42 295.2,201.2 C295.83,202.98 296.38,204.86 296.87,206.74 L297,206.74 C297.526667,204.86 298.083333,203.013333 298.67,201.2 C299.25,199.39 299.8,197.72 300.33,196.2 L307.72,174.91 L313.72,174.91 L321.18,196.2 C321.71,197.7 322.25,199.36 322.81,201.2 C323.37,203.04 323.9,204.89 324.43,206.77 L324.58,206.77 C325.06,204.936667 325.616667,203.08 326.25,201.2 C326.883333,199.32 327.46,197.653333 327.98,196.2 L335.44,174.91 L341.89,174.91 L325.44,221.76 Z" id="Shape" fill="#24A21D"></path>
                <path d="M390.1,221.11 L385.1,209.16 L367.1,209.16 L362.1,221.11 L355.22,221.11 L375,174.26 L377.53,174.26 L397.23,221.11 L390.1,221.11 Z M378.16,192.29 C377.82,191.52 377.48,190.63 377.16,189.61 C376.84,188.59 376.51,187.61 376.22,186.61 L376.07,186.61 C375.83,187.583333 375.53,188.583333 375.17,189.61 C374.81,190.61 374.46,191.52 374.17,192.29 L369.61,203.59 L382.79,203.59 L378.16,192.29 Z" id="Shape" fill="#24A21D"></path>
                <path d="M430.58,221.76 L428.34,221.76 L410,174.91 L417.38,174.91 L425.93,196.91 C426.55,198.496667 427.19,200.233333 427.85,202.12 C428.5,204 429.14,205.94 429.76,207.91 L429.91,207.91 C430.54,205.98 431.16,204.09 431.79,202.23 C432.42,200.37 433.07,198.6 433.79,196.91 L442.33,174.91 L448.99,174.91 L430.58,221.76 Z" id="Shape" fill="#24A21D"></path>
                <path d="M468.82,221.11 L468.82,174.91 L493.82,174.91 L493.82,180.91 L475.91,180.91 L475.91,194.91 L490.91,194.91 L490.91,200.91 L475.91,200.91 L475.91,215.1 L496.33,215.1 L496.33,221.1 L468.82,221.11 Z" id="Shape" fill="#24A21D"></path>
                <path d="M543,213.65 C542.347875,215.320083 541.321592,216.818456 540,218.03 C538.546613,219.317799 536.845031,220.294507 535,220.9 C532.776344,221.605416 530.452465,221.943189 528.12,221.9 C525.770407,221.918968 523.430136,221.602442 521.17,220.96 C519.405479,220.487086 517.720589,219.755843 516.17,218.79 L514.58,211.11 C516.65051,212.57925 518.911228,213.760072 521.3,214.62 C523.593783,215.42568 526.008863,215.831576 528.44,215.82 C530.683354,215.923281 532.888563,215.213069 534.65,213.82 C536.183358,212.533327 537.036016,210.610234 536.96,208.61 C537.018018,206.732197 536.327321,204.908325 535.04,203.54 C533.318805,201.925399 531.227636,200.757916 528.95,200.14 C525.406722,199.142594 522.175399,197.260237 519.56,194.67 C517.473597,192.447115 516.336357,189.498183 516.39,186.45 C516.390586,184.850292 516.696035,183.265352 517.29,181.78 C517.899078,180.269374 518.822904,178.905793 520,177.78 C521.312243,176.54668 522.864509,175.596938 524.56,174.99 C526.625749,174.272668 528.803968,173.93391 530.99,173.99 C533.068787,173.958035 535.13999,174.248138 537.13,174.85 C538.520602,175.23392 539.840679,175.838252 541.04,176.64 L539.66,182.39 C538.512745,181.64742 537.276294,181.052714 535.98,180.62 C534.292027,180.003433 532.506995,179.695202 530.71,179.71 C528.683299,179.594187 526.690534,180.267999 525.15,181.59 C523.877199,182.706031 523.14816,184.317208 523.15,186.01 C523.15,189.096667 525.636667,191.486667 530.61,193.18 C532.516683,193.804403 534.361268,194.604504 536.12,195.57 C537.667772,196.421067 539.091113,197.481002 540.35,198.72 C541.526966,199.889014 542.461508,201.278932 543.1,202.81 C543.783811,204.464201 544.124039,206.240196 544.1,208.03 C544.093211,209.956156 543.719903,211.863421 543,213.65 L543,213.65 Z" id="Shape" fill="#24A21D"></path>
                <path d="M282.57,240.5 L282.57,254.62 L280.07,254.62 L280.07,240.5 L274.86,240.5 L274.86,238.38 L287.78,238.38 L287.78,240.5 L282.57,240.5 Z" id="Shape" fill="#636670"></path>
                <path d="M298.44,254.62 L298.44,238.38 L307.22,238.38 L307.22,240.5 L300.94,240.5 L300.94,245.41 L306.21,245.41 L306.21,247.52 L300.94,247.52 L300.94,252.52 L308.11,252.52 L308.11,254.63 L298.44,254.62 Z" id="Shape" fill="#636670"></path>
                <path d="M331.65,241.26 C331.410577,241.122681 331.163508,240.999147 330.91,240.89 C330.585492,240.752202 330.251249,240.638559 329.91,240.55 C329.535458,240.443479 329.154746,240.35999 328.77,240.3 C327.56502,240.085648 326.32513,240.185528 325.17,240.59 C324.402087,240.843184 323.689399,241.240253 323.07,241.76 C322.427916,242.307223 321.915551,242.990377 321.57,243.76 C320.816357,245.529774 320.816357,247.530226 321.57,249.3 C321.908505,250.071072 322.418035,250.755006 323.06,251.3 C323.679399,251.819747 324.392087,252.216816 325.16,252.47 C325.928442,252.737028 326.736488,252.872266 327.55,252.87 C328.417999,252.878051 329.283937,252.784073 330.13,252.59 C330.796704,252.439504 331.437131,252.190074 332.03,251.85 L331.52,254.22 C330.97997,254.502907 330.399978,254.701858 329.8,254.81 C328.964754,254.954669 328.117484,255.018298 327.27,255 C326.217996,254.992948 325.174224,254.813919 324.18,254.47 C323.146893,254.118593 322.187497,253.579569 321.35,252.88 C319.490067,251.325404 318.446813,249.002966 318.52,246.58 C318.488431,245.303788 318.762737,244.038552 319.32,242.89 C319.818188,241.880803 320.519514,240.98542 321.38,240.26 C322.209257,239.559317 323.162332,239.020032 324.19,238.67 C325.17883,238.317453 326.220214,238.134872 327.27,238.13 C328.233112,238.113567 329.194336,238.221117 330.13,238.45 C330.799361,238.61711 331.444598,238.869155 332.05,239.2 L331.65,241.26 Z" id="Shape" fill="#636670"></path>
                <path d="M354.17,254.62 L354.17,247.52 L345.85,247.52 L345.85,254.62 L343.36,254.62 L343.36,238.38 L345.85,238.38 L345.85,245.38 L354.17,245.38 L354.17,238.38 L356.66,238.38 L356.66,254.62 L354.17,254.62 Z" id="Shape" fill="#636670"></path>
                <path d="M382.69,255 L375.1,246.68 C374.49,246.02 373.86,245.31 373.2,244.55 L371.37,242.41 L371.32,242.41 C371.32,243.15 371.37,243.86 371.37,244.54 L371.37,254.62 L368.88,254.62 L368.88,238.38 L370.58,238.38 L377.53,246.02 C377.77,246.27 378.03,246.56 378.32,246.9 L379.21,247.9 L380.11,248.9 L380.94,249.9 L380.99,249.9 C380.99,249.27 380.94,248.62 380.94,247.96 L380.94,238.39 L383.43,238.39 L383.43,255 L382.69,255 Z" id="Shape" fill="#636670"></path>
                <path d="M411.47,250 C410.992036,251.00821 410.311173,251.906949 409.47,252.64 C408.667557,253.360994 407.73857,253.927202 406.73,254.31 C404.686623,255.079003 402.433377,255.079003 400.39,254.31 C399.378295,253.927471 398.445978,253.361301 397.64,252.64 C396.822742,251.899088 396.162973,251.001258 395.7,250 C394.713663,247.743057 394.713663,245.176943 395.7,242.92 C396.162973,241.918742 396.822742,241.020912 397.64,240.28 C398.44345,239.555295 399.37644,238.988716 400.39,238.61 C402.430108,237.823236 404.689892,237.823236 406.73,238.61 C407.740543,238.988755 408.670246,239.555399 409.47,240.28 C410.311173,241.013051 410.992036,241.91179 411.47,242.92 C412.456337,245.176943 412.456337,247.743057 411.47,250 L411.47,250 Z M409.18,243.78 C408.846607,243.026807 408.367394,242.347073 407.77,241.78 C407.185332,241.252056 406.506976,240.838259 405.77,240.56 C405.072135,240.286184 404.32965,240.14379 403.58,240.14 C401.163787,240.114997 398.968353,241.541832 398.01,243.76 C397.636505,244.599671 397.452154,245.511181 397.47,246.43 C397.454238,247.351858 397.638467,248.266179 398.01,249.11 C399.31197,252.093298 402.740984,253.511743 405.77,252.32 C406.506976,252.041741 407.185332,251.627944 407.77,251.1 C408.368609,250.533979 408.848006,249.853984 409.18,249.1 C409.5481,248.255413 409.728911,247.341122 409.71,246.42 C409.722276,245.522085 409.541532,244.632008 409.18,243.81 L409.18,243.78 Z" id="Shape" fill="#636670"></path>
                <path d="M423.79,254.62 L423.79,238.38 L426.28,238.38 L426.28,252.51 L433.43,252.51 L433.43,254.62 L423.79,254.62 Z" id="Shape" fill="#636670"></path>
                <path d="M459.31,250 C458.846721,251.003704 458.183134,251.902098 457.36,252.64 C454.880231,254.843607 451.381548,255.487087 448.28,254.31 C447.26717,253.929782 446.334447,253.363364 445.53,252.64 C444.706866,251.902098 444.043279,251.003704 443.58,250 C442.593663,247.743057 442.593663,245.176943 443.58,242.92 C444.043279,241.916296 444.706866,241.017902 445.53,240.28 C446.331847,239.553145 447.265271,238.986301 448.28,238.61 C450.316602,237.822932 452.573398,237.822932 454.61,238.61 C455.62356,238.988716 456.55655,239.555295 457.36,240.28 C458.183134,241.017902 458.846721,241.916296 459.31,242.92 C460.283131,245.179684 460.283131,247.740316 459.31,250 L459.31,250 Z M457,243.81 C456.666482,243.054339 456.183449,242.37401 455.58,241.81 C454.997068,241.279734 454.318246,240.865652 453.58,240.59 C452.882135,240.316184 452.13965,240.17379 451.39,240.17 C449.844339,240.178654 448.357461,240.763422 447.22,241.81 C446.625799,242.37764 446.149969,243.057398 445.82,243.81 C445.454811,244.651977 445.274096,245.562375 445.29,246.48 C445.276034,247.400683 445.45664,248.313938 445.82,249.16 C446.798237,251.362651 448.979899,252.784452 451.39,252.79 C452.13965,252.78621 452.882135,252.643816 453.58,252.37 C454.318246,252.094348 454.997068,251.680266 455.58,251.15 C456.184928,250.587284 456.668192,249.906631 457,249.15 C457.36336,248.303938 457.543966,247.390683 457.53,246.47 C457.544476,245.555735 457.36379,244.648896 457,243.81 L457,243.81 Z" id="Shape" fill="#636670"></path>
                <path d="M483.19,254.52 C482.11287,254.800482 481.002948,254.935018 479.89,254.92 C478.787618,254.919816 477.692853,254.737355 476.65,254.38 C475.608727,254.023939 474.642423,253.478062 473.8,252.77 C472.957588,252.042054 472.276396,251.146285 471.8,250.14 C471.267546,248.994695 471.004161,247.74276 471.03,246.48 C470.998431,245.203788 471.272737,243.938552 471.83,242.79 C472.33065,241.779482 473.03151,240.881294 473.89,240.15 C474.725277,239.452616 475.680979,238.913763 476.71,238.56 C477.700598,238.215402 478.741195,238.036338 479.79,238.03 C480.800693,238.020911 481.808543,238.138494 482.79,238.38 C483.578296,238.578527 484.330712,238.899064 485.02,239.33 L484.56,241.46 C483.211652,240.604885 481.646629,240.153769 480.05,240.16 C479.243573,240.164356 478.443187,240.299443 477.68,240.56 C476.911622,240.816868 476.199002,241.217293 475.58,241.74 C474.944313,242.295572 474.430239,242.976464 474.07,243.74 C473.671048,244.611258 473.476103,245.562043 473.5,246.52 C473.47793,247.473526 473.669261,248.41993 474.06,249.29 C474.401176,250.056854 474.906376,250.739557 475.54,251.29 C476.155986,251.822422 476.873889,252.223903 477.65,252.47 C478.43557,252.721168 479.255255,252.849349 480.08,252.85 C481.288411,252.92449 482.491088,252.631665 483.53,252.01 L483.53,248.62 L479.78,248.62 L479.78,246.62 L485.84,246.62 L485.84,253.24 C485.053763,253.843834 484.151746,254.279525 483.19,254.52 L483.19,254.52 Z" id="Shape" fill="#636670"></path>
                <path d="M498.24,254.62 L498.24,238.38 L500.73,238.38 L500.73,254.62 L498.24,254.62 Z" id="Shape" fill="#636670"></path>
                <path d="M513.3,254.62 L513.3,238.38 L522.08,238.38 L522.08,240.5 L515.79,240.5 L515.79,245.41 L521.06,245.41 L521.06,247.52 L515.79,247.52 L515.79,252.52 L523,252.52 L523,254.63 L513.3,254.62 Z" id="Shape" fill="#636670"></path>
                <path d="M543.17,252 C542.933954,252.587414 542.568171,253.113867 542.1,253.54 C541.593306,253.992447 540.997045,254.333167 540.35,254.54 C539.568811,254.793082 538.75103,254.914736 537.93,254.9 C537.105022,254.90802 536.283209,254.796874 535.49,254.57 C534.868403,254.406757 534.27504,254.150532 533.73,253.81 L533.17,251.11 C533.898786,251.622602 534.692382,252.036213 535.53,252.34 C536.336681,252.621772 537.185532,252.763811 538.04,252.76 C538.824548,252.800882 539.597828,252.559675 540.22,252.08 C540.761674,251.625348 541.064079,250.946781 541.04,250.24 C541.057203,249.580164 540.81276,248.9403 540.36,248.46 C539.754366,247.894778 539.019692,247.486245 538.22,247.27 C536.975248,246.914305 535.840268,246.250514 534.92,245.34 C534.188068,244.56181 533.789669,243.528125 533.81,242.46 C533.807874,241.894378 533.916588,241.33382 534.13,240.81 C534.353964,240.27128 534.695647,239.789508 535.13,239.4 C535.587785,238.958766 536.132783,238.618142 536.73,238.4 C537.455016,238.142005 538.220564,238.016671 538.99,238.03 C539.721961,238.016905 540.451267,238.121574 541.15,238.34 C541.634743,238.477975 542.096407,238.686903 542.52,238.96 L542.04,240.96 C541.636719,240.692933 541.199503,240.481052 540.74,240.33 C540.146562,240.117908 539.52016,240.012943 538.89,240.02 C538.162029,239.964768 537.442117,240.202339 536.89,240.68 C536.433944,241.06487 536.173574,241.633284 536.18,242.23 C536.18,243.31 537.05,244.15 538.8,244.75 C539.467072,244.971948 540.112974,245.253066 540.73,245.59 C541.274173,245.887524 541.77542,246.257572 542.22,246.69 C542.640882,247.102878 542.980142,247.591411 543.22,248.13 C543.45042,248.712328 543.565879,249.33377 543.56,249.96 C543.565814,250.659066 543.43327,251.352376 543.17,252 L543.17,252 Z" id="Shape" fill="#636670"></path>
            </g>
        </g>
    </g>
</svg>