<svg id="Ebene_1" data-name="Ebene 1" xmlns="http://www.w3.org/2000/svg" viewBox="0 0 136.04 37.47"><defs><style>.cls-1{fill:#005daa;}.cls-2{fill:#f89728;}</style></defs><title>imperas_logo</title><path class="cls-1" d="M388.74,297c-1.73-1.88-4.3-2.84-7.65-2.84a7.22,7.22,0,0,0-2.65.5v-.16h-7v28.52h7v-7.2a11.44,11.44,0,0,0,10-2.58c1.89-1.9,2.85-4.57,2.85-8C391.32,301.7,390.45,298.91,388.74,297Zm-1.33,15.18a9,9,0,0,1-6.6,2.41,8.52,8.52,0,0,1-2.87-.48l-1-.35v7.76h-4V296h4v1.23l1.15-.73a5.49,5.49,0,0,1,3-.84c2.91,0,5.11.79,6.54,2.36s2.19,4,2.19,7.25C389.82,308.29,389,310.62,387.41,312.22Z" transform="translate(-332 -285.59)"/><path class="cls-1" d="M367,296.38a7.74,7.74,0,0,0-5.8-2.18,9.71,9.71,0,0,0-3.39.63,7.69,7.69,0,0,0-1.77,1,9.15,9.15,0,0,0-5.57-1.6,7.51,7.51,0,0,0-4.25,1.24l-.28-.51-.21-.39h-5.14v21.25h7v-14.2a3,3,0,0,1,.76-.67,2.07,2.07,0,0,1,2.51,0,1.48,1.48,0,0,1,.43,1.19v13.65h7V301.48a2.19,2.19,0,0,1,.64-.6,2,2,0,0,1,1.14-.36c1.22,0,1.92.38,1.92,2.3v13h7V302.2A8.07,8.07,0,0,0,367,296.38Zm.6,17.91h-4V302.82c0-2.52-1.15-3.8-3.42-3.8a3.91,3.91,0,0,0-3.18,1.85l-.1.17v13.25h-4V302.14a3,3,0,0,0-.89-2.27,3.57,3.57,0,0,0-4.35-.22,4.44,4.44,0,0,0-1.33,1.24l-.13.19v13.21h-4V296h2.75l.46.86.45.82.7-.61a6,6,0,0,1,4-1.41,7.4,7.4,0,0,1,5.05,1.59l.5.44.49-.44a6.26,6.26,0,0,1,1.84-1.06,8.25,8.25,0,0,1,2.85-.53,6.3,6.3,0,0,1,4.72,1.73,6.61,6.61,0,0,1,1.68,4.77Z" transform="translate(-332 -285.59)"/><path class="cls-1" d="M411,296.93a10.89,10.89,0,0,0-14.88.34,11,11,0,0,0-3.1,8.09,10.76,10.76,0,0,0,2.84,7.91,10.38,10.38,0,0,0,7.68,2.86c3.39,0,6-.72,7.75-2.13l.41-.33-2.45-4.83-.64.64a6,6,0,0,1-4.38,1.47,5.42,5.42,0,0,1-3.64-1.16,4.24,4.24,0,0,1-1.33-2.57h14l.11-.51a13.69,13.69,0,0,0,.41-2.73A9.52,9.52,0,0,0,411,296.93Zm-11.46,5.49a3.93,3.93,0,0,1,4.1-3.08c2.33,0,3.63,1,4.08,3.08Z" transform="translate(-332 -285.59)"/><path class="cls-1" d="M422.22,295.55v-1h-6v21.25h6v-12a4.7,4.7,0,0,1,1.1-3.18,3.11,3.11,0,0,1,2.39-1.24,4.22,4.22,0,0,1,2.38.72l.61.41,2.57-5.2-.52-.3a8,8,0,0,0-4-.81A7.45,7.45,0,0,0,422.22,295.55Z" transform="translate(-332 -285.59)"/><path class="cls-1" d="M450.25,313.46c-.85-.55-1.3-2.09-1.3-4.46v-4.26c0-4.08-.76-6.8-2.32-8.33s-3.94-2.25-7.14-2.25a14,14,0,0,0-6,1.21l-.49.24,1.37,4.88.7-.35a9.38,9.38,0,0,1,4.11-.8c2.7,0,3.5,1,3.72,2.07a6.67,6.67,0,0,0-1.2-.12c-3.32,0-5.94.7-7.78,2.08a7,7,0,0,0-2.86,5.93,6.37,6.37,0,0,0,2.07,5.06,8.05,8.05,0,0,0,5.49,1.77,9.1,9.1,0,0,0,3.54-.71,5.91,5.91,0,0,0,1.81-1.14,5.27,5.27,0,0,0,.79.93,3.23,3.23,0,0,0,2.25.92,5.71,5.71,0,0,0,1.82-.27,3.1,3.1,0,0,0,1.65-1.54l.31-.53ZM443,307.6c0,2.44-1.1,3.53-3.55,3.53-2.17,0-2.47-1-2.47-2,0-1.27.51-3,4.88-3a6.77,6.77,0,0,1,1.14.13Z" transform="translate(-332 -285.59)"/><path class="cls-1" d="M455.45,295.54a5.34,5.34,0,0,0-2.39,4.47c-.1,2.85,1.69,5.13,5.33,6.78a11.82,11.82,0,0,1,2.95,1.71,1.74,1.74,0,0,1,.55,1.39c0,.42,0,1.29-2.11,1.22a6.75,6.75,0,0,1-4.26-1.67l-.64-.55-2.42,4.95.53.3a16.42,16.42,0,0,0,3.16,1.5,13.57,13.57,0,0,0,3.35.46,9.61,9.61,0,0,0,6.06-1.51,5.9,5.9,0,0,0,2.48-4.8,6.28,6.28,0,0,0-1.16-4,9.44,9.44,0,0,0-4-2.84,15.5,15.5,0,0,1-3.22-1.67c-.53-.44-.52-.77-.52-.88,0-.67.26-1.28,1.84-1.23a5.83,5.83,0,0,1,3.8,1.28l.68.62,2-4.95-.51-.28a13.41,13.41,0,0,0-6.09-1.67A9,9,0,0,0,455.45,295.54Z" transform="translate(-332 -285.59)"/><path class="cls-1" d="M332,315.77h6V294.54h-6Z" transform="translate(-332 -285.59)"/><path class="cls-2" d="M332,287.16V292h6v-6.37h-6v1.57" transform="translate(-332 -285.59)"/><path class="cls-1" d="M384.27,300.46c-.89-.92-2.37-1.38-4.41-1.38a3.91,3.91,0,0,0-2.67,1.07l-.25.23v9.87l.32.22a4.36,4.36,0,0,0,2.58.8c2,0,3.53-.49,4.42-1.47a6.68,6.68,0,0,0,1.35-4.61C385.61,302.94,385.17,301.39,384.27,300.46Zm-1.11,8.32a4.42,4.42,0,0,1-3.32,1,2.87,2.87,0,0,1-1.4-.34v-8.35a2.24,2.24,0,0,1,1.42-.5,4.68,4.68,0,0,1,3.33.93c.6.62.92,1.89.92,3.68A5.35,5.35,0,0,1,383.16,308.78Z" transform="translate(-332 -285.59)"/></svg>