<svg xmlns="http://www.w3.org/2000/svg" height="800" width="1200" viewBox="-45 -19.998125 390 119.98875"><path d="M0 2.4582h24.1444c5.5226 0 12.0335 5.1583 14.9362 7.9952L81.44 57.4207V2.4582h14.3898v74.9872H70.6389c-4.4878-.1511-8.8943-1.0735-14.0293-6.1194L14.32 24.2734v53.172H0zm300 75.4984c-17.2344 2.3524-34.6703 2.585-52.141 1.1161-10.2276-.903-20.2457-3.0074-29.4268-7.8014-11.5917-6.007-15.285-19.5093-15.13-31.7482.1279-11.297 3.488-23.3576 13.5681-29.9266 6.6078-4.3367 13.665-5.759 21.1642-7.1193 20.4704-3.6081 40.9796-2.7943 60.9501-.6046V12.569c-23.5514-4.577-48.4283-3.4376-56.8808 7.3828-5.2823 6.7318-6.0342 13.4287-6.0342 19.0675 0 10.1616 3.4763 25.5784 24.125 28.5742C273.666 69.57 287.0017 68.07 300 65.7022zM152.5187 66.294c2.0385.0194 34.4959.1705 45.638 0v11.2041c-22.4431.8643-44.0064 1.2402-66.6782.2984-19.238-.7945-22.5515-10.4677-22.9236-19.7612V2.4566h88.5282v10.677H139.811v19.0908h52.199v10.4213h-52.1992c0 5.6388.186 12.0334.2403 13.1844.3061 7.2705 3.6778 9.9446 12.4675 10.464" fill="#1414a0"/></svg>