<?xml version="1.0" encoding="UTF-8" standalone="no"?>
<!-- Created with Inkscape (http://www.inkscape.org/) -->

<svg
   xmlns:dc="http://purl.org/dc/elements/1.1/"
   xmlns:cc="http://creativecommons.org/ns#"
   xmlns:rdf="http://www.w3.org/1999/02/22-rdf-syntax-ns#"
   xmlns:svg="http://www.w3.org/2000/svg"
   xmlns="http://www.w3.org/2000/svg"
   xmlns:sodipodi="http://sodipodi.sourceforge.net/DTD/sodipodi-0.dtd"
   xmlns:inkscape="http://www.inkscape.org/namespaces/inkscape"
   width="210mm"
   height="297mm"
   viewBox="0 0 210 297"
   version="1.1"
   id="svg2925"
   inkscape:version="0.92.4 5da689c313, 2019-01-14"
   sodipodi:docname="opersys-logo.svg">
  <defs
     id="defs2919" />
  <sodipodi:namedview
     id="base"
     pagecolor="#ffffff"
     bordercolor="#666666"
     borderopacity="1.0"
     inkscape:pageopacity="0.0"
     inkscape:pageshadow="2"
     inkscape:zoom="7.9195959"
     inkscape:cx="514.18164"
     inkscape:cy="562.37649"
     inkscape:document-units="mm"
     inkscape:current-layer="layer1"
     showgrid="false"
     inkscape:window-width="2560"
     inkscape:window-height="1415"
     inkscape:window-x="1920"
     inkscape:window-y="0"
     inkscape:window-maximized="1" />
  <metadata
     id="metadata2922">
    <rdf:RDF>
      <cc:Work
         rdf:about="">
        <dc:format>image/svg+xml</dc:format>
        <dc:type
           rdf:resource="http://purl.org/dc/dcmitype/StillImage" />
        <dc:title></dc:title>
      </cc:Work>
    </rdf:RDF>
  </metadata>
  <g
     inkscape:label="Layer 1"
     inkscape:groupmode="layer"
     id="layer1">
    <g
       transform="matrix(0.35277777,0,0,-0.35277777,36.782926,285.29673)"
       id="g2830">
      <g
         transform="translate(320.3843,434.1111)"
         id="g22">
        <path
           inkscape:connector-curvature="0"
           id="path24"
           style="fill:#1d1d1b;fill-opacity:1;fill-rule:nonzero;stroke:none"
           d="m 0,0 h -245.016 c -4.863,0 -8.82,-3.957 -8.82,-8.82 v -38.36 c 0,-4.863 3.957,-8.82 8.82,-8.82 H 0 c 4.864,0 8.82,3.957 8.82,8.82 V -8.82 C 8.82,-3.957 4.864,0 0,0" />
      </g>
      <g
         transform="translate(238.1615,382.6113)"
         id="g26">
        <path
           inkscape:connector-curvature="0"
           id="path28"
           style="fill:#ec6906;fill-opacity:1;fill-rule:nonzero;stroke:none"
           d="m 0,0 h -162.737 c -2.417,0 -4.376,1.959 -4.376,4.376 v 38.247 c 0,2.417 1.959,4.377 4.376,4.377 H 0 c 2.417,0 4.376,-1.96 4.376,-4.377 V 4.376 C 4.376,1.959 2.417,0 0,0" />
      </g>
      <g
         transform="translate(320.3281,382.6113)"
         id="g30">
        <path
           inkscape:connector-curvature="0"
           id="path32"
           style="fill:#ffffff;fill-opacity:1;fill-rule:nonzero;stroke:none"
           d="m 0,0 h -69.204 c -2.417,0 -4.376,1.959 -4.376,4.376 v 38.247 c 0,2.417 1.959,4.377 4.376,4.377 H 0 c 2.417,0 4.376,-1.96 4.376,-4.377 V 4.376 C 4.376,1.959 2.417,0 0,0" />
      </g>
      <g
         transform="translate(91.9536,407.4676)"
         id="g34">
        <path
           inkscape:connector-curvature="0"
           id="path36"
           style="fill:#ffffff;fill-opacity:1;fill-rule:nonzero;stroke:none"
           d="m 0,0 -13.809,6.635 c -0.473,0.18 -0.866,-0.073 -0.866,-0.53 v -1.77 c 0,-0.399 0.279,-0.807 0.698,-1.017 l 9.725,-4.664 -9.707,-4.657 c -0.415,-0.155 -0.716,-0.568 -0.716,-0.983 v -1.77 c 0,-0.353 0.224,-0.591 0.557,-0.591 0.098,0 0.202,0.02 0.326,0.068 L 0.003,-2.69 c 0.41,0.204 0.654,0.568 0.654,0.974 v 0.74 C 0.657,-0.57 0.413,-0.206 0,0" />
      </g>
      <g
         transform="translate(117.0737,405.992)"
         id="g38">
        <path
           inkscape:connector-curvature="0"
           id="path40"
           style="fill:#ffffff;fill-opacity:1;fill-rule:nonzero;stroke:none"
           d="m 0,0 c 0,-5.245 -3.558,-7.99 -7.072,-7.99 -3.528,0 -7.1,2.745 -7.1,7.99 0,5.227 3.572,7.961 7.1,7.961 C -3.558,7.961 0,5.227 0,0 m -7.072,10.656 c -5.081,0 -10.226,-3.631 -10.226,-10.57 0,-6.274 4.301,-10.828 10.226,-10.828 5.988,0 10.169,4.452 10.169,10.828 0,6.939 -5.116,10.57 -10.169,10.57" />
      </g>
      <g
         transform="translate(134.7764,409.7215)"
         id="g42">
        <path
           inkscape:connector-curvature="0"
           id="path44"
           style="fill:#ffffff;fill-opacity:1;fill-rule:nonzero;stroke:none"
           d="M 0,0 C 0,-2.713 -1.506,-4.032 -4.605,-4.032 H -8.12 v 8.206 h 3.543 C -1.711,4.174 0,2.614 0,0 m -4.175,6.754 h -8.835 c -0.374,0 -0.588,-0.203 -0.588,-0.558 V 4.733 c 0,-0.339 0.231,-0.559 0.588,-0.559 h 1.966 v -15.865 h -1.966 c -0.374,0 -0.588,-0.204 -0.588,-0.559 v -1.462 c 0,-0.34 0.231,-0.559 0.588,-0.559 h 7.487 c 0.334,0 0.558,0.225 0.558,0.559 v 1.462 c 0,0.35 -0.208,0.559 -0.558,0.559 H -8.12 v 5.194 h 3.629 c 4.731,0 7.444,2.378 7.444,6.525 0,4.023 -2.864,6.726 -7.128,6.726" />
      </g>
      <g
         transform="translate(154.6421,416.4759)"
         id="g46">
        <path
           inkscape:connector-curvature="0"
           id="path48"
           style="fill:#ffffff;fill-opacity:1;fill-rule:nonzero;stroke:none"
           d="m 0,0 h -15.232 c -0.374,0 -0.588,-0.203 -0.588,-0.558 v -1.463 c 0,-0.34 0.231,-0.559 0.588,-0.559 h 1.965 v -15.865 h -1.965 c -0.374,0 -0.588,-0.204 -0.588,-0.559 v -1.463 c 0,-0.339 0.231,-0.558 0.588,-0.558 H 0 c 0.357,0 0.587,0.219 0.587,0.558 v 4.619 c 0,0.339 -0.23,0.558 -0.587,0.558 h -1.549 c -0.357,0 -0.587,-0.219 -0.587,-0.558 v -2.597 h -8.206 v 6.599 h 7.043 c 0.357,0 0.588,0.22 0.588,0.559 v 1.463 c 0,0.339 -0.231,0.558 -0.588,0.558 h -7.043 v 6.686 h 8.234 v -2.597 c 0,-0.357 0.219,-0.587 0.559,-0.587 H 0 c 0.346,0 0.587,0.242 0.587,0.587 v 4.619 C 0.587,-0.219 0.357,0 0,0" />
      </g>
      <g
         transform="translate(171.1543,409.9793)"
         id="g50">
        <path
           inkscape:connector-curvature="0"
           id="path52"
           style="fill:#ffffff;fill-opacity:1;fill-rule:nonzero;stroke:none"
           d="M 0,0 C 0,-2.574 -1.481,-3.773 -4.663,-3.773 H -8.12 v 7.69 h 3.457 C -1.569,3.917 0,2.599 0,0 M 4.029,-11.949 H 2.411 l -2.352,4.591 c -0.375,0.707 -0.707,1.3 -1.109,1.722 2.621,0.827 4.003,2.798 4.003,5.722 0,3.954 -2.731,6.411 -7.128,6.411 h -8.835 c -0.374,0 -0.588,-0.204 -0.588,-0.559 V 4.475 c 0,-0.339 0.231,-0.558 0.588,-0.558 h 1.966 v -15.866 h -1.966 c -0.374,0 -0.588,-0.203 -0.588,-0.558 v -1.463 c 0,-0.34 0.231,-0.559 0.588,-0.559 h 7.258 c 0.334,0 0.558,0.225 0.558,0.559 v 1.463 c 0,0.349 -0.209,0.558 -0.558,0.558 H -8.12 v 5.711 h 3.422 c 0.864,-0.025 1.223,-0.461 1.621,-1.315 l 2.698,-5.48 c 0.388,-0.777 0.889,-1.496 1.913,-1.496 h 2.495 c 0.334,0 0.559,0.225 0.559,0.559 v 1.463 c 0,0.349 -0.209,0.558 -0.559,0.558" />
      </g>
      <g
         transform="translate(188.1738,407.2733)"
         id="g54">
        <path
           inkscape:connector-curvature="0"
           id="path56"
           style="fill:#ffffff;fill-opacity:1;fill-rule:nonzero;stroke:none"
           d="m 0,0 c -2.944,0.794 -5.487,1.479 -5.487,3.596 0,1.765 1.646,2.998 4.003,2.998 3.724,0 4.977,-2.315 4.977,-3.371 V 2.419 c 0,-0.349 0.209,-0.558 0.559,-0.558 h 1.807 c 0.35,0 0.559,0.209 0.559,0.558 v 6.254 c 0,0.349 -0.209,0.558 -0.559,0.558 H 4.253 C 3.896,9.231 3.666,9.012 3.666,8.666 L 3.704,7.48 C 2.458,8.738 0.63,9.375 -1.743,9.375 c -4.078,0 -6.927,-2.376 -6.927,-5.779 0,-4.258 4.025,-5.336 7.577,-6.287 2.769,-0.742 5.16,-1.383 5.16,-3.324 0,-2.069 -1.636,-3.256 -4.49,-3.256 -4.431,0 -5.916,3.769 -5.925,4.117 v 0.602 c 0,0.341 -0.235,0.588 -0.558,0.588 h -1.807 c -0.346,0 -0.588,-0.242 -0.588,-0.588 v -6.712 c 0,-0.355 0.214,-0.559 0.588,-0.559 h 1.606 c 0.35,0 0.559,0.209 0.559,0.561 l -0.022,2.137 c 0.838,-1.028 2.879,-2.898 6.634,-2.898 3.585,0 7.415,1.578 7.415,6.008 C 7.479,-2.017 3.506,-0.945 0,0" />
      </g>
      <g
         transform="translate(215.7793,416.4759)"
         id="g58">
        <path
           inkscape:connector-curvature="0"
           id="path60"
           style="fill:#ffffff;fill-opacity:1;fill-rule:nonzero;stroke:none"
           d="m 0,0 h -6.483 c -0.35,0 -0.559,-0.208 -0.559,-0.558 v -1.463 c 0,-0.35 0.209,-0.559 0.559,-0.559 h 1.527 l -4.195,-7.476 -4.223,7.476 h 1.527 c 0.349,0 0.558,0.209 0.558,0.559 v 1.463 c 0,0.35 -0.209,0.558 -0.558,0.558 h -6.455 c -0.357,0 -0.587,-0.219 -0.587,-0.558 v -1.463 c 0,-0.355 0.214,-0.559 0.587,-0.559 h 1.836 c 1.361,-2.065 4.106,-6.933 5.289,-9.03 0.353,-0.627 0.49,-0.87 0.55,-0.971 v -5.864 h -1.995 c -0.35,0 -0.559,-0.209 -0.559,-0.559 v -1.463 c 0,-0.334 0.225,-0.558 0.559,-0.558 h 6.914 c 0.349,0 0.558,0.209 0.558,0.558 v 1.463 c 0,0.35 -0.209,0.559 -0.558,0.559 h -1.995 v 5.891 c 0.071,0.117 0.239,0.415 0.7,1.236 1.238,2.208 3.795,6.763 5.137,8.738 H 0 c 0.35,0 0.559,0.209 0.559,0.559 v 1.463 C 0.559,-0.224 0.334,0 0,0" />
      </g>
      <g
         transform="translate(225.7573,407.2733)"
         id="g62">
        <path
           inkscape:connector-curvature="0"
           id="path64"
           style="fill:#ffffff;fill-opacity:1;fill-rule:nonzero;stroke:none"
           d="m 0,0 c -2.944,0.794 -5.487,1.479 -5.487,3.596 0,1.765 1.646,2.998 4.003,2.998 3.724,0 4.978,-2.315 4.978,-3.371 V 2.419 c 0,-0.349 0.208,-0.558 0.558,-0.558 h 1.807 c 0.35,0 0.559,0.209 0.559,0.558 v 6.254 c 0,0.349 -0.209,0.558 -0.559,0.558 H 4.253 C 3.896,9.231 3.666,9.012 3.666,8.666 L 3.704,7.48 c -1.246,1.258 -3.075,1.895 -5.447,1.895 -4.078,0 -6.926,-2.376 -6.926,-5.779 0,-4.258 4.025,-5.336 7.576,-6.287 2.769,-0.742 5.16,-1.383 5.16,-3.324 0,-2.069 -1.637,-3.256 -4.49,-3.256 -4.43,0 -5.916,3.769 -5.925,4.117 v 0.602 c 0,0.341 -0.235,0.588 -0.558,0.588 h -1.807 c -0.346,0 -0.588,-0.242 -0.588,-0.588 v -6.712 c 0,-0.355 0.214,-0.559 0.588,-0.559 h 1.606 c 0.35,0 0.559,0.209 0.559,0.561 l -0.022,2.137 c 0.838,-1.029 2.878,-2.898 6.634,-2.898 3.585,0 7.415,1.578 7.415,6.008 C 7.479,-2.017 3.506,-0.945 0,0" />
      </g>
      <g
         transform="translate(256.4472,411.7246)"
         id="g66">
        <path
           inkscape:connector-curvature="0"
           id="path68"
           style="fill:#b2b2b2;fill-opacity:1;fill-rule:nonzero;stroke:none"
           d="m 0,0 c -1.079,0 -1.953,-0.874 -1.954,-1.953 v 0 -3.322 -1.563 -3.322 0 c 10e-4,-1.079 0.875,-1.953 1.954,-1.953 1.079,0 1.953,0.874 1.954,1.953 v 0 3.322 1.563 3.322 0 C 1.953,-0.874 1.079,0 0,0" />
      </g>
      <g
         transform="translate(281.9419,409.7715)"
         id="g70">
        <path
           inkscape:connector-curvature="0"
           id="path72"
           style="fill:#b2b2b2;fill-opacity:1;fill-rule:nonzero;stroke:none"
           d="M 0,0 C 0,1.079 -0.875,1.953 -1.954,1.953 -3.033,1.953 -3.907,1.079 -3.908,0 v 0 -3.322 -1.563 -3.322 0 c 10e-4,-1.079 0.875,-1.953 1.954,-1.953 1.079,0 1.954,0.874 1.954,1.953 v 3.322 1.563 z" />
      </g>
      <g
         transform="translate(259.4523,411.3835)"
         id="g74">
        <path
           inkscape:connector-curvature="0"
           id="path76"
           style="fill:#b2b2b2;fill-opacity:1;fill-rule:nonzero;stroke:none"
           d="m 0,0 h -0.097 v -12.88 c 0,-1.075 0.879,-1.954 1.954,-1.954 h 1.646 v -1.167 -3.322 0 c 10e-4,-1.079 0.875,-1.953 1.954,-1.953 1.079,0 1.954,0.874 1.954,1.953 v 3.322 1.167 h 2.666 v -1.167 -3.322 c 10e-4,-1.079 0.875,-1.953 1.954,-1.953 1.079,0 1.953,0.874 1.954,1.953 v 3.322 1.167 h 1.646 c 1.075,0 1.954,0.879 1.954,1.954 V 0 h -0.032 z" />
      </g>
      <g
         transform="translate(264.1747,417.7774)"
         id="g78">
        <path
           inkscape:connector-curvature="0"
           id="path80"
           style="fill:#b2b2b2;fill-opacity:1;fill-rule:nonzero;stroke:none"
           d="m 0,0 c 0.664,0 1.203,-0.539 1.203,-1.203 0,-0.664 -0.539,-1.203 -1.203,-1.203 -0.664,0 -1.203,0.539 -1.203,1.203 C -1.203,-0.539 -0.664,0 0,0 m 8.04,0.022 c 0.679,0 1.229,-0.55 1.229,-1.228 0,-0.678 -0.55,-1.228 -1.229,-1.228 -0.678,0 -1.228,0.55 -1.228,1.228 0,0.678 0.55,1.228 1.228,1.228 m 4.807,-5.181 v 0.941 c -0.026,0.268 -0.066,0.531 -0.121,0.79 -0.484,2.291 -2.082,4.232 -4.275,5.359 L 9.8,4.419 C 9.883,4.573 9.826,4.766 9.672,4.85 9.518,4.933 9.325,4.876 9.242,4.722 L 7.876,2.202 C 6.715,2.701 5.413,2.981 4.038,2.981 2.652,2.981 1.341,2.697 0.174,2.191 L -1.198,4.722 C -1.282,4.876 -1.474,4.933 -1.629,4.85 -1.783,4.766 -1.84,4.573 -1.756,4.419 l 1.355,-2.501 c -2.09,-1.083 -3.636,-2.906 -4.184,-5.067 -0.143,-0.56 -0.218,-1.144 -0.218,-1.743 0,-0.089 0.002,-0.179 0.005,-0.267 z" />
      </g>
      <g
         transform="translate(298.6218,416.7342)"
         id="g82">
        <path
           inkscape:connector-curvature="0"
           id="path84"
           style="fill:#b2b2b2;fill-opacity:1;fill-rule:nonzero;stroke:none"
           d="M 0,0 C -0.003,0.162 0.02,0.323 0.045,0.483 0.018,0.322 -0.003,0.162 0,0" />
      </g>
      <g
         transform="translate(300.4792,418.2009)"
         id="g86">
        <path
           inkscape:connector-curvature="0"
           id="path88"
           style="fill:#b2b2b2;fill-opacity:1;fill-rule:nonzero;stroke:none"
           d="M 0,0 C -0.026,0.043 -0.065,0.059 -0.094,0.095 -0.05,0.045 -0.01,-0.009 0.028,-0.067 0.017,-0.046 0.012,-0.02 0,0" />
      </g>
      <g
         transform="translate(300.0547,418.5646)"
         id="g90">
        <path
           inkscape:connector-curvature="0"
           id="path92"
           style="fill:#b2b2b2;fill-opacity:1;fill-rule:nonzero;stroke:none"
           d="M 0,0 C 0.056,-0.026 0.109,-0.057 0.159,-0.094 0.107,-0.055 0.056,-0.025 0,0" />
      </g>
      <g
         transform="translate(299.6967,418.6386)"
         id="g94">
        <path
           inkscape:connector-curvature="0"
           id="path96"
           style="fill:#b2b2b2;fill-opacity:1;fill-rule:nonzero;stroke:none"
           d="M 0,0 C 0.048,0.002 0.095,-0.006 0.143,-0.014 0.094,-0.008 0.049,0.003 0,0" />
      </g>
      <g
         transform="translate(299.0208,418.2136)"
         id="g98">
        <path
           inkscape:connector-curvature="0"
           id="path100"
           style="fill:#b2b2b2;fill-opacity:1;fill-rule:nonzero;stroke:none"
           d="M 0,0 C -0.005,-0.008 -0.006,-0.016 -0.011,-0.024 0,-0.007 0.011,0.007 0.023,0.023 0.016,0.013 0.006,0.01 0,0" />
      </g>
      <g
         transform="translate(298.7029,417.4351)"
         id="g102">
        <path
           inkscape:connector-curvature="0"
           id="path104"
           style="fill:#b2b2b2;fill-opacity:1;fill-rule:nonzero;stroke:none"
           d="M 0,0 C 0.024,0.102 0.067,0.201 0.103,0.3 0.065,0.2 0.026,0.101 0,0" />
      </g>
      <g
         transform="translate(299.3017,418.4985)"
         id="g106">
        <path
           inkscape:connector-curvature="0"
           id="path108"
           style="fill:#b2b2b2;fill-opacity:1;fill-rule:nonzero;stroke:none"
           d="M 0,0 C 0.022,0.016 0.041,0.036 0.064,0.049 0.041,0.036 0.023,0.016 0,0" />
      </g>
      <g
         transform="translate(301.1117,416.1479)"
         id="g110">
        <path
           inkscape:connector-curvature="0"
           id="path112"
           style="fill:#b2b2b2;fill-opacity:1;fill-rule:nonzero;stroke:none"
           d="M 0,0 C 0.137,-0.05 0.345,-0.033 0.467,-0.045 0.314,-0.03 0.16,-0.015 0,0" />
      </g>
      <g
         transform="translate(299.8593,412.0994)"
         id="g114">
        <path
           inkscape:connector-curvature="0"
           id="path116"
           style="fill:#b2b2b2;fill-opacity:1;fill-rule:nonzero;stroke:none"
           d="M 0,0 C 0.159,-0.191 0.32,-0.347 0.488,-0.469 0.32,-0.347 0.159,-0.191 0,0" />
      </g>
      <g
         transform="translate(298.7041,416.1014)"
         id="g118">
        <path
           inkscape:connector-curvature="0"
           id="path120"
           style="fill:#b2b2b2;fill-opacity:1;fill-rule:nonzero;stroke:none"
           d="M 0,0 C -0.049,0.207 -0.077,0.418 -0.082,0.63 -0.078,0.42 -0.054,0.211 0,0" />
      </g>
      <g
         transform="translate(300.9854,416.2883)"
         id="g122">
        <path
           inkscape:connector-curvature="0"
           id="path124"
           style="fill:#b2b2b2;fill-opacity:1;fill-rule:nonzero;stroke:none"
           d="M 0,0 C -0.007,0.137 -0.02,0.273 -0.036,0.408 -0.023,0.271 -0.009,0.131 -0.005,0.01 -0.005,0.005 0,0.004 0,0" />
      </g>
      <g
         transform="translate(308.0441,394.4666)"
         id="g126">
        <path
           inkscape:connector-curvature="0"
           id="path128"
           style="fill:#b2b2b2;fill-opacity:1;fill-rule:nonzero;stroke:none"
           d="m 0,0 c -0.062,-1.289 -0.28,-2.571 -0.437,-3.897 -0.582,0.151 -0.615,0.426 -0.516,0.773 0.173,0.609 0.386,1.212 0.491,1.833 0.071,0.424 -0.013,0.875 -0.029,1.344 -0.903,-0.7 -1.605,-1.48 -2.48,-1.857 -0.899,-0.387 -1.974,-0.539 -2.96,-0.499 -0.92,0.037 -1.824,0.462 -2.67,0.697 0.22,-0.728 0.437,-1.367 0.591,-2.022 0.031,-0.134 -0.178,-0.325 -0.361,-0.485 0.041,1.274 -0.645,2.221 -1.305,3.174 1.402,0.67 1.516,1.539 0.373,2.505 -1.291,1.091 -2.587,2.177 -3.875,3.272 -1.04,0.883 -1.388,2.706 -0.685,3.976 0,-0.719 -0.069,-1.338 0.023,-1.932 0.069,-0.438 0.329,-0.853 0.547,-1.254 0.065,-0.12 0.323,-0.257 0.406,-0.215 0.138,0.07 0.256,0.267 0.291,0.43 0.052,0.244 0.04,0.506 0.031,0.759 -0.077,2.253 0.706,4.211 2.03,5.99 0.071,0.095 0.113,0.271 0.076,0.378 -0.25,0.719 -0.044,1.364 0.262,2.01 0.383,0.808 0.74,1.628 1.139,2.511 0.225,-0.3 0.492,-0.659 0.762,-1.016 0.846,-1.118 1.259,-1.185 2.429,-0.428 0.867,0.562 1.75,1.099 2.614,1.666 0.13,0.085 0.192,0.274 0.286,0.415 -0.172,0.018 -0.374,0.104 -0.51,0.042 -0.807,-0.365 -1.575,-0.824 -2.399,-1.137 -0.756,-0.287 -1.318,-0.235 -1.821,0.131 -0.168,0.122 -0.328,0.278 -0.488,0.469 v 0 c 0.024,0.028 0.054,0.082 0.071,0.079 1.895,-0.383 3.413,0.73 5.067,1.29 0.128,0.043 0.215,0.223 0.301,0.353 0.011,0.017 -0.112,0.172 -0.15,0.164 -0.133,-0.029 -0.269,-0.084 -0.381,-0.161 -1.319,-0.91 -2.807,-1.212 -4.372,-1.186 -0.848,0.014 -1.171,0.83 -1.719,1.29 -0.065,0.055 0.152,0.57 0.341,0.777 0.339,0.368 0.768,0.651 1.138,0.993 0.441,0.407 0.423,1.275 -0.013,1.687 -0.35,0.33 -0.948,0.16 -1.134,-0.322 -0.208,-0.539 -0.023,-1.113 0.54,-1.587 -0.256,-0.374 -0.47,-0.32 -0.626,0.008 -0.095,0.198 -0.167,0.405 -0.218,0.617 -0.054,0.21 -0.078,0.42 -0.082,0.629 0,0.001 0,0.003 0,0.004 -0.004,0.162 0.018,0.322 0.045,0.483 0.011,0.073 0.019,0.145 0.036,0.218 0.026,0.1 0.065,0.2 0.103,0.3 0.031,0.083 0.047,0.17 0.087,0.251 0.034,0.069 0.074,0.138 0.117,0.203 0.005,0.008 0.006,0.016 0.011,0.024 0.006,0.01 0.016,0.013 0.022,0.023 0.074,0.103 0.161,0.19 0.259,0.262 0.022,0.015 0.041,0.036 0.064,0.049 0.078,0.047 0.162,0.084 0.254,0.099 0.026,0.004 0.051,-0.009 0.077,-0.008 0.049,0.003 0.094,-0.007 0.143,-0.014 0.075,-0.012 0.145,-0.027 0.215,-0.06 0.056,-0.025 0.106,-0.055 0.159,-0.094 0.022,-0.017 0.052,-0.024 0.073,-0.043 0.039,-0.035 0.063,-0.091 0.098,-0.131 0.029,-0.037 0.068,-0.053 0.094,-0.096 0.013,-0.02 0.017,-0.046 0.028,-0.067 0.264,-0.403 0.394,-0.943 0.442,-1.437 0.016,-0.135 0.029,-0.271 0.036,-0.408 0.007,-0.076 0.059,-0.116 0.127,-0.141 0.159,-0.015 0.314,-0.03 0.467,-0.044 v 0 c 0.301,-0.029 0.603,-0.058 0.904,-0.087 0.022,0.465 0.003,0.946 0.078,1.413 0.127,0.799 0.718,1.306 1.514,1.374 0.727,0.063 1.41,-0.307 1.627,-1.042 0.182,-0.614 0.215,-1.277 0.263,-1.922 0.028,-0.386 -0.247,-0.609 -0.611,-0.541 -0.426,0.079 -0.179,0.398 -0.179,0.654 0.001,0.407 -0.016,0.859 -0.196,1.204 -0.123,0.236 -0.541,0.452 -0.815,0.439 -0.271,-0.012 -0.633,-0.267 -0.769,-0.517 -0.446,-0.818 -0.232,-1.378 0.605,-1.759 0.42,-0.191 0.858,-0.345 1.295,-0.495 0.46,-0.158 0.768,-0.434 0.598,-0.94 -0.412,-1.229 0.115,-2.156 0.664,-3.244 0.852,-1.691 1.732,-3.41 2.312,-5.216 C 1.211,9.756 1.2,8.425 1.365,7.152 1.431,6.646 1.316,6.021 2.073,5.936 2.698,5.865 3.125,6.28 3.294,7.054 3.632,8.602 3.205,10.029 2.583,11.414 2.273,12.104 1.892,12.762 1.556,13.411 2.013,13.17 2.638,12.438 3.036,11.396 3.341,10.596 3.565,9.742 3.67,8.893 3.776,8.032 3.693,7.146 3.693,6.272 3.631,6.267 3.57,6.262 3.508,6.257 3.814,6.052 4.121,5.847 4.555,5.558 2.174,6.01 1.622,5.84 1.183,4.602 0.114,4.385 -0.333,3.736 -0.239,2.456 -0.179,1.635 0.039,0.813 0,0 M 8.743,0.36 C 8.01,0.788 7.522,1.389 7.328,2.219 7.248,2.564 7.176,2.91 7.075,3.373 6.492,2.016 7.081,0.553 8.287,0.041 8.634,-0.106 8.984,-0.276 9.279,-0.505 9.754,-0.873 9.757,-1.247 9.258,-1.574 8.804,-1.871 8.305,-2.132 7.789,-2.297 6.379,-2.748 5.106,-3.417 3.994,-4.4 3.743,-4.621 3.449,-4.809 3.147,-4.951 1.67,-5.647 0.372,-4.818 0.37,-3.186 c 0,0.295 0.023,0.592 0.063,0.884 0.187,1.35 0.205,2.686 -0.13,4.026 C 0.188,2.182 0.172,2.701 0.263,3.162 0.337,3.538 0.636,3.87 0.836,4.222 1.126,3.953 1.428,3.696 1.701,3.41 1.813,3.293 1.86,3.115 1.941,2.966 2.257,2.379 2.792,2.14 3.415,2.158 4.106,2.179 4.744,2.399 5.217,2.951 5.506,3.288 5.73,3.725 6.089,3.947 7.009,4.518 7.064,5.4 6.992,6.284 c -0.25,3.072 -1.333,5.829 -3.316,8.203 -0.911,1.092 -1.779,2.201 -2.294,3.546 -0.643,1.68 -0.874,3.419 -0.881,5.215 -0.011,2.571 -1.48,5.695 -5.315,6.127 -2.96,0.334 -5.458,-1.334 -5.527,-4.455 -0.036,-1.624 -0.103,-3.274 0.131,-4.871 0.276,-1.881 -0.13,-3.444 -1.35,-4.852 -0.304,-0.35 -0.592,-0.724 -0.825,-1.124 -0.626,-1.068 -1.265,-2.134 -1.811,-3.244 -0.567,-1.151 -1.026,-2.355 -1.541,-3.532 -0.354,-0.81 -0.563,-1.626 -0.213,-2.553 0.912,0.539 1.555,0.085 2.159,-0.504 0.166,-0.162 0.344,-0.319 0.475,-0.508 1.092,-1.581 2.21,-3.147 3.241,-4.768 0.365,-0.573 0.578,-1.268 0.741,-1.937 0.277,-1.139 -0.268,-1.954 -1.426,-2.191 -0.38,-0.078 -0.809,-0.081 -1.186,0.008 -1.641,0.39 -3.269,0.834 -4.906,1.243 -0.696,0.173 -1.41,0.28 -2.101,0.469 -0.622,0.169 -0.805,0.485 -0.509,1.034 0.548,1.018 0.63,1.992 0.007,2.992 -0.033,0.053 -0.053,0.115 -0.071,0.176 -0.218,0.736 0.014,1.03 0.777,1.03 0.398,0 0.808,-0.002 1.192,0.086 0.952,0.217 1.419,0.988 1.195,1.91 -0.37,-1.072 -1.155,-1.521 -2.233,-1.548 -0.168,-0.004 -0.337,-0.022 -0.503,-0.052 -0.762,-0.141 -1.029,-0.381 -0.83,-1.113 0.347,-1.276 0.308,-2.474 -0.194,-3.696 -0.227,-0.554 0.068,-0.99 0.606,-1.222 0.27,-0.115 0.555,-0.217 0.843,-0.264 2.216,-0.359 4.372,-0.937 6.476,-1.717 1.025,-0.38 1.907,-0.129 2.798,0.478 0.611,0.417 1.346,0.844 2.052,0.894 1.976,0.141 3.966,0.123 5.948,0.081 0.359,-0.008 0.79,-0.366 1.044,-0.678 0.407,-0.501 0.852,-0.873 1.49,-0.987 1.106,-0.197 2.105,-0.114 2.981,0.759 1.305,1.3 2.987,2.038 4.586,2.901 1.746,0.942 1.74,1.75 0.041,2.74" />
      </g>
      <g
         transform="translate(298.6221,416.731)"
         id="g130">
        <path
           inkscape:connector-curvature="0"
           id="path132"
           style="fill:#b2b2b2;fill-opacity:1;fill-rule:nonzero;stroke:none"
           d="M 0,0 C 0,0.001 0,0.002 0,0.003 0,0.002 0,0.001 0,0" />
      </g>
      <g
         transform="translate(298.9219,415.4844)"
         id="g134">
        <path
           inkscape:connector-curvature="0"
           id="path136"
           style="fill:#b2b2b2;fill-opacity:1;fill-rule:nonzero;stroke:none"
           d="M 0,0 C -0.098,0.206 -0.165,0.411 -0.218,0.617 -0.167,0.405 -0.095,0.198 0,0" />
      </g>
      <g
         transform="translate(298.6669,417.2172)"
         id="g138">
        <path
           inkscape:connector-curvature="0"
           id="path140"
           style="fill:#b2b2b2;fill-opacity:1;fill-rule:nonzero;stroke:none"
           d="M 0,0 C 0.012,0.073 0.017,0.146 0.036,0.218 0.019,0.146 0.011,0.073 0,0" />
      </g>
      <g
         transform="translate(298.8927,417.9865)"
         id="g142">
        <path
           inkscape:connector-curvature="0"
           id="path144"
           style="fill:#b2b2b2;fill-opacity:1;fill-rule:nonzero;stroke:none"
           d="M 0,0 C -0.04,-0.081 -0.056,-0.168 -0.087,-0.251 -0.028,-0.099 0.029,0.054 0.118,0.204 0.074,0.138 0.034,0.069 0,0" />
      </g>
      <g
         transform="translate(300.2869,418.4272)"
         id="g146">
        <path
           inkscape:connector-curvature="0"
           id="path148"
           style="fill:#b2b2b2;fill-opacity:1;fill-rule:nonzero;stroke:none"
           d="M 0,0 C -0.021,0.019 -0.05,0.026 -0.073,0.043 -0.011,-0.003 0.045,-0.064 0.098,-0.131 0.063,-0.09 0.039,-0.035 0,0" />
      </g>
      <g
         transform="translate(301.1117,416.1479)"
         id="g150">
        <path
           inkscape:connector-curvature="0"
           id="path152"
           style="fill:#b2b2b2;fill-opacity:1;fill-rule:nonzero;stroke:none"
           d="M 0,0 C -0.068,0.025 -0.119,0.065 -0.126,0.14 -0.124,0.097 -0.123,0.054 -0.119,0.011 -0.078,0.007 -0.041,0.004 0,0" />
      </g>
      <g
         transform="translate(300.9492,416.6966)"
         id="g154">
        <path
           inkscape:connector-curvature="0"
           id="path156"
           style="fill:#b2b2b2;fill-opacity:1;fill-rule:nonzero;stroke:none"
           d="M 0,0 C -0.048,0.494 -0.178,1.033 -0.442,1.437 -0.236,1.066 -0.141,0.624 -0.029,0.205 -0.011,0.139 -0.008,0.069 0,0" />
      </g>
      <g
         transform="translate(299.9303,412.1783)"
         id="g158">
        <path
           inkscape:connector-curvature="0"
           id="path160"
           style="fill:#b2b2b2;fill-opacity:1;fill-rule:nonzero;stroke:none"
           d="m 0,0 c -0.018,0.004 -0.047,-0.051 -0.071,-0.079 v 0 C -0.047,-0.051 -0.018,0.004 0,0" />
      </g>
      <g
         transform="translate(299.6201,418.6461)"
         id="g162">
        <path
           inkscape:connector-curvature="0"
           id="path164"
           style="fill:#b2b2b2;fill-opacity:1;fill-rule:nonzero;stroke:none"
           d="m 0,0 c -0.092,-0.015 -0.176,-0.051 -0.254,-0.098 0.104,0.057 0.217,0.084 0.331,0.091 C 0.051,-0.009 0.026,0.004 0,0" />
      </g>
      <g
         transform="translate(301.5791,416.1031)"
         id="g166">
        <path
           inkscape:connector-curvature="0"
           id="path168"
           style="fill:#b2b2b2;fill-opacity:1;fill-rule:nonzero;stroke:none"
           d="M 0,0 V 0 C 0.306,-0.029 0.606,-0.058 0.904,-0.087 0.603,-0.058 0.301,-0.029 0,0" />
      </g>
      <g
         transform="translate(299.0435,418.2365)"
         id="g170">
        <path
           inkscape:connector-curvature="0"
           id="path172"
           style="fill:#b2b2b2;fill-opacity:1;fill-rule:nonzero;stroke:none"
           d="M 0,0 C 0.072,0.112 0.162,0.196 0.258,0.262 0.161,0.19 0.073,0.103 0,0" />
      </g>
      <g
         transform="translate(299.8398,418.6247)"
         id="g174">
        <path
           inkscape:connector-curvature="0"
           id="path176"
           style="fill:#b2b2b2;fill-opacity:1;fill-rule:nonzero;stroke:none"
           d="M 0,0 C 0.073,-0.01 0.145,-0.029 0.215,-0.06 0.145,-0.027 0.075,-0.012 0,0" />
      </g>
    </g>
  </g>
</svg>
