<svg id="Layer_1" data-name="Layer 1" xmlns="http://www.w3.org/2000/svg" viewBox="0 0 349.29 41.38"><defs><style>.cls-1{fill:#242a75;}.cls-2{fill:#2c286d;}.cls-3{fill:#5dbfd4;}</style></defs><title>Thales_LOGO_RGB</title><path class="cls-1" d="M375.28,79.23c0,5.62-1.63,7.28-6.11,8.63-4.85,1.47-13.46,2.38-18.59,2.38a94.39,94.39,0,0,1-20.07-1.87v-6.5h35.58V73H340.9c-7.57,0-10.39-2.08-10.39-9.48V59.7c0-5.83,1.73-7.59,6.46-8.81a83.85,83.85,0,0,1,17.66-2,97.5,97.5,0,0,1,20.09,1.92v6.5h-35v7.47h25.19c7.57,0,10.39,2,10.39,9.43v5" transform="translate(-25.99 -48.86)"/><path class="cls-1" d="M314.58,88.38a113,113,0,0,1-22,1.86,114.51,114.51,0,0,1-22.13-1.86V50.78a113.71,113.71,0,0,1,22-1.92,112.4,112.4,0,0,1,21.91,1.92v6.71H281.08V65h21.7v7.8h-21.7v8.87h33.5v6.71" transform="translate(-25.99 -48.86)"/><path class="cls-1" d="M257.74,88.38A90.69,90.69,0,0,1,238,90.24a91.92,91.92,0,0,1-19.84-1.86V49.8h10.62V81.18h28.93v7.2" transform="translate(-25.99 -48.86)"/><path class="cls-1" d="M205.46,88.61a49.16,49.16,0,0,1-11.7,1.44L177.4,57h-.91l-16.35,33A44.51,44.51,0,0,1,149,88.61l20.71-38.79h14.77l21,38.79" transform="translate(-25.99 -48.86)"/><path class="cls-2" d="M183.88,78.76A6.9,6.9,0,1,1,177,71.88a6.92,6.92,0,0,1,6.93,6.88" transform="translate(-25.99 -48.86)"/><path class="cls-1" d="M136.2,88.66a41.25,41.25,0,0,1-10.62,1.39V73.2H99.19V90.05a41.25,41.25,0,0,1-10.62-1.39V50.54a41.26,41.26,0,0,1,10.62-1.4V65.41h26.39V49.14a41.26,41.26,0,0,1,10.62,1.4V88.66" transform="translate(-25.99 -48.86)"/><path class="cls-1" d="M73.77,57.58H55.14v31.8H44.63V57.58H26V50.8a133.62,133.62,0,0,1,23.92-1.92A132.82,132.82,0,0,1,73.77,50.8v6.78" transform="translate(-25.99 -48.86)"/><path class="cls-1" d="M375.28,79.23c0,5.62-1.63,7.28-6.11,8.63-4.85,1.47-13.46,2.38-18.59,2.38a94.39,94.39,0,0,1-20.07-1.87v-6.5h35.58V73H340.9c-7.57,0-10.39-2.08-10.39-9.48V59.7c0-5.83,1.73-7.59,6.46-8.81a83.85,83.85,0,0,1,17.66-2,97.5,97.5,0,0,1,20.09,1.92v6.5h-35v7.47h25.19c7.57,0,10.39,2,10.39,9.43v5" transform="translate(-25.99 -48.86)"/><path class="cls-1" d="M314.58,88.38a113,113,0,0,1-22,1.86,114.51,114.51,0,0,1-22.13-1.86V50.78a113.71,113.71,0,0,1,22-1.92,112.4,112.4,0,0,1,21.91,1.92v6.71H281.08V65h21.7v7.8h-21.7v8.87h33.5v6.71" transform="translate(-25.99 -48.86)"/><path class="cls-1" d="M257.74,88.38A90.69,90.69,0,0,1,238,90.24a91.92,91.92,0,0,1-19.84-1.86V49.8h10.62V81.18h28.93v7.2" transform="translate(-25.99 -48.86)"/><path class="cls-1" d="M205.46,88.61a49.16,49.16,0,0,1-11.7,1.44L177.4,57h-.91l-16.35,33A44.51,44.51,0,0,1,149,88.61l20.71-38.79h14.77l21,38.79" transform="translate(-25.99 -48.86)"/><path class="cls-3" d="M183.88,78.76A6.9,6.9,0,1,1,177,71.88a6.92,6.92,0,0,1,6.93,6.88" transform="translate(-25.99 -48.86)"/><path class="cls-1" d="M136.2,88.66a41.25,41.25,0,0,1-10.62,1.39V73.2H99.19V90.05a41.25,41.25,0,0,1-10.62-1.39V50.54a41.26,41.26,0,0,1,10.62-1.4V65.41h26.39V49.14a41.26,41.26,0,0,1,10.62,1.4V88.66" transform="translate(-25.99 -48.86)"/><path class="cls-1" d="M73.77,57.58H55.14v31.8H44.63V57.58H26V50.8a133.62,133.62,0,0,1,23.92-1.92A132.82,132.82,0,0,1,73.77,50.8v6.78" transform="translate(-25.99 -48.86)"/></svg>