<svg xmlns="http://www.w3.org/2000/svg" xmlns:xlink="http://www.w3.org/1999/xlink" viewBox="0 0 909.4674 250.1956"><defs><style>.cls-1{fill:#263449;}.cls-2{fill:url(#linear-gradient);}.cls-3{fill:url(#linear-gradient-2);}</style><linearGradient id="linear-gradient" x1="112.9522" y1="60.4428" x2="0" y2="60.4428" gradientUnits="userSpaceOnUse"><stop offset="0" stop-color="#82f8a7"/><stop offset="0.3914" stop-color="#58e9c4"/><stop offset="1" stop-color="#10cff5"/></linearGradient><linearGradient id="linear-gradient-2" x1="137.2245" y1="189.7549" x2="250.1956" y2="189.7549" xlink:href="#linear-gradient"/></defs><title>full-logo1-gradient</title><g id="Layer_2" data-name="Layer 2"><g id="full_logo1"><path d="M395.3274,16.1078a3.4252,3.4252,0,0,1-.76,1.1077L337.59,75.639h56.144c1.0057,0,1.8211,1.0825,1.8211,2.4178h0c0,1.3353-.8154,2.4178-1.8211,2.4178H336.3746a1.8478,1.8478,0,0,1-1.5168-.9062,3.1331,3.1331,0,0,1-.6826-2.0139V74.33a2.8883,2.8883,0,0,1,.3034-1.41,2.07,2.07,0,0,1,.7584-1.1076l56.9791-58.4235h-56.22c-1.0058,0-1.8211-1.0825-1.8211-2.4178h0c0-1.3354.8153-2.4178,1.8211-2.4178h57.3575a2.2843,2.2843,0,0,1,1.5944.8055,3.5546,3.5546,0,0,1,.6068,2.1146v3.2245A4.1235,4.1235,0,0,1,395.3274,16.1078Z"/><path d="M393.7343,82.0446H336.3749a3.4123,3.4123,0,0,1-2.7724-1.5288,4.7159,4.7159,0,0,1-.9983-2.9611V74.33a4.5436,4.5436,0,0,1,.4217-2.0226,3.6437,3.6437,0,0,1,1.1808-1.6867l54.2848-55.6612H335.9962c-1.9015,0-3.392-1.7519-3.392-3.9884s1.49-3.9877,3.392-3.9877H393.354a3.8443,3.8443,0,0,1,2.7571,1.3211,5.153,5.153,0,0,1,1.0136,3.17v3.224a5.6964,5.6964,0,0,1-.3281,1.9628l-.0383.0927a4.9788,4.9788,0,0,1-1.0842,1.5749l-54.36,55.74h52.42c1.9015,0,3.39,1.7519,3.39,3.9884S395.6358,82.0446,393.7343,82.0446Zm-57.99-4.8357v.3458a1.6376,1.6376,0,0,0,.2775.9592l.1672.22a.3645.3645,0,0,0,.1993.171l57.3456-.0008a1.421,1.421,0,0,0,.25-.8472,1.0731,1.0731,0,0,0-.3113-.8595Zm58.24-63.3834L336.1035,73.1223a.9819.9819,0,0,0-.1227.2515l-.1349.3159a1.3987,1.3987,0,0,0-.1012.64v.9515L393.443,16.1187a1.8764,1.8764,0,0,0,.4293-.6049,2.7233,2.7233,0,0,0,.112-.8158Zm-.6395-3.7017H335.9962a1.4041,1.4041,0,0,0-.2515.8472,1.0712,1.0712,0,0,0,.3113.86l57.9283-.0115v-.345a2.0646,2.0646,0,0,0-.2914-1.1716A.8243.8243,0,0,0,393.3448,10.1238Z"/><path d="M421.811,75.639h52.4251c.9848,0,1.7832,1.06,1.7832,2.3674v.1007c0,1.3076-.7984,2.3675-1.7832,2.3675H421.811c-.9848,0-1.7832-1.06-1.7832-2.3675v-.1007C420.0278,76.6989,420.8262,75.639,421.811,75.639Zm0-33.5428h52.4251c.9848,0,1.7832,1.06,1.7832,2.3675v.1007c0,1.3075-.7984,2.3675-1.7832,2.3675H421.811c-.9848,0-1.7832-1.06-1.7832-2.3675v-.1007C420.0278,43.1562,420.8262,42.0962,421.811,42.0962Zm5.4237-33.5427h47.0014c.9848,0,1.7832,1.06,1.7832,2.3674h0c0,1.3076-.7984,2.3675-1.7832,2.3675H421.811c-.9848,0-1.7832-1.06-1.7832-2.3675h0c0-1.3075.7984-2.3674,1.7832-2.3674Z"/><path d="M474.2362,82.0446H421.8114c-1.88,0-3.3536-1.73-3.3536-3.9371,0-2.3093,1.4736-4.039,3.3536-4.039h52.4248c1.88,0,3.3536,1.73,3.3536,3.9378C477.59,80.3149,476.1162,82.0446,474.2362,82.0446Zm-52.3711-4.8357a1.1144,1.1144,0,0,0-.2669.7974,1.1545,1.1545,0,0,0,.2883.9132l5.3486-.0154h47.0011a1.6219,1.6219,0,0,0,.2132-.7966,1.1552,1.1552,0,0,0-.2883-.9139Zm52.3711-28.7065H421.8114c-1.88,0-3.3536-1.73-3.3536-3.9378,0-2.3086,1.4736-4.0383,3.3536-4.0383h52.4248c1.88,0,3.3536,1.73,3.3536,3.937C477.59,46.7727,476.1162,48.5024,474.2362,48.5024Zm-52.3711-4.8357a1.1118,1.1118,0,0,0-.2669.7966,1.1555,1.1555,0,0,0,.2883.914l52.35-.0154a1.623,1.623,0,0,0,.2132-.7973,1.1543,1.1543,0,0,0-.2883-.9132ZM474.2362,14.859H421.8114c-1.88,0-3.3536-1.73-3.3536-3.9378s1.4736-3.9379,3.3536-3.9379h52.4248c1.88,0,3.3536,1.73,3.3536,3.9379S476.1162,14.859,474.2362,14.859Zm-52.4248-4.7352a1.6231,1.6231,0,0,0-.2132.7974,1.0435,1.0435,0,0,0,.2883.8127l52.35-.0154a1.623,1.623,0,0,0,.2132-.7973,1.0436,1.0436,0,0,0-.2883-.8128Z"/><path d="M557.7249,42.7483a3.0214,3.0214,0,0,0,0,3.53A16.785,16.785,0,0,1,560.9427,56.5v21.607c0,1.3076-.7984,2.3675-1.7832,2.3675h0c-.9848,0-1.7832-1.06-1.7832-2.3675V56.5c0-5.3391-3.263-9.5682-7.2086-9.5682H504.3933c-.9849,0-1.7832-1.06-1.7832-2.3675v-.1007c0-1.3075.7983-2.3675,1.7832-2.3675h43.9912c4.9455,0,8.9918-5.3721,8.9918-11.9381V22.9574c0-5.3392-3.263-9.669-7.2086-9.669H504.9883c-.9848,0-1.7832,1.06-1.7832,2.3675V78.1071c0,1.3076-.7983,2.3675-1.7832,2.3675h-.0758c-.9848,0-1.7832-1.06-1.7832-2.3675V15.3823c0-3.7715,2.3028-6.8288,5.1435-6.8288h45.4613c5.9193,0,10.775,6.4467,10.775,14.4039V32.528A16.78,16.78,0,0,1,557.7249,42.7483Z"/><path d="M559.159,82.0446c-1.88,0-3.3536-1.73-3.3536-3.9371V56.5c0-4.41-2.5287-7.9976-5.6369-7.9976H504.776V78.1075c0,2.2074-1.4737,3.9371-3.3536,3.9371a3.6491,3.6491,0,0,1-3.43-3.9371V15.3827c0-4.6318,3.0116-8.3994,6.7149-8.3994h45.4615c6.8069,0,12.3441,7.1657,12.3441,15.9737v9.5709a18.4,18.4,0,0,1-3.5407,11.1756h0a1.4662,1.4662,0,0,0,0,1.6193A18.41,18.41,0,0,1,562.5126,56.5V78.1075C562.5126,80.3149,561.039,82.0446,559.159,82.0446ZM501.1325,45.503V78.1075a1.0428,1.0428,0,0,0,.2883.812,1.7684,1.7684,0,0,0,.2147-.812V46.8325A4.2638,4.2638,0,0,1,501.1325,45.503Zm49.036-.1411c4.84,0,8.7773,4.9967,8.7773,11.1381V78.1075a1.0449,1.0449,0,0,0,.2868.8112c-.0736-.0422.1395-.3213.1395-.8112V56.5a15.2622,15.2622,0,0,0-2.8936-9.2673,4.5957,4.5957,0,0,1,0-5.44h0a15.2486,15.2486,0,0,0,2.8936-9.265V22.957c0-7.076-4.128-12.8332-9.2036-12.8332H504.707c-1.9383,0-3.5745,2.4082-3.5745,5.2589V43.5878a4.4216,4.4216,0,0,1,.503-1.3686V15.6556c0-2.2074,1.4721-3.9371,3.3521-3.9371h45.1809c4.84,0,8.7773,5.0419,8.7773,11.2385v7.201c0,7.4486-4.7367,13.5087-10.5607,13.5087H504.776v1.7106ZM504.776,40.5263h43.6091c4.0222,0,7.42-4.7483,7.42-10.3683V22.957c0-4.3894-2.5808-8.098-5.6369-8.098H504.9876a1.6313,1.6313,0,0,0-.2116.7966Z"/><path d="M593.4906,80.9425c-5.9934,0-10.8491-6.4468-10.8491-14.4039V23.4252c0-7.9571,4.8557-14.4039,10.8491-14.4039h39.7557c5.9193,0,10.775,6.4468,10.775,14.4039V66.5386c0,7.9571-4.8557,14.4039-10.775,14.4039Zm-7.2069-57.5173V66.5386c0,5.3391,3.1854,9.5682,7.2069,9.5682h39.7557c3.9456,0,7.2086-4.2291,7.2086-9.5682V23.4252c0-5.3391-3.263-9.6689-7.2086-9.6689H593.4906C589.4691,13.7563,586.2837,18.0861,586.2837,23.4252Z"/><path d="M633.2465,82.5131H593.4909c-6.8483,0-12.4192-7.1665-12.4192-15.9745V23.4255c0-8.808,5.5709-15.9745,12.4192-15.9745h39.7556c6.8069,0,12.3457,7.1665,12.3457,15.9745V66.5386C645.5922,75.3466,640.0534,82.5131,633.2465,82.5131ZM593.4909,10.5915c-5.1171,0-9.2788,5.7572-9.2788,12.834V66.5386c0,7.0767,4.1617,12.834,9.2788,12.834h39.7556c5.0757,0,9.2052-5.7573,9.2052-12.834V23.4255c0-7.0768-4.13-12.834-9.2052-12.834Zm39.7556,67.0859H593.4909c-4.9223,0-8.7774-4.8924-8.7774-11.1388V23.4255c0-6.3024,3.8551-11.2393,8.7774-11.2393h39.7556c4.8411,0,8.7789,5.0419,8.7789,11.2393V66.5386C642.0254,72.6807,638.0876,77.6774,633.2465,77.6774ZM593.4909,15.3267c-3.1083,0-5.6369,3.6334-5.6369,8.0988V66.5386c0,4.41,2.5286,7.9983,5.6369,7.9983h39.7556c3.11,0,5.6384-3.5882,5.6384-7.9983V23.4255c0-4.39-2.5823-8.0988-5.6384-8.0988Z"/><rect x="572.584" y="42.4226" width="83.3651" height="6.2812" transform="translate(182.546 484.8999) rotate(-49.7431)"/><path d="M681.2035,77.5659c.01-1.3263.822-2.3948,1.821-2.3948h45.1588c3.9456,0,7.2086-4.2291,7.2086-9.5682V22.49c0-5.3391-3.263-9.6689-7.2086-9.6689H683.0154c-.9893,0-1.7895-1.0693-1.7832-2.3827h0c.0063-1.3016.8028-2.3523,1.7832-2.3523h45.1679c5.9192,0,10.7749,6.4467,10.7749,14.4039V65.6029c0,7.9571-4.8557,14.4039-10.7749,14.4039H683.0245c-1.0125,0-1.8307-1.0966-1.821-2.4409Z"/><path d="M728.1826,81.5769H683.0247a3.1222,3.1222,0,0,1-2.2143-.9538,4.3177,4.3177,0,0,1-1.1777-3.0676v-.0023c.0184-2.2158,1.5074-3.9524,3.392-3.9524h45.1579c3.11,0,5.6384-3.5875,5.6384-7.9976V22.4893c0-4.39-2.5823-8.0988-5.6384-8.0988H683.0155a3.087,3.087,0,0,1-2.1882-.9407,4.2485,4.2485,0,0,1-1.1655-3.0193c.0108-2.1951,1.4829-3.9149,3.3537-3.9149h45.1671c6.8069,0,12.3456,7.1657,12.3456,15.9737V65.6032C740.5282,74.4112,734.99,81.5769,728.1826,81.5769Zm-45.4094-3.9992a1.1,1.1,0,0,0,.3128.87l45.0966-.0115c5.0756,0,9.2051-5.7572,9.2051-12.8332V22.4893c0-7.076-4.13-12.8332-9.2051-12.8332H683.0155a1.6119,1.6119,0,0,0-.2132.79,1.0408,1.0408,0,0,0,.2883.82l45.092-.0153c4.841,0,8.7788,5.0419,8.7788,11.2392V65.6032c0,6.1414-3.9378,11.138-8.7788,11.138H683.0247A1.42,1.42,0,0,0,682.7732,77.5777Z"/><path d="M766.0639,42.5641V78.575a2.148,2.148,0,0,1-1.818,2.3675h-.0773a2.1481,2.1481,0,0,1-1.8181-2.3675v-55.15c0-7.955,4.9523-14.4039,11.0611-14.4039h40.5328c6.035,0,10.9856,6.4468,10.9856,14.4039v55.15a2.1481,2.1481,0,0,1-1.8181,2.3675h0a2.148,2.148,0,0,1-1.818-2.3675v-55.15c0-5.3391-3.3268-9.6689-7.35-9.6689H773.4116c-4.058,0-7.3477,4.2838-7.3477,9.5682v19.24"/><path d="M823.1125,82.5131a3.655,3.655,0,0,1-3.3889-3.9379v-55.15c0-4.39-2.6467-8.0988-5.7795-8.0988H773.411c-3.1849,0-5.7764,3.5874-5.7764,7.9976V78.5752a3.46,3.46,0,1,1-6.8544,0v-55.15c0-8.808,5.666-15.9745,12.6308-15.9745h40.5331c6.9234,0,12.5557,7.1665,12.5557,15.9745v55.15C826.5,80.7833,825.0124,82.5131,823.1125,82.5131ZM773.411,12.1862h40.5331c4.9192,0,8.92,5.0419,8.92,11.2393v55.15a1.0119,1.0119,0,0,0,.299.8066,2.31,2.31,0,0,0,.1963-.8066v-55.15c0-7.0768-4.2231-12.834-9.4153-12.834H773.411c-5.2336,0-9.49,5.7572-9.49,12.834v55.15a1.0119,1.0119,0,0,0,.299.8066,1.1333,1.1333,0,0,0,.2745-.8066V23.3243C764.4941,17.1829,768.4948,12.1862,773.411,12.1862Z"/><path d="M906.3269,9.0213,875.484,51.6767a3.3964,3.3964,0,0,0-.6442,1.99V78.1857a1.8212,1.8212,0,0,1-1.8211,1.8211h0a1.8211,1.8211,0,0,1-1.8211-1.8211V53.6669a3.3963,3.3963,0,0,0-.6442-1.99L839.7122,9.0213H844.72l28.3,39.1711,28.3-39.1711Z"/><path d="M873.0194,81.5769a3.395,3.395,0,0,1-3.3919-3.3912V53.667a1.813,1.813,0,0,0-.3466-1.07L838.4391,9.9413a1.57,1.57,0,0,1,1.2727-2.49H844.72a1.5687,1.5687,0,0,1,1.2727.6509l27.0267,37.41L900.0461,8.1019a1.5687,1.5687,0,0,1,1.2727-.6509h5.0082a1.57,1.57,0,0,1,1.2727,2.49L876.7564,52.5966a1.813,1.813,0,0,0-.3466,1.07V78.1857A3.3947,3.3947,0,0,1,873.0194,81.5769ZM842.7848,10.5915l29.0416,40.165a4.9345,4.9345,0,0,1,.9415,2.91V78.1857c0,.276.5015.276.5015,0V53.667a4.9338,4.9338,0,0,1,.9415-2.91l29.0431-40.165h-1.1332l-27.8286,38.52a1.6278,1.6278,0,0,1-2.5455,0l-27.8287-38.52Z"/><path d="M352.89,242.085c-10.3358,0-18.7145-9.2407-18.7145-20.64V142.4912a3.3147,3.3147,0,0,1,3.1412-3.4644h0a3.3147,3.3147,0,0,1,3.1412,3.4644v78.9541c0,7.5723,5.566,13.7109,12.432,13.7109h76.17a3.3148,3.3148,0,0,1,3.1413,3.4644h0a3.3147,3.3147,0,0,1-3.1413,3.4644Z"/><path d="M429.06,245.2258H352.89c-12.0513,0-21.856-10.668-21.856-23.78V142.4915a6.29,6.29,0,1,1,12.5649,0v78.9539c0,5.8286,4.1679,10.5707,9.2911,10.5707h76.17a6.6132,6.6132,0,0,1,0,13.21ZM337.3165,142.444a.4565.4565,0,0,0-.0016.0475v78.9539c0,9.6491,6.9863,17.4995,15.5751,17.4995h76.1469c-.0552-.0107.023-.1242.023-.3243a.4706.4706,0,0,0-.1211-.3542l-76.0488.0306c-8.5857,0-15.572-7.56-15.572-16.8516V142.4915C337.318,142.4747,337.318,142.4593,337.3165,142.444Z"/><path d="M650.4221,142.3908a3.2454,3.2454,0,0,1,3.0768-3.3921l71.1526.0281c10.6371,0,19.3643,9.2378,19.3643,20.64V173.38c0,7.0714-2.9044,13.41-8.0853,17.1623,6.2221,3.2532,11.9183,9.301,11.9183,17.19v13.713c0,11.402-8.7272,20.64-19.3643,20.64l-74.9878-.0281a3.2457,3.2457,0,0,1-3.0746-3.3921V238.52a3.2455,3.2455,0,0,1,3.0767-3.3921l74.9857.0282c7.0907,0,12.9551-6.0627,12.9551-13.7109v-13.713c0-7.65-8.6942-14.3745-16.7881-13.713h-71.09a3.2456,3.2456,0,0,1-3.0757-3.3921v-.1447a3.2456,3.2456,0,0,1,3.0757-3.392h71.09c7.1253,0,12.9551-6.1709,12.9551-13.713V159.6666c0-7.65-5.8643-13.8556-12.9551-13.8556l-71.1548-.0282a3.2456,3.2456,0,0,1-3.0746-3.392Z"/><path d="M728.4847,245.2258l-74.9893-.0283a6.3885,6.3885,0,0,1-6.2134-6.5324,6.7893,6.7893,0,0,1,1.7144-4.6532,6.1038,6.1038,0,0,1,4.5006-2.0242h.003l74.9862.0284c5.41,0,9.8124-4.7421,9.8124-10.5707V207.732a9.619,9.619,0,0,0-3.4579-6.9,13.6709,13.6709,0,0,0-9.9335-3.6826l-.2561.0108h-71.09a6.6171,6.6171,0,0,1,0-13.21h71.09c5.413,0,9.8155-4.7429,9.8155-10.5723V159.6667c0-5.9083-4.4025-10.7156-9.8155-10.7156l-71.1557-.0276a6.5409,6.5409,0,0,1,.0031-13.0656l71.1541.0284c12.407,0,22.5031,10.6681,22.5031,23.78v13.7127a24.6843,24.6843,0,0,1-6.0264,16.6852c6.2426,4.5021,9.86,10.8766,9.86,17.6674v13.7134C750.9892,234.5578,740.8931,245.2258,728.4847,245.2258Zm-74.86-6.3093,74.862.0284c8.9445,0,16.2221-7.85,16.2221-17.4995V207.732a13.3745,13.3745,0,0,0-2.07-7.1128,14.4,14.4,0,0,1,1.9413,7.1128v13.7134c0,9.2918-7.2194,16.8516-16.0948,16.8516l-74.862-.0283a.505.505,0,0,0-.06.2514A.9291.9291,0,0,0,653.6242,238.9165ZM725.76,190.8344a18.6922,18.6922,0,0,1,5.7273.9262l-1.5058-.7874,4.108-2.9749c4.312-3.1236,6.7854-8.4522,6.7854-14.6189V159.6667c0-9.6491-7.2776-17.4995-16.2236-17.4995l-71.0284-.0283a.56.56,0,0,0,0,.5037l71.03.0276c8.874,0,16.0949,7.625,16.0949,16.9965v13.7111c0,9.2926-7.2209,16.8532-16.0964,16.8532h-70.964a.503.503,0,0,0-.06.2515.9335.9335,0,0,0,.0614.3964H724.53C724.9378,190.8489,725.3488,190.8344,725.76,190.8344Z"/><path d="M803.5893,238.693v-.1447a3.2455,3.2455,0,0,1,3.0757-3.3921h81.0767c6.8055,0,12.4339-6.0627,12.4339-13.7109v-13.713c0-7.65-5.6284-13.713-12.4339-13.713H822.2382c-12.0344,0-21.79-10.7594-21.79-24.0318v-6.9289c0-13.2724,9.7557-24.0318,21.79-24.0318h78.003a3.2455,3.2455,0,0,1,3.0756,3.3921h0a3.2455,3.2455,0,0,1-3.0756,3.3921h-78.003c-8.5646,0-15.5076,7.6572-15.5076,17.1029V173.38c0,7.5055,5.4972,13.7109,12.4319,13.7109h68.5792c10.2091,0,18.5852,9.2377,18.5852,20.6418v13.713c0,11.402-8.3761,20.64-18.5852,20.64H806.665A3.2454,3.2454,0,0,1,803.5893,238.693Z"/><path d="M887.7418,245.2258H806.6649a6.3886,6.3886,0,0,1-6.2165-6.5331v-.1442a6.3879,6.3879,0,0,1,6.2165-6.5324h81.0769c5.1232,0,9.2926-4.7421,9.2926-10.5707V207.732c0-5.8293-4.1694-10.5722-9.2926-10.5722H822.2384c-13.7472,0-24.93-12.1892-24.93-27.1724v-6.9288c0-14.9831,11.1832-27.1723,24.93-27.1723h78.0024a6.54,6.54,0,0,1,0,13.0648H822.2384c-6.8191,0-12.3671,6.2633-12.3671,13.9626v10.4657c0,5.8285,4.1679,10.5707,9.2911,10.5707h68.5794c11.9792,0,21.7256,10.6688,21.7256,23.7819v13.7134C909.4674,234.5578,899.721,245.2258,887.7418,245.2258Zm-80.9527-6.2809h80.9527c6.2242,0,11.6-4.1939,14.0432-10.2188a15.55,15.55,0,0,1-14.0432,9.5709H806.7891a.5008.5008,0,0,0-.06.2515v.1442A.5039.5039,0,0,0,806.7891,238.9449Zm10.3737-48.8519a16.7475,16.7475,0,0,0,5.0756.7859h65.5034A15.55,15.55,0,0,1,901.785,200.45c-2.4428-6.0248-7.819-10.2187-14.0432-10.2187H819.1624A14.4825,14.4825,0,0,1,817.1628,190.093Zm-13.5709-27.3648c-.0015.11-.003.22-.003.33v6.9288c0,.09,0,.18.0015.27v-7.3436C803.59,162.8516,803.59,162.79,803.5919,162.7282Zm18.6465-20.561c-8.9261,0-16.4077,7.0622-18.2278,16.4606,1.8171-9.1109,9.3-15.9576,18.2278-15.9576h77.8782a.5588.5588,0,0,0,0-.503Z"/><path d="M489.899,187.103v51.6137a3.2726,3.2726,0,0,1-3.1368,3.3933h-.1334a3.2726,3.2726,0,0,1-3.1369-3.3933V159.6716c0-11.4018,8.5446-20.6448,19.0849-20.6448h69.9357c10.4128,0,18.9547,9.24,18.9547,20.6448v79.0451A3.2727,3.2727,0,0,1,588.33,242.11h0a3.2727,3.2727,0,0,1-3.1369-3.3933V159.6716c0-7.6524-5.74-13.8583-12.6809-13.8583H502.5768c-7.0017,0-12.6778,6.14-12.6778,13.714V187.103"/><path d="M588.3309,245.25a6.4176,6.4176,0,0,1-6.2779-6.534V159.6713c0-5.91-4.28-10.7179-9.5409-10.7179H502.577c-5.26,0-9.5379,4.7437-9.5379,10.5738v79.1892a6.3466,6.3466,0,1,1-12.6876,0V159.6713c0-13.1154,9.97-23.785,22.2255-23.785h69.9351c12.183,0,22.0951,10.67,22.0951,23.785v79.0451A6.4163,6.4163,0,0,1,588.3309,245.25ZM502.577,142.1672c-8.7911,0-15.9446,7.8519-15.9446,17.5041v79.0451a.4011.4011,0,0,0,.0828.2653c-.0107-.0322.043-.12.043-.2653V159.5272c0-9.2934,7.0967-16.8547,15.8188-16.8547h69.9351c8.029,0,14.6795,6.458,15.6885,14.7922-.9814-8.614-7.6426-15.2975-15.6885-15.2975Z"/><path class="cls-1" d="M147.6613,65.6761H102.5349a4.95,4.95,0,0,0-3.5,1.4494L61.066,105.09a4.9465,4.9465,0,0,0-1.4489,3.4978v8.4014a4.9463,4.9463,0,0,0,1.4487,3.4976l68.6862,68.6862a4.9464,4.9464,0,0,0,3.4977,1.4488h8.532a4.9462,4.9462,0,0,0,3.5079-1.4591L183.07,151.16a4.9487,4.9487,0,0,0,1.45-3.4993V102.5342a4.9487,4.9487,0,0,0-1.45-3.4993L151.1605,67.1255A4.9488,4.9488,0,0,0,147.6613,65.6761Z"/><path class="cls-1" d="M162.6653,34.4019l51.6789,51.6786a4.9487,4.9487,0,0,1,1.45,3.4993v22.6386a.7439.7439,0,0,0,1.27.526l31.6826-31.6826a4.9486,4.9486,0,0,0,1.4494-3.4992V75.33a4.949,4.949,0,0,0-1.4494-3.4993L178.3645,1.4494A4.949,4.949,0,0,0,174.8652,0H130.0483a.7439.7439,0,0,0-.526,1.27l33.132,33.132Z"/><path class="cls-2" d="M34.4019,87.53,86.0812,35.8513A4.9486,4.9486,0,0,1,89.58,34.4019h22.6264a.7439.7439,0,0,0,.526-1.27L81.05,1.4494A4.9486,4.9486,0,0,0,77.551,0H75.33a4.949,4.949,0,0,0-3.4993,1.4494L1.4494,71.8311A4.949,4.949,0,0,0,0,75.33v44.81a.7439.7439,0,0,0,1.27.526l33.132-33.1326Z"/><path class="cls-3" d="M213.5788,164.8811l-.0006-.0006-49.4635,49.4637a4.9483,4.9483,0,0,1-3.4992,1.45H137.97a.7439.7439,0,0,0-.526,1.27l31.6825,31.6826a4.949,4.949,0,0,0,3.4993,1.4494h2.2395a4.9487,4.9487,0,0,0,3.4993-1.45l70.3817-70.3823a4.9486,4.9486,0,0,0,1.4494-3.4992V130.06a.7439.7439,0,0,0-1.27-.526Z"/><path class="cls-1" d="M85.4745,213.7376,35.8513,164.1144a4.9486,4.9486,0,0,1-1.4494-3.4992V137.9815a.7439.7439,0,0,0-1.27-.526L1.4494,169.138A4.949,4.949,0,0,0,0,172.6373v2.2273a4.9486,4.9486,0,0,0,1.4494,3.4992l70.3817,70.3823a4.9487,4.9487,0,0,0,3.4993,1.45h44.7982a.7439.7439,0,0,0,.526-1.27l-35.184-35.1838Z"/></g></g></svg>