<?xml version="1.0" encoding="utf-8"?>
<!-- Generator: Adobe Illustrator 22.0.1, SVG Export Plug-In . SVG Version: 6.00 Build 0)  -->
<svg version="1.1" id="Layer_1" xmlns="http://www.w3.org/2000/svg" xmlns:xlink="http://www.w3.org/1999/xlink" x="0px" y="0px"
	 viewBox="0 0 380 42.3" style="enable-background:new 0 0 380 42.3;" xml:space="preserve">
<style type="text/css">
	.st0{fill:#666666;}
	.st1{fill:#CCCCCC;}
	.st2{fill:#B18979;}
	.st3{fill:#DD2720;}
	.st4{clip-path:url(#SVGID_2_);fill:#DD2720;}
	.st5{clip-path:url(#SVGID_2_);fill:#B18979;}
	.st6{fill:none;stroke:#999999;stroke-width:0.5;}
	.st7{clip-path:url(#SVGID_4_);fill:#DD2720;}
	.st8{clip-path:url(#SVGID_4_);fill:#B18979;}
	.st9{clip-path:url(#SVGID_6_);fill:#DD2720;}
	.st10{clip-path:url(#SVGID_8_);fill:url(#SVGID_9_);}
	.st11{opacity:0.25;clip-path:url(#SVGID_11_);}
	.st12{clip-path:url(#SVGID_13_);}
	.st13{clip-path:url(#SVGID_15_);fill:url(#SVGID_16_);}
	.st14{fill:#FFFFFF;}
	.st15{clip-path:url(#SVGID_18_);fill:#FFFFFF;}
	.st16{clip-path:url(#SVGID_20_);fill:#DD2720;}
	.st17{fill:none;stroke:#CCCCCC;stroke-width:0.5;}
	.st18{fill:none;}
</style>
<g>
	<defs>
		<rect id="SVGID_1_" width="380" height="42.3"/>
	</defs>
	<clipPath id="SVGID_2_">
		<use xlink:href="#SVGID_1_"  style="overflow:visible;"/>
	</clipPath>
	<path class="st4" d="M327.3,42.1c-6.6,0-11.1-4.6-11.1-11.2c0-6.9,4.9-11.6,11.9-11.6c3.1,0,5.5,0.9,6.3,1.3l0.1,0l0,3.3l-0.2-0.1
		c-2.1-1.1-4.1-1.7-6.1-1.7c-5.2,0-8.5,3.2-8.5,8.5c0,5.3,3.2,8.6,8.4,8.6c2,0,3.2-0.4,3.8-0.7l0.1,0V30h3.2v10.3l-0.1,0
		C333.4,41.2,330.5,42.1,327.3,42.1"/>
	<polygon class="st5" points="0,17.6 12.6,8.1 25.1,17.6 12.6,0 	"/>
	<path class="st4" d="M140.5,31.7l8.4,10.5l2.8-2.4l-6.5-7.7c0,0,1.5-1.1,2.3-2c1-1.1,1.5-2.4,1.5-4c0-1.2-0.3-2.3-1-3.3
		c-0.7-0.9-1.6-1.7-2.7-2.1c-0.9-0.4-1.7-0.6-2.6-0.7c-0.9-0.1-1.8-0.2-2.7-0.2c0,0-3,0-3,0c0,0-2,0-2,0v0.5c0,0,0.1,7.7,0.1,7.7
		v2.9l0,6.7l-0.1,4.1h3.6l0-5.1l0-5.8l0-3.2l0-4.8h0.7c1.5,0,2.3,0.1,2.3,0.1c0.6,0,1.2,0.2,1.8,0.4c0.7,0.3,1.2,0.7,1.6,1.2
		c0.4,0.5,0.6,1.2,0.6,1.9c0,0.8-0.1,1.5-0.4,2c-0.3,0.5-0.6,0.9-0.9,1.3c-0.4,0.4-1,0.8-1.6,1.1C141.4,31.4,140.5,31.7,140.5,31.7"
		/>
	<path class="st4" d="M3.4,19.9v21.9H7L6.8,25.5l14.8,16.7V19.9h-3.5c0,0,0.2,11.4,0.2,12.9c-1-1.2-11.4-12.9-11.4-12.9H3.4z"/>
	<path class="st4" d="M103.4,19.9v21.9h3.5l-0.1-16.3l14.8,16.7V19.9H118c0,0,0.2,11.4,0.2,12.9c-1-1.2-11.4-12.9-11.4-12.9H103.4z"
		/>
	<path class="st4" d="M189.6,20.2l0,0.2l0.1,6l0,4.7l0,6.3l-0.1,4.4h0.5l6.4,0l4.8,0c0,0,2.3,0,2.3,0l1.6-3.1l-3.5,0l-3.9,0l-2.8,0
		c0,0-1.2,0-1.8,0c0-0.5,0-2.5,0-2.5c0,0,0-3.2,0-4.2h3l4.5,0l3.1,0l0-3.2l-2.8,0l-4.9,0h-2.9c0-0.5,0-2.9,0-2.9c0,0,0-2.3,0-3.1
		h3.6l4.5,0c0,0,2.4,0,2.4,0l0-3.2h-0.5c0,0-2,0-2,0c0,0-4.8,0-4.8,0l-3.4,0l-3.3,0L189.6,20.2z"/>
	<path class="st4" d="M73.2,41.7l0-4.2l0-5.6l0-4.5c0,0,0-3.4,0-4.4c0.5,0,5.1,0,5.1,0l2.1,0l1.6-3.1l-10.6,0l-10.7-0.1l1.6,3.1
		l2.4,0c0,0,3.8,0,4.9,0c0,0,0,0.6,0,4.4l0,4.5l0,5.6l0,4.2H73.2"/>
	<path class="st4" d="M170.4,26.1L170.4,26.1c-0.5-1.5-1.3-2.8-2.3-3.8c-0.9-0.9-1.9-1.7-3.1-2.2c-1.2-0.5-2.5-0.8-3.8-0.8
		c-1.4,0-2.7,0.3-3.9,0.8c-1.2,0.6-2.3,1.4-3.2,2.4c-1,1.1-1.7,2.3-2.1,3.7c-0.5,1.4-0.7,2.9-0.7,4.5c0,1.9,0.3,3.5,0.9,5
		c0.6,1.5,1.4,2.7,2.4,3.7c0.9,0.9,1.9,1.6,3,2.1c1.1,0.5,2.3,0.7,3.6,0.7c1.3,0,2.5-0.2,3.7-0.7c1.1-0.5,2.2-1.3,3.2-2.3
		c0.9-1,1.6-2.2,2.2-3.6c0.6-1.5,0.8-3.1,0.8-4.8C171.2,29.2,170.9,27.6,170.4,26.1 M167,34.7c-0.4,1.1-1,2-1.7,2.7
		c-0.6,0.6-1.2,1-1.9,1.4c-0.7,0.3-1.4,0.5-2.2,0.5c-0.8,0-1.6-0.2-2.2-0.5c-0.7-0.3-1.3-0.7-1.8-1.3c-0.8-0.8-1.4-1.7-1.8-2.8
		c-0.4-1.1-0.6-2.4-0.6-3.9c0-1.3,0.2-2.5,0.6-3.7c0.4-1.2,1-2.1,1.7-2.9c0.6-0.6,1.2-1.1,1.9-1.4c0.7-0.3,1.5-0.5,2.3-0.5
		c0.8,0,1.6,0.2,2.2,0.5c0.7,0.3,1.3,0.7,1.8,1.3c0.8,0.8,1.4,1.9,1.8,3.1c0.4,1.3,0.6,2.5,0.6,3.8C167.7,32.4,167.5,33.6,167,34.7"
		/>
	<path class="st4" d="M42.8,26.1L42.8,26.1c-0.5-1.5-1.3-2.8-2.3-3.8c-0.9-0.9-1.9-1.7-3.1-2.2c-1.2-0.5-2.5-0.8-3.8-0.8
		c-1.4,0-2.7,0.3-3.9,0.8c-1.2,0.6-2.3,1.4-3.2,2.4c-1,1.1-1.7,2.3-2.2,3.7c-0.5,1.4-0.7,2.9-0.7,4.5c0,1.9,0.3,3.5,0.9,5
		c0.6,1.5,1.4,2.7,2.4,3.7c0.9,0.9,1.9,1.6,3,2.1c1.1,0.5,2.3,0.7,3.6,0.7c1.3,0,2.5-0.2,3.7-0.7c1.1-0.5,2.2-1.3,3.2-2.3
		c0.9-1,1.7-2.2,2.2-3.6c0.6-1.5,0.8-3.1,0.8-4.8C43.5,29.2,43.3,27.6,42.8,26.1 M39.4,34.7c-0.4,1.1-1,2-1.7,2.7
		c-0.6,0.6-1.2,1-1.9,1.4c-0.7,0.3-1.4,0.5-2.2,0.5c-0.8,0-1.6-0.2-2.2-0.5c-0.7-0.3-1.3-0.7-1.8-1.3c-0.8-0.8-1.4-1.7-1.8-2.8
		c-0.4-1.1-0.6-2.4-0.6-3.9c0-1.3,0.2-2.5,0.6-3.7c0.4-1.2,1-2.1,1.7-2.9c0.6-0.6,1.2-1.1,1.9-1.4c0.7-0.3,1.5-0.5,2.3-0.5
		c0.8,0,1.6,0.2,2.2,0.5c0.7,0.3,1.3,0.7,1.8,1.3c0.8,0.8,1.4,1.9,1.8,3.1c0.4,1.3,0.6,2.5,0.6,3.8C40.1,32.4,39.9,33.6,39.4,34.7"
		/>
	<path class="st4" d="M100.1,26.1L100.1,26.1c-0.5-1.5-1.3-2.8-2.3-3.8c-0.9-0.9-1.9-1.7-3.1-2.2c-1.2-0.5-2.5-0.8-3.8-0.8
		c-1.4,0-2.7,0.3-3.9,0.8c-1.2,0.6-2.3,1.4-3.2,2.4c-1,1.1-1.7,2.3-2.2,3.7c-0.5,1.4-0.7,2.9-0.7,4.5c0,1.9,0.3,3.5,0.9,5
		c0.6,1.5,1.4,2.7,2.4,3.7c0.9,0.9,1.9,1.6,3,2.1c1.1,0.5,2.3,0.7,3.6,0.7c1.3,0,2.5-0.2,3.7-0.7c1.1-0.5,2.2-1.3,3.2-2.3
		c0.9-1,1.6-2.2,2.2-3.6c0.6-1.5,0.8-3.1,0.8-4.8C100.8,29.2,100.6,27.6,100.1,26.1 M96.7,34.7c-0.4,1.1-1,2-1.7,2.7
		c-0.6,0.6-1.2,1-1.9,1.4c-0.7,0.3-1.4,0.5-2.2,0.5c-0.8,0-1.6-0.2-2.3-0.5c-0.7-0.3-1.3-0.7-1.8-1.3c-0.8-0.8-1.4-1.7-1.8-2.8
		c-0.4-1.1-0.6-2.4-0.6-3.9c0-1.3,0.2-2.5,0.6-3.7c0.4-1.2,1-2.1,1.7-2.9c0.6-0.6,1.2-1.1,1.9-1.4c0.7-0.3,1.5-0.5,2.3-0.5
		c0.8,0,1.6,0.2,2.2,0.5c0.7,0.3,1.3,0.7,1.8,1.3c0.8,0.8,1.4,1.9,1.8,3.1c0.4,1.3,0.6,2.5,0.6,3.8C97.4,32.4,97.2,33.6,96.7,34.7"
		/>
	<path class="st4" d="M51.7,31.7l8.4,10.5l2.8-2.4l-6.5-7.7c0,0,1.5-1.1,2.3-2c1-1.1,1.5-2.4,1.5-4c0-1.2-0.3-2.3-1-3.3
		c-0.7-0.9-1.6-1.7-2.7-2.1c-0.9-0.4-1.7-0.6-2.6-0.7c-0.9-0.1-1.8-0.2-2.7-0.2c0,0-3,0-3,0c0,0-2,0-2,0v0.5c0,0,0.1,7.7,0.1,7.7
		v2.9l0,6.7L46,41.7h3.6l0-5.1l0-5.8l0-3.2l0-4.8h0.7c1.5,0,2.3,0.1,2.3,0.1c0.6,0,1.2,0.2,1.8,0.4c0.7,0.3,1.2,0.7,1.6,1.2
		c0.4,0.5,0.6,1.2,0.6,1.9c0,0.8-0.1,1.5-0.4,2c-0.3,0.5-0.6,0.9-0.9,1.3c-0.4,0.4-1,0.8-1.6,1.1C52.5,31.4,51.7,31.7,51.7,31.7"/>
	<path class="st4" d="M182,29.4l-1.4-0.6c-1.5-0.6-3.6-1.5-3.6-3.5c0-1.5,1.2-2.9,3.7-2.9c2.7,0,4.6,1,5.3,1.6v-3.4
		c-1.9-0.9-3.6-1.2-5.3-1.2c-4.3,0-7.5,2.6-7.5,6.2c0,1.4,0.5,2.6,1.4,3.7c1.1,1.3,2.6,2,3.8,2.5c0,0,1.4,0.6,1.4,0.6
		c1,0.4,2.1,0.9,2.7,1.6c0.4,0.5,0.7,1.2,0.7,1.9c0,1.4-1.1,3.5-4.2,3.4c-2.9-0.1-5.2-1.3-5.9-1.8v3.5c0.7,0.3,3.2,1.3,5.9,1.3
		c4.8,0,8.1-2.7,8.1-6.6C187,31.7,183.9,30.3,182,29.4"/>
	<path class="st4" d="M371.2,41.8l0-4.2l0-5.6l0-4.5c0,0,0-3.4,0-4.4c0.5,0,5.1,0,5.1,0l2.1,0l1.6-3.1l-10.6,0l-10.7,0l1.6,3.1
		l2.4,0c0,0,3.8,0,4.9,0c0,0,0,0.6,0,4.4l0,4.5l0,5.6l0,4.2H371.2"/>
	<path class="st4" d="M243.3,42.2c-1.4,0-2.7-0.2-3.8-0.6c-1.1-0.4-2.1-1-2.8-1.7c-0.8-0.7-1.4-1.6-1.7-2.6c-0.4-1-0.6-2.1-0.6-3.3
		c0-0.6,0-1.3,0-2.1c0-0.8,0-1.8,0-3c0-0.9,0-2.1,0-3.3c0-1.3,0-2.9,0-4.9v-0.8h3.6l0,0.8c0,0.2,0,1.1,0,2.6c0,1.5,0,3.4,0,5.9
		c0,0.7,0,1.5,0,2.3c0,0.8,0,1.6,0,2.4c0,1.7,0.5,3,1.4,3.9c1,0.9,2.3,1.3,4,1.3c1.8,0,3.2-0.4,4.1-1.2c0.9-0.8,1.3-2.1,1.3-3.9
		c0-0.8,0-1.6,0-2.4c0-0.8,0-1.6,0-2.3c0-2.4,0-4.4,0-6c0-1.5,0-2.4,0-2.5v-0.8h3.6v0.8c0,2,0,3.6,0,4.9c0,1.3,0,2.4,0,3.3
		c0,1.2,0,2.2,0,3c0,0.8,0,1.5,0,2.1c0,1.2-0.2,2.4-0.6,3.3c-0.4,1-1,1.8-1.7,2.6c-0.8,0.7-1.7,1.3-2.8,1.7
		C246,42,244.7,42.2,243.3,42.2"/>
	<path class="st4" d="M309.5,41.7l0-0.5c0-0.6,0-1.7,0-3.3c0-1.6,0-3.9,0-6.8c0-1.2,0-2.7,0-4.6c0-1.9,0-4.2-0.1-6.2l0-0.5h3.6
		l0,0.5c0,1.5,0,3.5-0.1,5.4c0,1.9,0,3.5,0,4.8c0,3.1,0,5.5,0,7.2c0,1.7,0,2.8,0,3.5l0.1,0.5H309.5z"/>
	<path class="st4" d="M353,41.8l0-0.5c0-0.6,0-1.7,0-3.4c0-1.5,0-3.4,0-5.7c-0.5,0-1.2,0-2.2,0c-1.7,0-2.9,0-3.8,0c-1,0-2.2,0-3.6,0
		c-0.8,0-1.4,0-1.8,0c0,2.6,0,4.6,0,5.9c0,1.5,0,2.5,0,3.1l0,0.5h-3.6l0-0.5c0-0.6,0-1.7,0-3.3c0-1.6,0-4.2,0-7.9c0-1.1,0-2.5,0-4.1
		c0-1.6-0.1-6-0.1-6h3.6v0.8c0,1.5,0,3.1,0,4.6c0,1.3,0,2.5,0,3.7c0.3,0,0.8,0,1.5,0c1.2,0,2.5,0,4,0c1.1,0,2.4,0,4,0
		c0.9,0,1.6,0,2,0c0-1.2,0-2.5,0-3.7c0-1.5,0-3,0-4.6v-0.8h3.6l0,0.8c0,1.5,0,3.3-0.1,5.4c0,2,0,3.7,0,5c0,3.1,0,5.3,0,6.9
		c0,1.6,0,2.7,0,3.3l0,0.5H353z"/>
	<path class="st4" d="M269,38.5c0,0-5.8,0-7.6,0c-0.5,0-1,0-1.6,0c-0.4,0-0.7,0-1,0c0-0.4,0-2.3,0-2.3c0-1.8,0-4,0-6.7
		c0-1.1,0-2.5,0-4.2c0-1.7,0-3.2,0-4.6l0-0.8h-3.6l0,0.8c0,0.6,0,1.7,0,3.2c0,1.5,0,3.8,0,6.6c0,1.7,0,3.5,0,5.3
		c0,1.8,0,3.6-0.1,5.4l0,0.5h0.5c0.7,0,11.6,0.1,11.6,0.1L269,38.5z"/>
	<path class="st4" d="M295.5,31.7l8.4,10.5l2.8-2.4l-6.5-7.7c0,0,1.5-1.1,2.3-2c1-1.1,1.5-2.4,1.5-4c0-1.2-0.3-2.3-1-3.3
		c-0.7-0.9-1.6-1.7-2.7-2.2c-0.9-0.4-1.7-0.6-2.6-0.7c-0.9-0.1-1.8-0.2-2.7-0.2l-3,0c0,0-2,0-2,0v0.5c0,0,0.1,7.7,0.1,7.7V31l0,6.7
		l-0.1,4.1h3.6l0-5.1c0,0,0-5.8,0-5.8l0-3.2l0-4.8h0.7c1.5,0,2.3,0.1,2.3,0.1c0.6,0,1.2,0.2,1.8,0.4c0.7,0.3,1.2,0.7,1.6,1.2
		c0.4,0.5,0.6,1.2,0.6,1.9c0,0.8-0.1,1.5-0.4,2c-0.3,0.5-0.6,0.9-0.9,1.3c-0.4,0.4-1,0.8-1.6,1.1C296.4,31.4,295.5,31.7,295.5,31.7"
		/>
	<path class="st4" d="M223.6,29.6h-3c0-1,0-4.2,0-4.2s0-2,0-2.5c0.6,0,1.8,0,1.8,0l2.8,0l3.9,0l0,0l1.9,0l1.6-3.1l-3.9,0l0,0l-4.7,0
		c0,0-6.4,0-6.4,0H217l0.1,4.4l0,6.3l0,4.7l-0.1,6.5l3.5,0l0-6.2c0,0,0-2.4,0-2.9h2.9c0,0,4.9,0,4.9,0l2.8,0l0-3.2l-3.1,0
		L223.6,29.6z"/>
	<path class="st4" d="M286.4,33c-0.2-0.6-0.6-1.1-1.1-1.6c-0.5-0.5-1.2-1-1.9-1.3c-0.3-0.1-0.6-0.2-0.9-0.3l-0.2-0.1l0.2-0.1
		c0.5-0.3,0.9-0.7,1.3-1.2c0.7-0.9,1.1-1.9,1.1-3.1c0-1.1-0.3-2.1-0.9-2.8c-0.6-0.8-1.4-1.3-2.4-1.7c-0.7-0.3-1.5-0.5-2.4-0.6
		c-0.9-0.1-1.9-0.2-3-0.2c-1,0-1.9,0-2.9,0.1c-1.1,0-1.6,0.1-1.7,0.1l-0.4,0v0.4c0,0.1,0,1,0,2.8c0,1.8,0,4.2,0,7.3
		c0,1.6,0,3.3,0,5.1c0,1.8,0,3.7-0.1,5.7l0,0.4l0.4,0c0.1,0,0.7,0,1.8,0.1c1.1,0,2.1,0.1,3.2,0.1c1.4,0,2.7-0.1,3.8-0.3
		c1.1-0.2,2.2-0.6,3.1-1.1c1.1-0.6,1.9-1.3,2.5-2.2c0.6-0.9,0.9-1.9,0.9-3C286.8,34.3,286.7,33.6,286.4,33 M283.1,36.8
		c-0.3,0.4-0.6,0.8-1.2,1.1c-0.6,0.4-1.4,0.6-2.4,0.7c-1,0.1-2.1,0.2-3.3,0.2c-0.3,0-0.6,0-1,0c-0.1,0-0.6,0-0.7,0
		c0-0.5,0-1.3,0-2.4c0-1.8,0-3.6,0-5.4c0-0.8,0-2,0-3.7c0-1.5,0-3,0-4.3c0.1,0,0.5,0,0.6,0c0.4,0,0.8,0,1.3,0c0.7,0,1.4,0,2,0.2
		c0.6,0.1,1.1,0.3,1.5,0.4c0.5,0.2,0.8,0.5,1.1,0.9c0.3,0.4,0.4,0.8,0.4,1.3c0,0.5-0.1,1-0.3,1.4c-0.2,0.4-0.6,0.8-0.9,1
		c-0.4,0.3-0.9,0.5-1.4,0.6c-0.5,0.1-1.2,0.2-1.9,0.3l-0.6,0v2.7l0,0.2h0.8c0.1,0,0.4,0,0.7,0c0.4,0,0.8,0,1.4,0
		c0.7,0,1.3,0.1,1.8,0.3c0.5,0.2,1,0.4,1.3,0.7c0.3,0.3,0.6,0.7,0.7,1.1c0.2,0.4,0.2,0.8,0.2,1.2C283.5,35.8,283.4,36.3,283.1,36.8"
		/>
</g>
</svg>
