<?xml version="1.0" encoding="utf-8"?>
<!-- Generator: Adobe Illustrator 22.1.0, SVG Export Plug-In . SVG Version: 6.00 Build 0)  -->
<!DOCTYPE svg PUBLIC "-//W3C//DTD SVG 1.1//EN" "http://www.w3.org/Graphics/SVG/1.1/DTD/svg11.dtd">
<svg version="1.1" id="Layer_1" xmlns="http://www.w3.org/2000/svg" xmlns:xlink="http://www.w3.org/1999/xlink" x="0px" y="0px"
	 viewBox="0 0 340.2 170.1" style="enable-background:new 0 0 340.2 170.1;" xml:space="preserve">
<style type="text/css">
	.st0{fill:#005486;}
	.st1{fill-rule:evenodd;clip-rule:evenodd;fill:#65B22E;}
	.st2{fill:#FFFFFF;}
</style>
<g>
	<g>
		<path class="st0" d="M39.6,106.6c0-6,4.9-9.7,12.9-9.7c8,0,12.9,3.6,12.9,9.7c0,6.1-4.9,9.7-12.9,9.7
			C44.6,116.2,39.6,112.6,39.6,106.6z M33.3,129.7h6.4V116c3.6,3.2,7.9,4.7,13.5,4.7c11.2,0,19-5.7,19-14.2
			c0-8.4-7.8-14.2-18.9-14.2c-6,0-10.3,1.7-13.6,4.7V93h-6.4V129.7z"/>
		<path class="st0" d="M113.4,120.1h-6.3v-4.7c-3.9,3.7-8.6,5.4-14.6,5.4c-4.7,0-8.3-1.1-10.6-3.2c-2.6-2.3-2.8-5.1-2.8-9.2V93h6.4
			v15.7c0,5.5,2.1,7.9,8.5,7.9c7.5,0,13.1-3.8,13.1-9.9V93h6.4V120.1z"/>
		<path class="st0" d="M129.2,106.7c0-6,4.9-9.7,12.9-9.7c8,0,12.9,3.6,12.9,9.7c0,6.1-4.9,9.7-12.9,9.7
			C134.2,116.4,129.2,112.7,129.2,106.7z M122.9,83.5v36.6h6.4v-3.9c3.5,3.1,7.9,4.7,13.6,4.7c11.1,0,18.9-5.8,18.9-14.2
			c0-8.4-7.7-14.2-18.9-14.2c-5.7,0-10,1.5-13.6,4.7V83.5H122.9z"/>
		<path class="st0" d="M169.3,83.5h6.4v36.6h-6.4V83.5z"/>
		<path class="st0" d="M185.9,93h6.4v27.1h-6.4V93z M185.9,89.4v-5.9h6.4v5.9H185.9z"/>
		<path class="st0" d="M216.4,116.5c1.2,0,2.6-0.2,4.3-0.5v4.5c-2.2,0.3-4.1,0.5-5.9,0.5c-6.2,0-9.1-2-9.1-6.2V97.2h-6.1V93h6.1
			v-6.9h6.4V93h8.6v4.2h-8.6v16.1C212.1,115.6,213.3,116.5,216.4,116.5z"/>
		<path class="st0" d="M231.6,104c1.1-4.6,5.7-7.4,12.4-7.4c6.8,0,11.4,2.8,12.4,7.4H231.6z M231.4,107.5h31.9c0-0.3,0-0.7,0-1
			c0-9-7.2-14.4-19.2-14.4c-11.8,0-19.4,5.7-19.4,14.4c0,8.8,7.5,14.5,19.4,14.5c9.4,0,16.1-3.5,18.6-9.4h-7.4
			c-1.4,3-5.6,4.9-11.2,4.9c-7.5,0-12.6-3.6-12.6-8.8C231.4,107.6,231.4,107.5,231.4,107.5z"/>
		<path class="st0" d="M271.3,83.5h6.4v21.4L296.1,93h9.5l-16.7,10.3l18,16.8h-8.6l-14.1-13.8l-6.5,4v9.8h-6.4V83.5z"/>
	</g>
	<g>
		<path class="st1" d="M267.9,49.1c0,14.1-11.5,25.6-25.6,25.6c-14.1,0-25.6-11.5-25.6-25.6s11.5-25.6,25.6-25.6
			C256.4,23.5,267.9,35,267.9,49.1L267.9,49.1z"/>
		<path class="st2" d="M234.9,40.3h9.1c2.1,0,3.6,0.1,4.4,0.2c1.2,0.3,2.2,0.8,3,1.6c0.8,0.8,1.1,1.8,1.1,3c0,1.6-0.6,2.8-1.9,3.7
			c-1.3,0.9-3.5,1.3-6.5,1.3h-9.2V40.3z M234.9,64.6V53.5h9.2c5.1,0,8.6-0.8,10.5-2.5c1.9-1.6,2.9-3.6,2.9-6c0-1.4-0.4-2.6-1.1-3.8
			c-0.7-1.2-1.7-2-2.9-2.7c-1.2-0.6-2.7-1.1-4.4-1.3c-1.3-0.2-3.1-0.2-5.5-0.2h-13.6v27.7H234.9z"/>
	</g>
	<g>
		<path class="st0" d="M33.3,133h1.5v1.4h0c0.7-1.1,1.8-1.6,3.1-1.6c1.2,0,2.2,0.5,2.6,1.6c0.6-1,1.8-1.6,3-1.6
			c1.9,0,3.2,0.8,3.2,2.8v7h-1.6v-6.3c0-1.2-0.3-2.1-1.8-2.1c-1.5,0-2.5,1-2.5,2.4v6h-1.6v-6.3c0-1.2-0.4-2.1-1.8-2.1
			c-1.9,0-2.6,1.7-2.6,2.4v6h-1.6V133z"/>
		<path class="st0" d="M59.7,142.5c-0.3,0.2-0.6,0.3-1.1,0.3c-0.8,0-1.3-0.4-1.3-1.5c-0.9,1-2,1.5-3.4,1.5c-1.7,0-3.2-0.8-3.2-2.7
			c0-2.2,1.6-2.6,3.2-2.9c1.7-0.3,3.2-0.2,3.2-1.4c0-1.4-1.1-1.6-2.1-1.6c-1.3,0-2.3,0.4-2.4,1.8h-1.6c0.1-2.4,1.9-3.2,4.1-3.2
			c1.7,0,3.6,0.4,3.6,2.6v4.9c0,0.7,0,1.1,0.5,1.1c0.1,0,0.3,0,0.5-0.1V142.5z M57.2,137.6c-0.6,0.4-1.8,0.5-2.8,0.6
			c-1,0.2-1.9,0.6-1.9,1.7c0,1,0.9,1.4,1.8,1.4c2.1,0,2.9-1.3,2.9-2.2V137.6z"/>
		<path class="st0" d="M63.4,133h1.5v2h0c0.8-1.5,1.8-2.3,3.5-2.2v1.7c-2.5,0-3.5,1.4-3.5,3.9v4.3h-1.6V133z"/>
		<path class="st0" d="M71.9,129.3h1.6v7.8l4.4-4.2h2.1l-3.8,3.5l4.1,6.1h-2l-3.3-5l-1.5,1.4v3.6h-1.6V129.3z"/>
		<path class="st0" d="M91.7,139.5c-0.4,2.1-1.9,3.3-4.1,3.3c-3.1,0-4.5-2.1-4.6-5c0-2.9,1.9-5,4.5-5c3.4,0,4.4,3.2,4.3,5.5h-7.2
			c-0.1,1.7,0.9,3.1,3,3.1c1.3,0,2.2-0.6,2.5-1.9H91.7z M90.2,136.8c-0.1-1.5-1.2-2.7-2.8-2.7c-1.6,0-2.6,1.2-2.7,2.7H90.2z"/>
		<path class="st0" d="M97.9,133h1.9v1.4h-1.9v5.9c0,0.7,0.2,0.9,1.2,0.9h0.7v1.4h-1.2c-1.6,0-2.3-0.3-2.3-2.1v-6.1h-1.6V133h1.6
			v-2.9h1.6V133z"/>
		<path class="st0" d="M105.4,131.2h-1.6v-1.9h1.6V131.2z M103.8,133h1.6v9.6h-1.6V133z"/>
		<path class="st0" d="M110,133h1.5v1.5h0c0.7-1.2,1.7-1.7,3.1-1.7c2.5,0,3.3,1.4,3.3,3.5v6.3h-1.6v-6.5c0-1.2-0.7-1.9-1.9-1.9
			c-1.9,0-2.8,1.3-2.8,3v5.4H110V133z"/>
		<path class="st0" d="M130.8,141.7c0,3.1-1.4,4.7-4.4,4.7c-1.8,0-3.9-0.7-4-2.8h1.6c0.1,1.1,1.4,1.6,2.5,1.6c2.1,0,2.9-1.5,2.9-3.6
			v-0.6h0c-0.5,1.2-1.8,1.7-3,1.7c-2.8,0-4.3-2.2-4.3-4.8c0-2.3,1.1-5,4.4-5c1.2,0,2.3,0.5,2.8,1.6h0h0V133h1.5V141.7z M129.2,137.6
			c0-1.7-0.7-3.4-2.7-3.4c-2,0-2.8,1.6-2.8,3.5c0,1.7,0.6,3.6,2.7,3.6C128.4,141.2,129.2,139.3,129.2,137.6z"/>
		<path class="st0" d="M149.2,136c-0.2-1.2-1.1-1.9-2.4-1.9c-2.3,0-3,1.8-3,3.7c0,1.8,0.8,3.5,2.8,3.5c1.5,0,2.4-0.9,2.6-2.3h1.6
			c-0.4,2.3-1.8,3.7-4.2,3.7c-2.9,0-4.5-2-4.5-4.9c0-2.9,1.5-5.1,4.5-5.1c2.2,0,3.9,1,4.1,3.3H149.2z"/>
		<path class="st0" d="M159,132.7c3,0,4.6,2.2,4.6,5c0,2.8-1.6,5-4.6,5c-3,0-4.6-2.2-4.6-5C154.3,134.9,155.9,132.7,159,132.7z
			 M159,141.4c1.6,0,3-1.3,3-3.6c0-2.3-1.3-3.6-3-3.6s-3,1.3-3,3.6C156,140.1,157.3,141.4,159,141.4z"/>
		<path class="st0" d="M167.7,133h1.5v1.4h0c0.7-1.1,1.8-1.6,3.1-1.6c1.2,0,2.2,0.5,2.6,1.6c0.6-1,1.8-1.6,3-1.6
			c1.9,0,3.2,0.8,3.2,2.8v7h-1.6v-6.3c0-1.2-0.3-2.1-1.8-2.1c-1.5,0-2.5,1-2.5,2.4v6h-1.6v-6.3c0-1.2-0.4-2.1-1.8-2.1
			c-1.9,0-2.6,1.7-2.6,2.4v6h-1.6V133z"/>
		<path class="st0" d="M185.6,133h1.5v1.4h0c0.7-1.1,1.8-1.6,3.1-1.6c1.2,0,2.2,0.5,2.6,1.6c0.6-1,1.8-1.6,3-1.6
			c1.9,0,3.2,0.8,3.2,2.8v7h-1.6v-6.3c0-1.2-0.3-2.1-1.8-2.1c-1.5,0-2.5,1-2.5,2.4v6h-1.6v-6.3c0-1.2-0.4-2.1-1.8-2.1
			c-1.9,0-2.6,1.7-2.6,2.4v6h-1.6V133z"/>
		<path class="st0" d="M211.5,142.5H210V141h0c-0.7,1.2-1.7,1.7-3.1,1.7c-2.5,0-3.3-1.4-3.3-3.5V133h1.6v6.5c0,1.2,0.7,1.9,1.9,1.9
			c1.9,0,2.8-1.3,2.8-3V133h1.6V142.5z"/>
		<path class="st0" d="M216.1,133h1.5v1.5h0c0.7-1.2,1.7-1.7,3.1-1.7c2.5,0,3.3,1.4,3.3,3.5v6.3h-1.6v-6.5c0-1.2-0.7-1.9-1.9-1.9
			c-1.9,0-2.8,1.3-2.8,3v5.4h-1.6V133z"/>
		<path class="st0" d="M230.3,131.2h-1.6v-1.9h1.6V131.2z M228.7,133h1.6v9.6h-1.6V133z"/>
		<path class="st0" d="M241.4,136c-0.2-1.2-1.1-1.9-2.4-1.9c-2.3,0-3,1.8-3,3.7c0,1.8,0.8,3.5,2.8,3.5c1.5,0,2.4-0.9,2.6-2.3h1.6
			c-0.4,2.3-1.8,3.7-4.2,3.7c-2.9,0-4.5-2-4.5-4.9c0-2.9,1.5-5.1,4.5-5.1c2.2,0,3.9,1,4.1,3.3H241.4z"/>
		<path class="st0" d="M255.5,142.5c-0.3,0.2-0.6,0.3-1.1,0.3c-0.8,0-1.3-0.4-1.3-1.5c-0.9,1-2,1.5-3.4,1.5c-1.7,0-3.2-0.8-3.2-2.7
			c0-2.2,1.6-2.6,3.2-2.9c1.7-0.3,3.2-0.2,3.2-1.4c0-1.4-1.1-1.6-2.1-1.6c-1.3,0-2.3,0.4-2.4,1.8h-1.6c0.1-2.4,1.9-3.2,4-3.2
			c1.7,0,3.6,0.4,3.6,2.6v4.9c0,0.7,0,1.1,0.5,1.1c0.1,0,0.3,0,0.5-0.1V142.5z M253,137.6c-0.6,0.4-1.8,0.5-2.8,0.6
			c-1,0.2-1.9,0.6-1.9,1.7c0,1,0.9,1.4,1.8,1.4c2.1,0,2.9-1.3,2.9-2.2V137.6z"/>
		<path class="st0" d="M261.4,133h1.9v1.4h-1.9v5.9c0,0.7,0.2,0.9,1.2,0.9h0.7v1.4h-1.2c-1.6,0-2.3-0.3-2.3-2.1v-6.1h-1.6V133h1.6
			v-2.9h1.6V133z"/>
		<path class="st0" d="M268.9,131.2h-1.6v-1.9h1.6V131.2z M267.3,133h1.6v9.6h-1.6V133z"/>
		<path class="st0" d="M277.6,132.7c3,0,4.6,2.2,4.6,5c0,2.8-1.6,5-4.6,5s-4.6-2.2-4.6-5C273,134.9,274.6,132.7,277.6,132.7z
			 M277.6,141.4c1.6,0,3-1.3,3-3.6c0-2.3-1.3-3.6-3-3.6c-1.6,0-3,1.3-3,3.6C274.7,140.1,276,141.4,277.6,141.4z"/>
		<path class="st0" d="M286.3,133h1.5v1.5h0c0.7-1.2,1.7-1.7,3.1-1.7c2.5,0,3.3,1.4,3.3,3.5v6.3h-1.6v-6.5c0-1.2-0.7-1.9-1.9-1.9
			c-1.9,0-2.8,1.3-2.8,3v5.4h-1.6V133z"/>
		<path class="st0" d="M299.8,139.5c0.1,1.4,1.3,1.8,2.6,1.8c1,0,2.3-0.2,2.3-1.4c0-1.2-1.6-1.4-3.1-1.8c-1.6-0.4-3.1-0.9-3.1-2.7
			c0-1.9,1.9-2.7,3.6-2.7c2.1,0,3.8,0.7,3.9,3h-1.6c-0.1-1.2-1.2-1.6-2.2-1.6c-0.9,0-2,0.3-2,1.2c0,1.1,1.7,1.3,3.1,1.7
			c1.6,0.4,3.1,0.9,3.1,2.7c0,2.3-2.1,3-4.1,3c-2.1,0-4-0.9-4-3.2H299.8z"/>
	</g>
</g>
</svg>
